<?xml version="1.0" encoding="utf-8"?>
<!-- Generator: Adobe Illustrator 22.0.1, SVG Export Plug-In . SVG Version: 6.00 Build 0)  -->
<svg version="1.1" id="Laag_1" xmlns="http://www.w3.org/2000/svg" xmlns:xlink="http://www.w3.org/1999/xlink" x="0px" y="0px"
	 viewBox="0 0 1920 1080" style="enable-background:new 0 0 1920 1080;" xml:space="preserve">
<style type="text/css">
	.st0{fill:#101D2D;}
	.st1{fill:#132339;}
	.st2{fill:#12212E;}
	.st3{fill:#19293F;}
	.st4{fill:#C0BFD1;}
	.st5{fill:#524F64;}
	.st6{opacity:0.6;}
	.st7{fill:#262626;}
	.st8{fill:#1A1A1A;}
	.st9{opacity:0.7;}
	.st10{fill:none;stroke:#AD4182;stroke-width:3;stroke-miterlimit:10;}
	.st11{fill:#63D8F7;}
	.st12{opacity:0.3;fill:#3971D3;}
	.st13{fill:url(#SVGID_1_);}
	.st14{fill:#0D0E1F;}
	.st15{opacity:0.67;clip-path:url(#SVGID_3_);}
	.st16{fill:#171930;}
	.st17{opacity:0.4;fill:#191B30;}
	.st18{opacity:0.67;clip-path:url(#SVGID_5_);}
	.st19{fill:#401324;}
	.st20{fill:#4F1A30;}
	.st21{fill:#69C3E2;}
	.st22{fill:#C9F420;}
	.st23{fill:#78E53A;}
	.st24{fill:#110521;}
	.st25{fill:#589B34;}
	.st26{fill:#77E442;}
	.st27{fill:#BF2C41;}
	.st28{fill:#E94152;}
	.st29{fill:#FFFFFF;}
	.st30{fill:#F0B2EE;}
	.st31{fill:#E480B7;}
	.st32{fill:#AD4182;}
	.st33{fill:#D7B2E4;}
	.st34{fill:none;stroke:#091532;stroke-miterlimit:10;}
	.st35{fill:#FCF3FA;}
	.st36{fill:#E93F33;}
	.st37{fill:#FCDB33;}
	.st38{fill:#EB5733;}
	.st39{fill:#86201B;}
	.st40{fill:#EB5633;}
	.st41{fill:#C6B6CB;}
	.st42{fill:#F9E6FF;}
	.st43{fill:#241534;}
	.st44{fill:#F1A838;}
	.st45{fill:#88211C;}
	.st46{fill:#F6DDBA;}
	.st47{fill:url(#SVGID_6_);}
	.st48{fill:url(#SVGID_7_);}
	.st49{opacity:0.8;fill:#D7B2E4;}
	.st50{opacity:0.8;fill:#FCF3FA;}
	.st51{fill:url(#SVGID_8_);}
	.st52{fill:url(#SVGID_9_);}
	.st53{fill:url(#SVGID_10_);}
	.st54{fill:url(#SVGID_11_);}
	.st55{fill:url(#SVGID_12_);}
	.st56{fill:url(#SVGID_13_);}
	.st57{fill:url(#SVGID_14_);}
	.st58{fill:url(#SVGID_15_);}
	.st59{fill:url(#SVGID_16_);}
	.st60{fill:url(#SVGID_17_);}
	.st61{fill:url(#SVGID_18_);}
	.st62{fill:url(#SVGID_19_);}
	.st63{fill:url(#SVGID_20_);}
	.st64{fill:url(#SVGID_21_);}
	.st65{fill:url(#SVGID_22_);}
	.st66{fill:url(#SVGID_23_);}
	.st67{fill:url(#SVGID_24_);}
	.st68{fill:url(#SVGID_25_);}
	.st69{fill:url(#SVGID_26_);}
	.st70{fill:url(#SVGID_27_);}
	.st71{fill:url(#SVGID_28_);}
	.st72{fill:url(#SVGID_29_);}
	.st73{fill:url(#SVGID_30_);}
	.st74{fill:url(#SVGID_31_);}
	.st75{fill:url(#SVGID_32_);}
	.st76{fill:url(#SVGID_33_);}
	.st77{fill:url(#SVGID_34_);}
	.st78{fill:url(#SVGID_35_);}
	.st79{fill:url(#SVGID_36_);}
	.st80{fill:url(#SVGID_37_);}
	.st81{fill:url(#SVGID_38_);}
	.st82{fill:#E95633;}
	.st83{fill:#B83427;}
	.st84{opacity:0.3;fill:url(#SVGID_39_);}
	.st85{opacity:0.6;fill:#FFFFFF;}
	.st86{opacity:0.3;fill:url(#SVGID_40_);}
	.st87{fill:url(#SVGID_41_);}
	.st88{opacity:0.6;fill:#783A71;}
	.st89{fill:#BC714E;}
	.st90{fill:#895840;}
	.st91{fill:url(#SVGID_42_);}
	.st92{fill:url(#SVGID_43_);}
	.st93{fill:url(#SVGID_44_);}
	.st94{opacity:0.5;fill:#C79C73;}
	.st95{opacity:0.4;fill:#C79C73;}
	.st96{fill:url(#SVGID_45_);}
	.st97{fill:url(#SVGID_46_);}
	.st98{fill:#B6D6DB;}
	.st99{fill:url(#SVGID_47_);}
	.st100{fill:#87445F;}
	.st101{fill:#A14E6E;}
	.st102{fill:#551E35;}
	.st103{fill:#310E1D;}
	.st104{opacity:0.5;fill:#9A8D41;}
	.st105{fill:#06020C;}
	.st106{fill:#0E0623;}
	.st107{fill:#200C39;}
	.st108{fill:#7A468C;}
	.st109{fill:#BD96C4;}
	.st110{fill:#E8E8E9;}
	.st111{fill:#F29100;}
	.st112{fill:#D86504;}
	.st113{fill:#F7A800;}
	.st114{fill:#D3482D;}
	.st115{opacity:0.2;}
	.st116{fill:#2E3192;}
	.st117{opacity:0.3;fill:#2E3192;}
	.st118{opacity:0.3;fill-rule:evenodd;clip-rule:evenodd;fill:#FFFFFF;}
	.st119{fill:#068241;}
	.st120{opacity:0.3;}
	.st121{fill:#3971D3;}
	.st122{fill:#003A1A;}
	.st123{fill-rule:evenodd;clip-rule:evenodd;fill:#3971D3;}
	.st124{fill:url(#SVGID_48_);}
	.st125{fill:none;}
	.st126{fill:#FCB345;}
	.st127{fill:#FDDC95;}
	.st128{fill:#361857;}
	.st129{opacity:0.88;fill:url(#SVGID_49_);}
	.st130{opacity:0.3;fill:#F29100;}
	.st131{opacity:0.3;fill:#D86504;}
	.st132{fill:#636363;}
	.st133{fill:#E0851A;}
	.st134{fill:#E6E6E6;}
	.st135{fill:#FAAF40;}
	.st136{fill:#F6921E;}
	.st137{fill:#808080;}
	.st138{fill:#CCCCCC;}
	.st139{fill:#D3CFCD;}
	.st140{fill:#BCBAB8;}
	.st141{fill:#E7E2DF;}
	.st142{fill:#EDE8E6;}
	.st143{fill:#EF8300;}
	.st144{fill:#6A932E;}
	.st145{fill:#2A2B25;}
	.st146{fill:#E63435;}
	.st147{fill:#C68038;}
	.st148{fill:#F3C67C;}
	.st149{fill:#EB1D25;}
	.st150{fill:#D1E5F0;}
	.st151{fill:#4B510D;}
	.st152{fill:#6C7F17;}
	.st153{fill:#D9DC56;}
	.st154{opacity:0.1;}
	.st155{fill:#A33F37;}
	.st156{fill:#B74E49;}
	.st157{fill:url(#SVGID_50_);}
	.st158{fill:url(#SVGID_51_);}
	.st159{fill:url(#SVGID_52_);}
	.st160{fill:url(#SVGID_53_);}
	.st161{fill:url(#SVGID_54_);}
	.st162{opacity:0.5;fill:#A7DFFB;}
	.st163{opacity:0.3;fill:#FFFFFF;}
	.st164{opacity:0.8;fill:#FFFFFF;}
	.st165{fill:url(#SVGID_55_);}
	.st166{fill:url(#SVGID_56_);}
	.st167{fill:url(#SVGID_57_);}
	.st168{fill:url(#SVGID_58_);}
	.st169{fill:url(#SVGID_59_);}
	.st170{fill:#4B5063;}
	.st171{fill:#D0CDDE;}
	.st172{fill:#6F839C;}
	.st173{fill:#B0271D;}
	.st174{fill:#111317;}
	.st175{fill:#6D4C29;}
	.st176{fill:#5E4223;}
	.st177{fill:#362614;}
	.st178{fill:none;stroke:#B58D5A;stroke-miterlimit:10;}
	.st179{fill:#F2F2F4;}
	.st180{opacity:0.5;fill:#E2D7CC;}
	.st181{fill:url(#SVGID_60_);}
	.st182{fill:url(#SVGID_61_);}
	.st183{fill:url(#SVGID_62_);}
	.st184{fill:url(#SVGID_63_);}
	.st185{fill:url(#SVGID_64_);}
	.st186{fill:url(#SVGID_65_);}
	.st187{fill:url(#SVGID_66_);}
	.st188{fill:url(#SVGID_67_);}
	.st189{fill:url(#SVGID_68_);}
	.st190{fill:url(#SVGID_69_);}
	.st191{fill:url(#SVGID_70_);}
	.st192{fill:#573D7F;}
	.st193{fill:#3E3756;}
	.st194{fill:#8360BA;}
	.st195{fill:#7450A5;}
	.st196{fill:#9876CE;}
	.st197{fill:#63478E;}
	.st198{fill:#F45864;}
	.st199{fill:#CC4A5F;}
	.st200{fill:#E83D43;}
	.st201{fill:#E8B57E;}
	.st202{fill:#CEA272;}
	.st203{fill:#BC9665;}
	.st204{fill:#CC7323;}
	.st205{fill:#F08A25;}
	.st206{fill:#A8A8AA;}
	.st207{fill:#999999;}
	.st208{fill:#8B8B8C;}
	.st209{fill:#00D7F3;}
	.st210{fill:#03C9D8;}
	.st211{fill:#09B3B7;}
	.st212{fill:#3AAB51;}
	.st213{fill:#369145;}
	.st214{fill:#297536;}
	.st215{fill:#FBE12A;}
	.st216{fill:#F9B52B;}
	.st217{fill:#E09D27;}
	.st218{fill:#FFEE99;}
	.st219{fill:url(#SVGID_71_);}
	.st220{fill:url(#SVGID_72_);}
	.st221{fill:url(#SVGID_73_);}
	.st222{fill:url(#SVGID_74_);}
	.st223{fill:url(#SVGID_75_);}
	.st224{fill:url(#SVGID_76_);}
	.st225{fill:url(#SVGID_77_);}
	.st226{fill:url(#SVGID_78_);}
	.st227{fill:url(#SVGID_79_);}
	.st228{fill:url(#SVGID_80_);}
	.st229{fill:url(#SVGID_81_);}
	.st230{fill:#ECECEC;}
	.st231{fill:url(#SVGID_82_);}
	.st232{fill:url(#SVGID_83_);}
	.st233{fill:url(#SVGID_84_);}
	.st234{fill:url(#SVGID_85_);}
	.st235{fill:url(#SVGID_86_);}
	.st236{fill:url(#SVGID_87_);}
	.st237{fill:url(#SVGID_88_);}
	.st238{fill:url(#SVGID_89_);}
	.st239{fill:url(#SVGID_90_);}
	.st240{fill:url(#SVGID_91_);}
	.st241{fill:url(#SVGID_92_);}
	.st242{fill:url(#SVGID_93_);}
	.st243{fill:url(#SVGID_94_);}
	.st244{fill:url(#SVGID_95_);}
	.st245{fill:url(#SVGID_96_);}
	.st246{fill:url(#SVGID_97_);}
	.st247{fill:url(#SVGID_98_);}
	.st248{fill:url(#SVGID_99_);}
	.st249{fill:url(#SVGID_100_);}
	.st250{fill:url(#SVGID_101_);}
	.st251{fill:url(#SVGID_102_);}
	.st252{fill:url(#SVGID_103_);}
	.st253{fill:url(#SVGID_104_);}
	.st254{fill:url(#SVGID_105_);}
	.st255{fill:url(#SVGID_106_);}
	.st256{fill:url(#SVGID_107_);}
	.st257{fill:url(#SVGID_108_);}
	.st258{fill:url(#SVGID_109_);}
	.st259{fill:url(#SVGID_110_);}
	.st260{fill:url(#SVGID_111_);}
	.st261{fill:url(#SVGID_112_);}
	.st262{fill:url(#SVGID_113_);}
	.st263{fill:url(#SVGID_114_);}
	.st264{stroke:#AD4182;stroke-width:3;stroke-miterlimit:10;}
	.st265{opacity:0.8;}
	.st266{fill:none;stroke:#1A1A1A;stroke-width:4;stroke-linecap:round;stroke-linejoin:bevel;stroke-miterlimit:10;}
	.st267{fill:url(#SVGID_115_);}
	.st268{fill:url(#SVGID_116_);}
	.st269{fill:url(#SVGID_117_);}
	.st270{fill:url(#SVGID_118_);}
	.st271{fill:url(#SVGID_119_);}
	.st272{fill:url(#SVGID_120_);}
	.st273{fill:url(#SVGID_121_);}
	.st274{fill:url(#SVGID_122_);}
	.st275{fill:url(#SVGID_123_);}
	.st276{fill:url(#SVGID_124_);}
	.st277{fill:url(#SVGID_125_);}
	.st278{fill:url(#SVGID_126_);}
	.st279{fill:url(#SVGID_127_);}
	.st280{fill:url(#SVGID_128_);}
	.st281{fill:url(#SVGID_129_);}
	.st282{fill:url(#SVGID_130_);}
	.st283{fill:url(#SVGID_131_);}
	.st284{fill:url(#SVGID_132_);}
	.st285{fill:url(#SVGID_133_);}
	.st286{fill:url(#SVGID_134_);}
	.st287{fill:url(#SVGID_135_);}
	.st288{fill:url(#SVGID_136_);}
	.st289{fill:url(#SVGID_137_);}
	.st290{fill:url(#SVGID_138_);}
	.st291{fill:url(#SVGID_139_);}
	.st292{fill:url(#SVGID_140_);}
	.st293{fill:url(#SVGID_141_);}
	.st294{fill:url(#SVGID_142_);}
	.st295{fill:url(#SVGID_143_);}
	.st296{fill:url(#SVGID_144_);}
	.st297{fill:url(#SVGID_145_);}
	.st298{fill:url(#SVGID_146_);}
	.st299{fill:url(#SVGID_147_);}
	.st300{fill:url(#SVGID_148_);}
	.st301{fill:url(#SVGID_149_);}
	.st302{fill:url(#SVGID_150_);}
	.st303{fill:url(#SVGID_151_);}
	.st304{fill:url(#SVGID_152_);}
	.st305{fill:url(#SVGID_153_);}
	.st306{fill:url(#SVGID_154_);}
	.st307{fill:url(#SVGID_155_);}
	.st308{fill:url(#SVGID_156_);}
	.st309{fill:url(#SVGID_157_);}
	.st310{fill:url(#SVGID_158_);}
	.st311{fill:url(#SVGID_159_);}
	.st312{fill:url(#SVGID_160_);}
	.st313{fill:url(#SVGID_161_);}
	.st314{fill:url(#SVGID_162_);}
	.st315{fill:url(#SVGID_163_);}
	.st316{fill:url(#SVGID_164_);}
	.st317{fill:url(#SVGID_165_);}
	.st318{fill:url(#SVGID_166_);}
	.st319{fill:url(#SVGID_167_);}
	.st320{fill:url(#SVGID_168_);}
	.st321{fill:url(#SVGID_169_);}
	.st322{fill:url(#SVGID_170_);}
	.st323{fill:url(#SVGID_171_);}
	.st324{fill:url(#SVGID_172_);}
	.st325{fill:url(#SVGID_173_);}
	.st326{fill:url(#SVGID_174_);}
	.st327{fill:url(#SVGID_175_);}
	.st328{fill:url(#SVGID_176_);}
	.st329{fill:url(#SVGID_177_);}
	.st330{fill:url(#SVGID_178_);}
	.st331{fill:url(#SVGID_179_);}
	.st332{fill:url(#SVGID_180_);}
	.st333{fill:url(#SVGID_181_);}
	.st334{fill:url(#SVGID_182_);}
	.st335{fill:url(#SVGID_183_);}
	.st336{fill:url(#SVGID_184_);}
	.st337{fill:url(#SVGID_185_);}
	.st338{fill:url(#SVGID_186_);}
	.st339{fill:url(#SVGID_187_);}
	.st340{fill:url(#SVGID_188_);}
	.st341{fill:url(#SVGID_189_);}
	.st342{fill:url(#SVGID_190_);}
	.st343{fill:url(#SVGID_191_);}
	.st344{fill:url(#SVGID_192_);}
	.st345{fill:url(#SVGID_193_);}
	.st346{fill:url(#SVGID_194_);}
	.st347{fill:url(#SVGID_195_);}
	.st348{fill:url(#SVGID_196_);}
	.st349{fill:url(#SVGID_197_);}
	.st350{fill:url(#SVGID_198_);}
	.st351{fill:url(#SVGID_199_);}
	.st352{fill:url(#SVGID_200_);}
	.st353{fill:url(#SVGID_201_);}
	.st354{fill:url(#SVGID_202_);}
	.st355{fill:url(#SVGID_203_);}
	.st356{fill:url(#SVGID_204_);}
	.st357{fill:url(#SVGID_205_);}
	.st358{fill:url(#SVGID_206_);}
	.st359{fill:url(#SVGID_207_);}
	.st360{fill:url(#SVGID_208_);}
	.st361{fill:url(#SVGID_209_);}
	.st362{fill:url(#SVGID_210_);}
	.st363{fill:url(#SVGID_211_);}
	.st364{fill:url(#SVGID_212_);}
	.st365{fill:url(#SVGID_213_);}
	.st366{fill:url(#SVGID_214_);}
	.st367{fill:url(#SVGID_215_);}
	.st368{fill:url(#SVGID_216_);}
	.st369{fill:url(#SVGID_217_);}
	.st370{fill:url(#SVGID_218_);}
	.st371{fill:url(#SVGID_219_);}
	.st372{fill:url(#SVGID_220_);}
	.st373{fill:url(#SVGID_221_);}
	.st374{fill:url(#SVGID_222_);}
	.st375{fill:url(#SVGID_223_);}
	.st376{fill:url(#SVGID_224_);}
	.st377{fill:url(#SVGID_225_);}
	.st378{fill:url(#SVGID_226_);}
	.st379{fill:url(#SVGID_227_);}
	.st380{fill:url(#SVGID_228_);}
	.st381{fill:url(#SVGID_229_);}
	.st382{fill:url(#SVGID_230_);}
	.st383{fill:url(#SVGID_231_);}
	.st384{fill:url(#SVGID_232_);}
	.st385{fill:url(#SVGID_233_);}
	.st386{fill:url(#SVGID_234_);}
	.st387{fill:url(#SVGID_235_);}
	.st388{fill:url(#SVGID_236_);}
	.st389{fill:url(#SVGID_237_);}
	.st390{fill:url(#SVGID_238_);}
	.st391{fill:url(#SVGID_239_);}
	.st392{fill:url(#SVGID_240_);}
	.st393{fill:url(#SVGID_241_);}
	.st394{fill:url(#SVGID_242_);}
	.st395{fill:url(#SVGID_243_);}
	.st396{fill:url(#SVGID_244_);}
	.st397{fill:url(#SVGID_245_);}
	.st398{fill:url(#SVGID_246_);}
	.st399{fill:url(#SVGID_247_);}
	.st400{fill:url(#SVGID_248_);}
	.st401{fill:url(#SVGID_249_);}
	.st402{fill:url(#SVGID_250_);}
	.st403{fill:url(#SVGID_251_);}
	.st404{fill:url(#SVGID_252_);}
	.st405{fill:url(#SVGID_253_);}
	.st406{fill:#F8FFFF;}
	.st407{fill:#C59869;}
	.st408{fill:#C0C4BB;}
	.st409{opacity:0.8;fill:none;}
	.st410{fill:#717B1D;}
	.st411{fill:#26280E;}
	.st412{fill:#B3B3B3;stroke:#FFFFFF;stroke-width:4;stroke-miterlimit:10;}
	.st413{opacity:0.8;fill:#ED2814;}
	.st414{opacity:0.8;fill:#F2C646;}
	.st415{fill:#A66F43;}
	.st416{fill:#A9D8E3;}
	.st417{fill:#D4C3A8;}
	.st418{fill:#3C5F1B;}
	.st419{fill:#4DA3B8;}
	.st420{fill:#E66243;}
	.st421{fill:url(#SVGID_254_);}
	.st422{fill:url(#SVGID_255_);}
	.st423{fill:url(#SVGID_256_);}
	.st424{fill:url(#SVGID_257_);}
	.st425{fill:url(#SVGID_258_);}
	.st426{fill:url(#SVGID_259_);}
	.st427{fill:url(#SVGID_260_);}
	.st428{fill:url(#SVGID_261_);}
	.st429{fill:url(#SVGID_262_);}
	.st430{fill:url(#SVGID_263_);}
	.st431{fill:url(#SVGID_264_);}
	.st432{fill:url(#SVGID_265_);}
	.st433{fill:url(#SVGID_266_);}
	.st434{fill:url(#SVGID_267_);}
	.st435{fill:url(#SVGID_268_);}
	.st436{fill:url(#SVGID_269_);}
	.st437{fill:url(#SVGID_270_);}
	.st438{fill:url(#SVGID_271_);}
	.st439{fill:url(#SVGID_272_);}
	.st440{fill:url(#SVGID_273_);}
	.st441{fill:url(#SVGID_274_);}
	.st442{fill:url(#SVGID_275_);}
	.st443{fill:url(#SVGID_276_);}
	.st444{fill:url(#SVGID_277_);}
	.st445{fill:url(#SVGID_278_);}
	.st446{fill:url(#SVGID_279_);}
	.st447{fill:url(#SVGID_280_);}
	.st448{fill:url(#SVGID_281_);}
	.st449{fill:url(#SVGID_282_);}
	.st450{fill:url(#SVGID_283_);}
	.st451{fill:url(#SVGID_284_);}
	.st452{fill:url(#SVGID_285_);}
	.st453{fill:url(#SVGID_286_);}
	.st454{fill:url(#SVGID_287_);}
	.st455{fill:url(#SVGID_288_);}
	.st456{fill:url(#SVGID_289_);}
	.st457{fill:url(#SVGID_290_);}
	.st458{fill:url(#SVGID_291_);}
	.st459{fill:url(#SVGID_292_);}
	.st460{fill:url(#SVGID_293_);}
	.st461{fill:url(#SVGID_294_);}
	.st462{fill:url(#SVGID_295_);}
	.st463{fill:url(#SVGID_296_);}
	.st464{fill:url(#SVGID_297_);}
	.st465{fill:url(#SVGID_298_);}
	.st466{fill:url(#SVGID_299_);}
	.st467{fill:url(#SVGID_300_);}
	.st468{fill:url(#SVGID_301_);}
	.st469{fill:url(#SVGID_302_);}
	.st470{fill:url(#SVGID_303_);}
	.st471{fill:url(#SVGID_304_);}
	.st472{fill:url(#SVGID_305_);}
	.st473{fill:url(#SVGID_306_);}
	.st474{fill:url(#SVGID_307_);}
	.st475{fill:url(#SVGID_308_);}
	.st476{fill:url(#SVGID_309_);}
	.st477{fill:url(#SVGID_310_);}
	.st478{fill:url(#SVGID_311_);}
	.st479{fill:url(#SVGID_312_);}
	.st480{fill:url(#SVGID_313_);}
	.st481{fill:url(#SVGID_314_);}
	.st482{fill:url(#SVGID_315_);}
	.st483{fill:url(#SVGID_316_);}
	.st484{fill:url(#SVGID_317_);}
	.st485{fill:url(#SVGID_318_);}
	.st486{fill:url(#SVGID_319_);}
	.st487{fill:url(#SVGID_320_);}
	.st488{fill:url(#SVGID_321_);}
	.st489{fill:url(#SVGID_322_);}
	.st490{fill:url(#SVGID_323_);}
	.st491{fill:url(#SVGID_324_);}
	.st492{fill:url(#SVGID_325_);}
	.st493{fill:url(#SVGID_326_);}
	.st494{fill:url(#SVGID_327_);}
	.st495{fill:url(#SVGID_328_);}
	.st496{fill:url(#SVGID_329_);}
	.st497{fill:url(#SVGID_330_);}
	.st498{fill:url(#SVGID_331_);}
	.st499{fill:url(#SVGID_332_);}
	.st500{fill:url(#SVGID_333_);}
	.st501{fill:url(#SVGID_334_);}
	.st502{fill:url(#SVGID_335_);}
	.st503{fill:url(#SVGID_336_);}
	.st504{fill:url(#SVGID_337_);}
	.st505{fill:url(#SVGID_338_);}
	.st506{fill:url(#SVGID_339_);}
	.st507{fill:url(#SVGID_340_);}
	.st508{fill:url(#SVGID_341_);}
	.st509{opacity:0.67;clip-path:url(#SVGID_343_);}
	.st510{fill:url(#SVGID_344_);}
	.st511{fill:url(#SVGID_345_);}
	.st512{fill:url(#SVGID_346_);}
	.st513{fill:url(#SVGID_347_);}
	.st514{fill:url(#SVGID_348_);}
	.st515{fill:url(#SVGID_349_);}
	.st516{fill:url(#SVGID_350_);}
	.st517{fill:url(#SVGID_351_);}
	.st518{fill:url(#SVGID_352_);}
	.st519{fill:url(#SVGID_353_);}
	.st520{fill:url(#SVGID_354_);}
	.st521{opacity:0.88;fill:url(#SVGID_355_);}
	.st522{opacity:0.88;fill:url(#SVGID_356_);}
	.st523{opacity:0.88;fill:url(#SVGID_357_);}
	.st524{opacity:0.88;fill:url(#SVGID_358_);}
	.st525{opacity:0.88;fill:url(#SVGID_359_);}
	.st526{opacity:0.67;clip-path:url(#SVGID_361_);}
	.st527{fill:url(#SVGID_362_);}
	.st528{fill:url(#SVGID_363_);}
	.st529{fill:url(#SVGID_364_);}
	.st530{fill:url(#SVGID_365_);}
	.st531{fill:url(#SVGID_366_);}
	.st532{fill:url(#SVGID_367_);}
	.st533{fill:url(#SVGID_368_);}
	.st534{fill:url(#SVGID_369_);}
	.st535{fill:url(#SVGID_370_);}
	.st536{fill:url(#SVGID_371_);}
	.st537{fill:url(#SVGID_372_);}
	.st538{opacity:0.88;fill:url(#SVGID_373_);}
	.st539{opacity:0.88;fill:url(#SVGID_374_);}
	.st540{opacity:0.88;fill:url(#SVGID_375_);}
	.st541{opacity:0.88;fill:url(#SVGID_376_);}
	.st542{opacity:0.88;fill:url(#SVGID_377_);}
	.st543{opacity:0.67;clip-path:url(#SVGID_379_);}
	.st544{fill:url(#SVGID_380_);}
	.st545{fill:url(#SVGID_381_);}
	.st546{fill:url(#SVGID_382_);}
	.st547{fill:url(#SVGID_383_);}
	.st548{fill:url(#SVGID_384_);}
	.st549{fill:url(#SVGID_385_);}
	.st550{fill:url(#SVGID_386_);}
	.st551{fill:url(#SVGID_387_);}
	.st552{fill:url(#SVGID_388_);}
	.st553{fill:url(#SVGID_389_);}
	.st554{fill:url(#SVGID_390_);}
	.st555{opacity:0.88;fill:url(#SVGID_391_);}
	.st556{opacity:0.88;fill:url(#SVGID_392_);}
	.st557{opacity:0.88;fill:url(#SVGID_393_);}
	.st558{opacity:0.88;fill:url(#SVGID_394_);}
	.st559{opacity:0.88;fill:url(#SVGID_395_);}
</style>
<g>
	<defs>
		<rect id="SVGID_4_" x="1993" width="1920" height="1080"/>
	</defs>
	<clipPath id="SVGID_1_">
		<use xlink:href="#SVGID_4_"  style="overflow:visible;"/>
	</clipPath>
	<g style="opacity:0.67;clip-path:url(#SVGID_1_);">
		<path class="st16" d="M1901.5,178l-1.2,0.1l-1.6,0.5l-0.9,0.6l-1.2,1.6l-0.3,0.9l0.1,1.3l0.5,0.9c0.2,0.2,0.4,0.4,0.7,0.7l0.2,0.2
			c0.5,0.5,1,1,1.6,1.5c3,2.4,6.1,2,7.7,1.6l0.9-0.5l0.9-1l0.4-0.8l0.2-1.8l-0.2-0.8l-0.7-1.1l-0.8-0.6c-0.6-0.3-0.7-0.4-0.8-0.5
			l-0.4-0.4c-0.2-0.2-0.4-0.3-0.6-0.5C1904.8,179,1903.4,178.4,1901.5,178z"/>
		<path class="st16" d="M1860.7,339.6l-0.6-0.2l-0.9-0.2l-0.6-0.1l-1.5,0l-0.6,0.1l-0.9,0.3l-0.6,0.3c-1.2,0.8-2.1,2-2.2,3.3
			c-0.3,2.3,1.5,4.3,4.3,4.9l0.4,0l0.6,0l0.4,0l1-0.2l0.4-0.1l0.6-0.2l0.4-0.2c1.2-0.8,2-1.9,2.1-3.1
			C1863.5,342.4,1862.6,340.7,1860.7,339.6z"/>
		<path class="st16" d="M1874.4,41.8l0.7,0.1l1.1,0l0.7-0.1l1.6-0.4l0.5-0.2l0.7-0.4l0.4-0.3c0.6-0.5,1.9-1.5,2.2-3.2
			c0.2-1.8-0.9-3.4-3-4.3l-0.8-0.2l-1.2,0l-0.8,0.1l-1.7,0.6l-0.5,0.3l-0.6,0.4l0.3,0.2l-0.7,0.1c-0.6,0.5-1.5,1.4-1.7,2.8
			C1871.1,38.9,1871.8,40.8,1874.4,41.8z"/>
		<path class="st16" d="M1895.7,173.5l0.4,0.5l1.1,1l0.6,0.4l0.9,0.4l0.7,0.2l1.6,0.1l0.8-0.1l1-0.2l0.7-0.3l1.3-0.9l0.5-0.5
			l0.5-0.8l0.2-0.6l0.2-1.3l-0.1-0.6l-0.3-0.8l-0.3-0.5l-1-1.1l-0.5-0.4l-0.9-0.4l-0.7-0.2c-2.3-0.4-3.9,0.2-4.9,0.8
			c-0.9,0.5-2,1.6-2.3,3.4l0,0.4l0.1,0.6L1895.7,173.5z"/>
		<path class="st16" d="M1801.1,227c2.1,0.9,4.6,0.8,6.6-0.5l0.6-0.6l0.5-1l0.2-0.8l-0.2-1.6l-0.3-0.7l-0.7-0.9l-0.7-0.5
			c-2.3-1-4.3-1.1-6.1-0.4l-0.4,0.2l-0.5,0.4l-0.3,0.3l-0.8,0.9l-0.2,0.3l-0.2,0.5l-0.1,0.4C1798.3,224.6,1799.3,226.2,1801.1,227z"
			/>
		<path class="st16" d="M1652.3,62l-0.1-0.5c-0.1-0.2-0.1-0.5-0.2-0.7c-0.5-1.4-1.4-2.5-2.8-3.6l-1.1-0.4l-1.7-0.2l-1.2,0.2l-2,0.9
			l-0.8,0.7l-0.7,1.2l-0.1,1c0.1,0.3,0.1,0.5,0.2,0.9l0.1,0.3c0.1,0.6,0.2,1.3,0.5,1.9c1.2,3.3,4.1,4.2,5.7,4.4l1.1-0.1l1.4-0.5
			l0.8-0.6l1.2-1.5l0.3-0.8l0-1.2l-0.3-0.8C1652.4,62.2,1652.3,62,1652.3,62z"/>
		<path class="st16" d="M1880.4,332.1l-0.1,0.3l-0.2,0.6l-0.1,0.7l0,0.3l0,0.4l0.1,0.3l0.6,1.7l0.3,0.5l0.7,0.7l0.6,0.4l1.5,0.7
			l0.7,0.2l1.1,0.1l0.7,0l2.1-0.5l0.3-0.1l0.5-0.2l0.3-0.1l0.7-0.4l0.3-0.2l0.3-0.3l0.2-0.2c0.9-1.2,1.2-2.6,0.7-3.9
			c-0.7-2-2.8-3.4-5.3-3.6C1883.8,329.1,1881.5,330.2,1880.4,332.1z"/>
		<path class="st16" d="M1882.1,217.6l1-0.4l0.6-0.4l1.3-1.4l0.3-0.5c0.2-0.4,0.7-1.4,0.1-3.1c0,0-0.2-0.4-0.2-0.4l-0.4-0.5
			l-0.7-0.6l-0.6-0.3l-1.4-0.5l-0.7-0.1l-1-0.1l-0.7,0.1l-1.5,0.3l-0.7,0.3l-0.8,0.5l-0.5,0.5l-0.8,1.2l-0.2,0.6l-0.1,0.9l0.1,0.6
			l0.3,0.8l0.3,0.5l0.6,0.6l0.5,0.4l1.5,0.8l0.3,0.1c0.4,0.1,1.3,0.5,2.7,0.4L1882.1,217.6z"/>
		<path class="st16" d="M1727.1,330.9l1.5,1.4l1.1,0.5l1.7,0.3l1,0c0.1,0,0.4-0.1,0.7-0.1c3.8-0.5,5.9-2,6-4.4l-0.1-0.4l-0.2-0.6
			l-0.2-0.4l-0.7-0.9l-0.3-0.3l-0.6-0.4l-0.5-0.3c-3.8-1.6-7.8,0.5-9.6,2.3l-0.4,1l0,1.4L1727.1,330.9z"/>
		<path class="st16" d="M1744,5.1c1.5,0.5,3.2,0.3,4.4-0.3c2-0.7,3.5-2.6,2.6-5.2l-0.3-0.9l-0.2-0.3l-0.4-0.5l-0.3-0.3l-0.9-0.7
			l-0.4-0.2l-0.6-0.3l-0.5-0.2c-2-0.4-4.1,0-5.5,1.1c-1.4,1.2-2,3-1.4,4.6C1741.1,3.5,1742.3,4.6,1744,5.1z"/>
		<path class="st16" d="M1792.7,206.2l0.3-0.4l0.6-1.1l0.1-0.5l0.1-0.7l-0.1-0.5l-0.3-0.8l-0.3-0.5l-0.6-0.6l-0.5-0.4l-1.5-0.8
			l-0.4-0.2c-0.4-0.1-1.2-0.4-2.3-0.4l-1,0.2l-1.2,0.6l-0.7,0.6l-1,1.5l-0.2,0.6l-0.1,0.9l0.1,0.6c0.3,0.7,0.9,2.4,3.3,3.2
			c1.5,0.5,3.1,0.4,4.6-0.3l0.5-0.3L1792.7,206.2z"/>
		<path class="st16" d="M1777.8,67.3c1.7-0.7,2.7-1.9,2.8-3.5l-0.1-0.6l-0.4-0.9l-0.4-0.5l-0.6-0.4L1779,61l-0.4-0.7l-1.2-1.3
			l-0.7-0.5l-1.2-0.4l-0.9-0.2c-3.3,0.1-5.4,2-5.4,4.8l1,0.8l-0.1,0.8l1.5,1.4l0.3,0l0.3,0.7C1774.1,67.7,1776,68,1777.8,67.3z"/>
		<path class="st16" d="M1846.2,112.9l-0.7-0.3l-1.1-0.2l-0.8,0c-0.8,0.1-3.1,0.4-4.5,2.1l-0.2,0.3l-0.2,0.4l-0.1,0.3l-0.2,1l0,0.3
			l0,0.5l0.1,0.3c0.7,2.1,3.4,3.3,6.1,2.9c0.5-0.1,1.1-0.3,1.6-0.5l0.6,0.5l0.5,0.3l0.8,0.3l0.6,0.2c1.6,0.2,3.1,0,4.4-0.8
			c1.2-0.7,2-1.8,2.2-3.2c0-0.3,0.1-0.7,0-1.1l-0.2-0.6l-0.4-0.8l-0.4-0.5l-1.2-0.9l-0.6-0.3l-0.9-0.3l-0.9-0.1
			c-1.6-0.1-2.7,0.2-3.6,0.5L1846.2,112.9z"/>
		<path class="st16" d="M1878.5,52.8l-0.5,0.3l-0.6,0.5L1877,54l-0.6,1.1l-0.2,0.5l-0.1,0.8l0.1,0.5l0,0.1c0.7,2.1,2.8,3.4,5.5,3.6
			l1-0.2l1.3-0.5l0.8-0.6l1.1-1.5l0.3-0.6l0.1-1l-0.1-0.6c-0.3-0.7-1-2.4-3.2-3.1C1882.2,52.2,1880.5,51.9,1878.5,52.8z"/>
		<path class="st16" d="M1802.3,147.2l0.3,0.5l0.6,0.7l0.5,0.4l1.4,0.7l0.7,0.2l1,0.1l0.7,0c2-0.3,3.1-1.3,3.7-2
			c0.5-0.6,1.2-1.9,0.6-3.6c-0.1-0.3-0.3-0.7-0.5-1l-0.4-0.4l-0.7-0.5l-0.5-0.3l-1.4-0.5l-0.7-0.1l-1-0.1l-0.7,0.1l-1,0.2l-0.7,0.3
			l-0.8,0.5l-0.5,0.5l-0.8,1.2l-0.2,0.6l-0.1,0.9l0.1,0.6L1802.3,147.2z"/>
		<path class="st16" d="M1847.3,255.8l0.5-0.3l0.6-0.6l0.4-0.4l0.6-1.1l0.2-0.5l0.1-0.7l-0.1-0.5l-0.3-0.8l-0.3-0.5l-0.6-0.6
			l-0.5-0.4l-1.3-0.7l-0.4-0.2c-0.3-0.1-1.3-0.5-2.5-0.5l-1,0.2l-1.2,0.6l-0.7,0.6l-1,1.5l-0.2,0.6l-0.1,0.9l0.1,0.6
			c0.3,0.7,0.9,2.4,3.2,3.2C1844.2,256.5,1845.8,256.5,1847.3,255.8z"/>
		<path class="st16" d="M1896.8,292.4c1.6,0.5,3.3,0.4,4.4-0.1c1.2-0.4,3.9-1.5,3.6-5.2l0-0.4l-0.2-0.6l-0.5-0.8l-0.5-0.5l-0.4-0.3
			l0-0.1c-0.8-1.2-2-1.9-3.5-2.2c-0.9-0.2-2.4-0.2-3.8,0.5c-2.6,1-3.8,3.5-2.9,6C1893.6,290.5,1895,291.8,1896.8,292.4z"/>
		<path class="st16" d="M1694.9,191.7l0.4,2.2l2.2,1.4l2.7-0.3l0.9-1l0.3-0.5l0.3-0.8l-0.4-0.1l0.4,0c0.1-0.4,0.4-1.4-0.1-2.6
			c-0.1-0.3-0.2-0.6-0.4-0.9l-0.4-0.4l-0.6-0.5l-0.5-0.3l-1.3-0.5l-2.6,0.7l-1.2,2l0.6,1.4L1694.9,191.7z"/>
		<path class="st16" d="M1865.7,146.9l0.3,0.4c0.1,0.1,0.2,0.4,0.4,0.6c0.5,0.9,1.1,2.1,2.8,3.2l0.6,0.3l1,0.3l0.7,0.1
			c3.4,0.2,5.2-1.1,5.9-1.8c1.2-1.2,1.6-2.9,1-4.6c-0.8-2.2-2.9-3.9-5.4-4.4c-2.4-0.5-4.8,0.1-6.7,1.5l-0.4,0.5l-0.4,0.8l-0.2,0.6
			l-0.1,1.3l0.1,0.6L1865.7,146.9z"/>
		<path class="st16" d="M1834.7,467.7l0.9-0.4l1-0.9l0.5-0.8l0.4-1.7l-0.1-0.9l-0.6-1.1l-0.7-0.7c-0.5-0.3-0.7-0.5-0.7-0.5l-0.3-0.4
			c-0.2-0.2-0.4-0.4-0.5-0.6c-1.2-1.1-2.5-1.9-4.4-2.4l-1.2,0l-1.6,0.4l-1,0.6l-1.4,1.5l-0.4,0.9v1.3l0.4,0.9
			c0.2,0.2,0.4,0.5,0.6,0.7l0.2,0.3c0.4,0.5,0.9,1.1,1.4,1.6C1829.9,468.1,1833.1,468,1834.7,467.7z"/>
		<path class="st16" d="M1893.7,376.8c1.4-1.3,1.9-3.6-0.3-5.6l-0.8-0.7l-0.3-0.2l-0.6-0.3l-0.4-0.2l-1.2-0.4l-0.5-0.1l-0.7-0.1
			l-0.5,0c-2.1,0.3-3.8,1.3-4.5,2.9c-0.7,1.6-0.3,3.3,1.1,4.7c1.2,1.1,2.9,1.7,4.7,1.7C1891.5,378.3,1893,377.7,1893.7,376.8z"/>
		<path class="st16" d="M1747.3,585.2l0.3-1.2l-0.1-0.9l-0.8-1.6l-0.7-0.7l-1.2-0.7l-1-0.3c-0.6,0-0.9-0.1-1-0.1l-0.5-0.2
			c-0.3-0.1-0.5-0.2-0.8-0.2c-1.7-0.5-3.4-0.5-5.3-0.2l-1,0.5l-1.1,1l-0.5,0.9l-0.2,1.9l0.3,0.9l0.9,1.1l0.9,0.6
			c0.3,0.1,0.6,0.2,1,0.4l0.3,0.1c0.7,0.3,1.5,0.6,2.3,0.8c4.1,1.1,6.6-0.4,7.8-1.3L1747.3,585.2z"/>
		<path class="st16" d="M1888.4,354.6l-1.3-0.1l-0.9,0.1l-1.8,0.6l-0.7,0.4l-0.8,0.7l-0.4,0.6c-0.9,2.6,0.7,5.1,3.8,5.9
			c1.6,0.4,3.6,0.3,5.1-0.4c1.5-0.7,2.6-1.8,3.1-3.1l0.1-0.6l-0.1-0.9l-0.2-0.6l-0.8-1.2l-0.5-0.4l-0.8-0.5l-0.6-0.3
			C1890.2,354.5,1889.1,354.6,1888.4,354.6z"/>
		<path class="st16" d="M1786.2,270c-0.7-1.1-2-2-3.5-2.4c-2.7-0.7-5.6,0.3-6.8,2.4l-0.1,0.3l-0.1,0.5l0,0.4l0,0.9l0.1,0.3l0.2,0.5
			l0.2,0.3c0.7,1.1,1.9,1.9,3.3,2.3c2,0.5,4.2,0.1,6-1.1l0.4-0.4l0.5-0.6l0.2-0.5l0.3-1.2l0-0.5l-0.1-0.7L1786.2,270z"/>
		<path class="st16" d="M1735.3,486.8c1.3-0.8,2.2-2,2.2-3.1c0.3-1.7-0.7-3.8-3.9-4.7l-1.1-0.3l-0.5-0.1l-0.7,0l-0.5,0l-1.2,0.2
			l-0.5,0.1l-0.6,0.3l-0.4,0.2c-1.6,1.1-2.3,2.7-1.9,4.3c0.4,1.6,2,3,4,3.5C1732,487.8,1733.8,487.6,1735.3,486.8z"/>
		<path class="st16" d="M1813.6,502.1l0.9,0.2c2.3-0.6,3.6-1.7,3.9-3.3c0.3-1.5-0.5-2.9-2.1-3.8l-0.7-0.3l-1.1-0.2l-0.8,0l-0.8,0.1
			l-0.4-0.1l-0.9-0.1l-2,0.1l-0.9,0.2l-1.1,0.5l-0.7,0.5c-1.8,2.2-1,4.7,2,6.3l1.4-0.2l0.8,0.5l2.3-0.2L1813.6,502.1z"/>
		<path class="st16" d="M1761.6,409.5l1.5-0.5l0.6-0.3l0.7-0.6l0.4-0.5c0.9-1.7,0.5-3.1,0-4c-0.5-0.8-1.5-1.9-3.6-2.5l-0.5-0.1
			l-0.7,0l-1.1,0.1l-0.7,0.2l-1.4,0.6l-0.5,0.4l-0.6,0.6l-0.3,0.5l-0.5,1.2l-0.1,0.6l0.1,0.9l0.2,0.6l0.8,1.2l0.5,0.5l0.8,0.6
			l0.7,0.3l1.5,0.4l0.7,0.1l1,0L1761.6,409.5z"/>
		<path class="st16" d="M1907.1,478.4l-1.1-0.1l-0.8,0.1l-1.6,0.4l-0.7,0.3l-0.8,0.6l-0.5,0.5c-0.3,0.6-1.4,2.3-0.4,4.1l0.2,0.3
			l0.3,0.4l0.3,0.2l0.9,0.7l0.3,0.2l0.5,0.2l0.4,0.1c2.5,0.7,5.4-0.4,6.4-2.5c0.9-1.8,0.4-4.2-2.9-5.5L1907.1,478.4z"/>
		<path class="st16" d="M1913,526.9l1.5,0.4l0.7,0.1l1,0l0.7-0.1l1.5-0.5l0.6-0.3l0.7-0.6l0.4-0.5c0.8-1.5,0.4-2.8,0-3.6
			c-0.4-0.7-1.3-1.8-3.4-2.4c-0.4-0.1-0.8-0.2-1.3-0.2l-0.7,0l-0.9,0.2l-0.6,0.2l-1.3,0.7l-0.5,0.4l-0.6,0.6l-0.3,0.5l-0.3,0.8
			l-0.1,0.6l0.1,0.9l0.2,0.6l0.8,1.2l0.5,0.5l0.8,0.6L1913,526.9z"/>
		<path class="st16" d="M1902.9,624.8l2.7-0.7l1.2-2l-0.5-1.2l-0.4-0.5l-0.7-0.6l-0.3,0.2l0.2-0.3c-0.4-0.3-1.2-1-2.7-1.4
			c-0.4-0.1-0.8-0.2-1.2-0.2l-0.6,0l-0.9,0.1l-0.6,0.2l-1.3,0.6l-0.7,2.1l1.4,2l1.8,0.4l0.2,0.4L1902.9,624.8z"/>
		<path class="st16" d="M1816.6,436.1l-0.5-0.7l-0.4-0.4c-1.7-1.1-3.4-1.6-5.3-1.4c-0.8,0.1-1.5,0.3-2.1,0.6l-0.6-0.2l-0.8-0.1
			l-2.1,0l-0.6,0.1c-0.4,0.1-1.4,0.3-2.4,1l-0.5,0.5l-0.5,0.8l-0.2,0.6l0,1.6l0.1,0.4c0.2,0.8,0.7,1.5,1.3,2l0.6,0.4l1,0.4l0.8,0.1
			l2,0l0.5-0.1c0.1,0,0.2,0,0.3-0.1l0.1,0l0.6,0.3l1.5,0.6l0.7,0.1l1.1,0l0.7-0.1c1.5-0.4,2.8-1.2,3.8-2.4c0.2-0.3,0.5-0.6,0.7-0.9
			l0.2-0.5l0.1-0.7l0-0.5l-0.3-1.2L1816.6,436.1z"/>
		<path class="st16" d="M1922.1,672.2l-1.1-0.2l-2.2,0.2l-1,0.3l-1.2,0.7l-0.6,0.7c-0.2,0.5-0.4,0.7-0.4,0.7l-0.4,0.4
			c-0.2,0.2-0.4,0.4-0.5,0.6c-1,1.2-1.6,2.5-1.7,4l0.3,0.9l0.9,1.1l0.9,0.6l2.2,0.7l1.2,0.1l1.6-0.3l1-0.5c0.2-0.2,0.4-0.4,0.7-0.7
			l0.3-0.2c0.5-0.5,1.1-1,1.6-1.5c2.5-2.8,1.5-5.2,0.6-6.4l-0.8-0.6L1922.1,672.2z"/>
		<path class="st16" d="M1682.6,356.2l0.2,0.5l0.5,0.6l0.4,0.4c1.3,0.8,2.7,1.2,4.3,1c1.5-0.2,2.8-0.9,3.8-1.9
			c0.2-0.3,0.4-0.6,0.7-0.9l0.2-0.6l0.1-0.8l-0.1-0.6l-0.5-1.3l-0.3-0.5l-0.6-0.6l-0.7-0.4c-3.8-2-6.3-0.2-7,0.4l-0.4,0.5l-0.4,0.7
			l-0.2,0.5l0,0.1l-0.2,0.6l-0.1,0.8l0,0.6L1682.6,356.2z"/>
		<path class="st16" d="M1691.3,494.9l-0.5,0.4c-0.8,0.9-1,1.7-1.2,2.2l-0.5,0.9l-0.1,0.7l0.1,1.5l0.3,0.7l0.6,0.9l0.6,0.5
			c2.8,1.4,6.3,0.9,8.1-1.2c1-1.1,1.4-2.6,1-4.1c-0.4-1.4-1.4-2.5-2.8-3.3l-0.7-0.2l-1.1-0.1l-0.8,0l-1.7,0.3l-0.7,0.2L1691.3,494.9
			z"/>
		<path class="st16" d="M1912.4,438.3l0.3,0.5l0.6,0.6l0.5,0.4l1.3,0.7l0.7,0.2l1,0.2l0.8,0l1.7-0.2l0.7-0.2l0.9-0.5l0.5-0.4
			l0.6-0.7l0.3-0.5l0.2-0.8l0-0.6l-0.2-1.4l-0.1-0.3c-0.1-0.3-0.4-1.1-1.3-1.9l-0.7-0.4l-1.1-0.4l-0.8-0.1l-2.2,0.1l-0.7,0.1
			c-0.5,0.1-1.8,0.5-3,1.9c0,0-0.2,0.3-0.2,0.3l-0.2,0.6l-0.1,0.9l0,0.6L1912.4,438.3z"/>
		<path class="st16" d="M1563.8,553.4l-0.6-0.5l-0.5-0.3l-1.3-0.6l-0.6-0.2l-0.9-0.1l-0.6,0c-1.6,0.2-3,1-3.9,2
			c-1.6,1.9-1.3,4.4,0.9,6l0.4,0.2l0.6,0.2l0.4,0.1l1,0.2l0.4,0.1l0.6,0l0.4,0c1.6-0.2,2.8-0.9,3.7-1.9c1.2-1.4,1.4-3.2,0.4-4.9
			L1563.8,553.4z"/>
		<path class="st16" d="M1754.2,298l0.9,0.4l0.7,0.2l1.7,0.2l0.6,0l0.8-0.1l0.5-0.1c0.8-0.2,2.6-0.6,3.8-1.9
			c1.3-1.5,1.2-3.3-0.1-4.9l-0.6-0.5l-1.1-0.5l-0.8-0.2l-1.9-0.1l-0.6,0l-0.8,0.2l0.1,0.3l-0.7-0.2c-0.8,0.2-2.2,0.6-3.2,1.8
			c-1,1.1-1.5,3,0.2,4.9L1754.2,298z"/>
		<path class="st16" d="M1810.5,381c-1,1.2-1.3,2.6-0.7,3.8l0.2,0.3l0.4,0.4l0.3,0.3l1,0.7l0.8,0.4l1.3,0.2l0.9,0l0.8-0.2
			c1.8-0.1,3.3-0.7,4.2-1.9c0.3-0.3,0.5-0.7,0.7-1.1l0.1-0.4l0.1-0.6l0-0.4l-0.1-0.9l-0.1-0.3l-0.2-0.5l-0.2-0.3
			c-1-1.2-2.6-1.9-4.3-1.9C1813.3,378.7,1811.4,379.9,1810.5,381z"/>
		<path class="st16" d="M1802,657.6c1.1-1.2,1.3-2.7,0.8-4.1c-0.5-1.2-1.7-2.2-3-2.6c-2-0.8-4.8-0.5-6.7,1.7l-0.6,0.8l-0.2,0.3
			l-0.2,0.5l-0.1,0.4l-0.1,1l0,0.4l0.1,0.6l0.1,0.4c0.9,1.6,2.6,2.6,4.6,2.7C1798.7,659.8,1800.7,659,1802,657.6z"/>
		<path class="st16" d="M1841.4,593.2c-1.7-0.6-3.5-0.4-5.1,0.5l-0.5,0.5l-0.6,0.8l-0.2,0.6l-0.1,0.6l-0.3,0.2l-0.4,0.6l-0.5,1.5
			l0,0.7l0.3,1l0.4,0.6c2.1,2,5.3,2.1,8.1,0.3l0.2-1.1l0.8-0.5l0.4-1.8l-0.2-0.2l0.5-0.6C1844.1,595.2,1843.2,593.9,1841.4,593.2z"
			/>
		<path class="st16" d="M1853.4,263.6l-0.7,0.7l-0.2,0.3c-1.9,3.3-0.1,5.5,2.2,6.6l0.6,0.2l1,0.1l0.7,0l1.5-0.2l0.6-0.2l0.8-0.4
			l0.5-0.4l0.2-0.2c2.2-2.5,0.7-4.8,0.2-5.7l-0.7-0.6l-1.3-0.6l-1-0.2l-2.2,0l-1,0.3L1853.4,263.6z"/>
		<path class="st16" d="M1704.3,420l-0.5-0.7l-0.5-0.4c-1.8-1.2-3.6-1.3-4.8-1.2c-1.1,0.1-2.7,0.6-4,2.1l-0.3,0.3l-0.3,0.6l-0.2,0.8
			l0,0.6l0.4,1.3l0.3,0.5l0.6,0.7l0.5,0.4l1.3,0.7l0.7,0.2l1,0.2l0.8,0l1.7-0.2l0.7-0.2l0.9-0.5l0.5-0.4l0.9-1.1l0.3-0.5l0.2-0.8
			l0-0.6l-0.2-1.3L1704.3,420z"/>
		<path class="st16" d="M1717.9,609.2l-0.5-0.7l-0.5-0.4c-1.8-1.2-3.6-1.3-4.8-1.2c-1.1,0.1-2.7,0.6-4,2.1l-0.3,0.3l-0.3,0.6
			l-0.2,0.8l0,0.6l0.4,1.3l0.3,0.5l0.6,0.7l0.5,0.4l1.3,0.7l0.7,0.2l1.1,0.2l0.8,0l1.7-0.2l0.7-0.2l0.9-0.5l0.5-0.4l0.9-1l0.3-0.5
			l0.2-0.8l0-0.6l-0.2-1.3L1717.9,609.2z"/>
		<path class="st16" d="M1847.9,525.1l0.4-0.1l0.5-0.1l0.4-0.1l1.1-0.5l0.3-0.2l0.4-0.3l0.3-0.3c1.5-1.8,1.1-4.2-1.1-5.7
			c-1.8-1.2-4.9-1.5-7.4,0.6l-0.4,0.5l-0.4,0.8l-0.1,0.6l0.1,1.4l0.2,0.6l0.5,0.8l0.5,0.5C1843.7,524.1,1845.5,525.4,1847.9,525.1z"
			/>
		<path class="st16" d="M1763.7,539.7l0.6,0.1l0.9,0.1l0.6,0l1.4-0.3l0.6-0.2l0.8-0.4l0.5-0.4l0.1-0.1c1.5-1.8,1.5-3.9,0-5.7
			l-0.8-0.5l-1.3-0.5l-1-0.1l-2.2,0.2l-0.8,0.2l-1,0.5l-0.6,0.5c-0.5,0.6-1.7,2.1-0.9,4C1760.8,537.7,1761.6,539,1763.7,539.7z"/>
		<path class="st16" d="M1898.1,529.8l1.7-0.2l0.7-0.2l0.9-0.5l0.5-0.4l0.9-1l0.3-0.5l0.2-0.8l0-0.6l-0.2-1.3l-0.2-0.6l-0.5-0.7
			l-0.5-0.4c-1.6-1.1-3.2-1.1-4.3-1c-0.9,0.1-2.6,0.5-3.8,2c-0.2,0.3-0.5,0.6-0.6,0.9l-0.2,0.5l-0.1,0.8l0.1,0.5l0.4,1.2l0.3,0.5
			l0.6,0.6l0.5,0.4l0.9,0.5l0.7,0.2l1.1,0.2L1898.1,529.8z"/>
		<path class="st16" d="M1760.7,231.6l1.1,0.4l0.8,0.1l2.2-0.1l0.7-0.1c0.5-0.1,1.9-0.5,2.9-1.7l0.4-0.5l0.2-0.6l0.1-0.9l-0.1-0.6
			l-0.5-1.3l-0.3-0.5l-0.6-0.6l-0.7-0.4c-2.5-1.4-5.1-1.3-7,0.3l-0.4,0.6l-0.4,0.9l-0.1,0.7l0,0.3l-0.1,0.1c-0.4,1.5,0,2.8,1.2,3.8
			L1760.7,231.6z"/>
		<path class="st16" d="M1862.9,412.4l-0.1,0c-0.5,0.2-1.8,0.5-2.8,1.6c-1,1.2-1.5,3.2,0.6,5.1l0.5,0.3l0.9,0.4l0.6,0.2l1.1,0.1
			c-0.6,0.1-1.2,0.3-1.9,0.6c-0.8,0.4-2.1,1.3-2.3,3.2l0,0.5l0.2,0.7l0.2,0.5l0.8,1l0.4,0.4l0.8,0.5l0.6,0.3l0.2,0
			c2.5,0.7,5.1,0,6.8-1.7l0.4-0.8l0.1-0.5l0.6,0.1l1.5-0.1l1-0.3l1.7-1.1l0.6-0.7l0.5-1.1l0.1-0.8c-0.1-0.4,0-1.1,0-1.8
			c0.1-1.6,0.3-3.8-1.2-6l-0.7-0.6l-1.2-0.6l-1-0.2l-2.1,0l-1,0.2l-1,0.5l-0.6-0.2l-1.2-0.2l-0.9,0l-1.8,0.4L1862.9,412.4
			L1862.9,412.4z"/>
		<path class="st16" d="M1588.1,428.6c-1.4-1.7-3.1-2.6-5.1-2.7l-0.5,0l-0.6,0.1l-0.4,0.1l-1.2,0.5l-0.4,0.2l-0.5,0.4l-0.3,0.3
			c-1.1,1.3-1.2,3.1-0.1,4.5c1.2,1.6,3.6,2.4,6.1,2.1l0.9-0.3l1.1-0.7l0.6-0.6l0.8-1.5l0.2-0.8l-0.1-1.1L1588.1,428.6z"/>
		<path class="st16" d="M1857.8,490.6l0.7,0l1-0.2l0.7-0.3l1.3-0.8l0.5-0.4l0.5-0.7l0.2-0.4c0.1-0.2,0.2-0.4,0.4-0.6
			c0.6-0.9,1.3-2.1,1.3-3.8l-0.1-0.6l-0.3-0.8l-0.3-0.5c-1.9-2.2-4.3-2.5-5.5-2.5c-2,0-3.8,0.8-5.1,2.3c-1.6,1.8-2,4.3-0.9,6.1
			C1853.1,489.2,1855.2,490.3,1857.8,490.6z"/>
		<path class="st16" d="M1752.5,385.9c0.2,0.7,0.6,1.4,1.2,1.9l0.8,0.4l1.3,0.4l1,0.1l2.1-0.3l0.7-0.2l0.9-0.5l0.5-0.5
			c0.3-0.4,1-1.2,1.1-2.2c1-1.7,0.3-3.8-1.7-4.9c-1.2-0.7-2.8-1-4.3-0.8c-1.3,0.2-2.5,0.8-3.2,1.6l-0.3,1.2l0.1,0.6l-0.2,0.4
			l-0.2,0.8l0,0.6l0.2,1.3L1752.5,385.9z"/>
		<path class="st16" d="M1829.2,338.7l0.2,0.6l0.5,0.8l0.5,0.5c3.2,2,6.2,0.8,7.2,0.4l0.9-0.7l0.7-1.1l-0.2-0.1l0.7-0.8l-0.1-1.8
			l-0.3-0.8l-0.8-1l-1.2,0.6l0.9-0.9l-0.5,0.5l0.5-0.5l-0.7,0.7l-0.3,0.3l-0.1,0.1l0.9-1.3c-0.8-0.5-2.3-1.6-4.6-1.4
			c-1,0.1-2.5,0.5-3.7,1.9c0,0-0.3,0.5-0.3,0.5l-0.2,0.7l-0.1,0.5l0.1,0.6l-0.1,0.1L1829.2,338.7z"/>
		<path class="st16" d="M1801.9,747.8l1.1,0l1.5-0.4l0.9-0.5l1.4-1.4l0.4-0.8l0.2-1.2l-0.2-0.9c-0.3-0.5-0.3-0.7-0.4-0.7l-0.1-0.5
			c0-0.2-0.1-0.5-0.1-0.7c-0.4-1.4-1.1-2.6-2.4-3.8l-1-0.5l-1.6-0.3l-1.2,0.1l-2.1,0.8l-0.9,0.7l-0.8,1.2l-0.2,1
			c0.1,0.3,0.1,0.6,0.1,0.9l0,0.3c0.1,0.6,0.1,1.3,0.3,2C1797.5,746.4,1800.3,747.4,1801.9,747.8z"/>
		<path class="st16" d="M1868.1,1011.9l-0.2-0.4l-0.6-1l-0.3-0.4l-0.5-0.5l-0.4-0.3c-3.7-1.8-7.9,0.1-9.8,1.7l-0.5,1l-0.1,1.4l0.4,1
			l1.4,1.5l1,0.6l1.7,0.4l1,0c0.1,0,0.4,0,0.7-0.1c3.9-0.3,6-1.6,6.4-4l0-0.4L1868.1,1011.9z"/>
		<path class="st16" d="M1910.9,684.8l-0.2-0.4l-0.3-0.5l-0.3-0.3l-0.8-0.8l-0.4-0.3l-0.6-0.3l-0.4-0.2c-2-0.6-4.1-0.3-5.6,0.8
			c-1.6,1.1-2.2,2.8-1.8,4.5c0.4,1.4,1.5,2.6,3.1,3.3c1.5,0.5,3.2,0.5,4.4,0c2-0.6,3.8-2.4,3.1-5L1910.9,684.8z"/>
		<path class="st16" d="M1843.6,871.6l-0.3-0.4l-0.6-0.6l-0.5-0.3l-1.3-0.6l-2.6,0.5l-1.4,1.9l0.4,1.4l-0.4,0.3l0.2,2.2l2.1,1.5
			l2.7-0.1l1-0.9l0.4-0.5l0.4-0.8l-0.4-0.1l0.4,0c0.2-0.4,0.5-1.3,0.2-2.6C1843.9,872.2,1843.8,871.9,1843.6,871.6z"/>
		<path class="st16" d="M1885.5,855.7l-0.6-0.3l-0.9-0.3l-0.6-0.1l-1.5-0.1l-0.7,0.1l-0.9,0.2l-0.6,0.2c-1.8,1-2.8,2.3-3,3.8
			c-0.1,0.6,0,1.2,0.2,1.8l-0.4,0.4l-0.3,0.6l-0.5,1.6l0,0.5c0,0.3,0,1.2,0.7,2.1l0.5,0.5l0.9,0.5l0.7,0.3l1.9,0.4l0.5,0
			c1,0,1.9-0.2,2.8-0.6l0.6-0.4l0.7-0.7l0.3-0.6l0.5-1.6l0.1-0.4c0-0.1,0-0.2,0-0.3l0.1,0l0.5-0.4l1.1-1.1l0.3-0.5l0.3-0.8l0.1-0.6
			c-0.2-1.3-0.8-2.5-2-3.6C1886.1,856.1,1885.8,855.9,1885.5,855.7z"/>
		<path class="st16" d="M1755,933l-0.7-0.3l-1-0.2l-0.7-0.1l-1.7,0.1l-0.7,0.1l-0.9,0.3l-0.7,0.4c-3.3,2.5-1.7,4.9-1.2,5.6l0.5,0.4
			l0.8,0.5l0.6,0.2l0.1,0l0.7,0.3l0.9,0.3l0.7,0.1l1.4,0l0.6-0.1l0.8-0.2l0.5-0.2c1.3-0.8,2.1-1.9,2.3-3.1c0.1-1.2-0.4-2.4-1.5-3.4
			C1755.7,933.6,1755.4,933.3,1755,933z"/>
		<path class="st16" d="M1838,674.1c2.4-0.7,3.9-2.5,3.9-4.6l0-0.3l-0.2-0.6l-0.3-0.6l-0.2-0.3l-0.3-0.4l-0.2-0.2l-1.4-1.3l-0.6-0.4
			l-1-0.4l-0.7-0.2l-1.7-0.1l-0.7,0.1l-1,0.3l-0.6,0.3l-1.6,1.1l-0.2,0.2l-0.3,0.3l-0.2,0.2l-0.4,0.6l-0.1,0.3l-0.2,0.4l-0.1,0.3
			c-0.2,1.4,0.3,2.7,1.5,3.8C1833,674.2,1835.7,674.8,1838,674.1z"/>
		<path class="st16" d="M1910.5,774.5l-0.4-0.5l-0.7-0.6l-0.5-0.3l-0.9-0.4l-0.7-0.2l-1.7-0.2l-0.4,0c-0.4,0-1.5,0-2.6,0.6l-0.6,0.4
			l-0.7,0.8l-0.3,0.6l-0.4,1.7l0,0.6c0,0.4,0.2,1.5,1.5,2.8c0,0,0.3,0.3,0.3,0.3l0.6,0.3l1,0.3l0.7,0.1l1.6,0l0.7-0.1l0.9-0.3
			l0.6-0.3l1.2-0.9l0.5-0.5l0.5-0.8l0.2-0.6l0.1-1.4l-0.1-0.6L1910.5,774.5z"/>
		<path class="st16" d="M1700.2,864.1c-1.5-1.3-3.7-1.7-5.9-1.1l-0.7,0.4l-0.9,0.7l-0.4,0.6l-0.6,1.4l-0.1,0.5l0,0.6l0.4,0l-0.4,0.5
			c0.1,0.7,0.3,1.9,1.4,2.9c1.1,1,3.3,1.9,5.9,1l0.6-0.3l0.7-0.6l0.4-0.5l0.7-1.2l0.1-0.4l0.1-0.6l0-0.4
			C1701.6,866.8,1701.6,865.3,1700.2,864.1z"/>
		<path class="st16" d="M1817.6,848.3l0.4-0.1l0.6-0.2l0.4-0.2l1.1-0.6l0.6-0.6l0.6-1l0.2-0.7l0-0.7c0.3-1.4-0.1-2.7-1.2-3.8
			c-0.3-0.3-0.7-0.6-1.2-0.8l-0.4-0.2l-0.6-0.2l-0.5-0.1l-1.1-0.1l-0.4,0l-0.6,0.1l-0.4,0.1c-1.7,0.5-2.9,1.6-3.3,2.9
			c-0.6,1.9,0.4,3.7,1.5,4.7C1814.3,847.9,1816,848.4,1817.6,848.3z"/>
		<path class="st16" d="M1691.1,782.3l-0.3-0.5l-0.2-0.2c-2.5-2.3-5.7-1.7-6.9-1.5l-1,0.4l-1.1,0.9l-0.5,0.8l-0.5,1.7l0.1,0.9
			l0.5,1.1l0.6,0.7l0.3,0.2c3.5,2.2,6.7,1.4,8.4-0.2l0.4-0.5l0.4-0.7l0.1-0.5l0.1-1.3l-0.1-0.6L1691.1,782.3z"/>
		<path class="st16" d="M1841.5,941.4l-0.4-0.5l-1.1-1l-0.6-0.4l-0.9-0.4l-0.7-0.2l-1.6-0.1l-0.7,0l-1,0.2l-0.6,0.3
			c-1.9,1.1-2.4,2.5-2.5,3.4c-0.1,0.9,0.1,2.3,1.6,3.6l0.3,0.3l0.6,0.3l1,0.3l0.7,0.1l1.6,0l0.7-0.1l1-0.3l0.6-0.3l1.2-0.9l0.5-0.5
			l0.5-0.8l0.2-0.6l0.1-1.4l-0.1-0.6L1841.5,941.4z"/>
		<path class="st16" d="M1620.4,844.1l-0.7-0.3l-1.1-0.3l-0.8-0.1l-1.7,0.1l-0.7,0.1l-0.9,0.3l-0.7,0.4c-2.2,1.6-2.7,3.7-1.3,5.5
			l0.6,0.5l1,0.5l0.8,0.2l0.3,0l0.1,0.1c1.7,0.7,3.4,0.6,4.9,0l0.6-0.4l0.7-0.7l0.3-0.6l0.4-1.7l0-0.6c0-0.4-0.2-1.6-1.4-2.7
			L1620.4,844.1z"/>
		<path class="st16" d="M1921.9,727.2l-0.4-0.5c-0.6-0.6-2.1-1.9-4.6-1.7c-1.6,0.1-3,0.7-4,1.8l-0.3,0.5l-0.3,0.7l-0.1,0.5l0.1,1.2
			l0.1,0.5l0.4,0.7l0.3,0.4l0.7,0.6l0.5,0.3l0.9,0.4l0.7,0.2l1.6,0.2l0.4,0c0.4,0,1.4,0,2.5-0.4l0.7-0.5l0.8-0.9l0.3-0.8l0.1-1.7
			l-0.1-0.6L1921.9,727.2z"/>
		<path class="st16" d="M1735.2,692.6c-1.6-0.1-3.3,0.4-4.5,1.2l0,0c-2.1,1.5-2.9,4.5-0.4,6.7l1.4,0.5l2.1,0l0.7,0
			c1.7-0.1,3.3-0.8,4.6-2l0.4-0.7l0.3-1.1l0-0.1l0.1-0.1l0.1-1.6l-0.5-1.1C1738.4,693.3,1736.8,692.7,1735.2,692.6z"/>
		<path class="st16" d="M1853.9,712.9c-1.4-1.3-3.4-2-5.3-1.9c-1.7,0.1-3.2,0.8-3.9,1.6c-0.9,0.7-2.7,2.7-0.4,5.9l0.3,0.4l0.5,0.4
			l0.9,0.5l0.7,0.3l0.5,0.1l0,0.1c1.4,0.8,2.8,1.1,4.3,0.8c0.9-0.2,2.2-0.7,3.1-1.8C1856.3,717.5,1856.1,714.9,1853.9,712.9z"/>
		<path class="st16" d="M1880.3,810.1l0.2-1.2l-0.2-0.8l-0.9-1.6l-0.7-0.6l-1.2-0.6l-1-0.3c-0.5,0-1.3-0.2-2.1-0.4
			c-1.9-0.5-4.5-1.2-7.5-0.4l-0.9,0.4l-1,0.8l-0.5,0.7l-0.5,1.6l0,0.8l0.3,0.9l-0.4,0.4l-0.5,0.9l-0.2,0.7l0,1.5l0.1,0.4l0.1,0
			l-0.1,0.1c0.1,0.5,0.2,1.5,1.3,2.5c1.2,1.1,3.6,1.9,6.3,0.7l0.5-0.3l0.6-0.6l0.3-0.5l0.6-1.2l0.1-0.4l0-0.5c0.4,0,0.9,0,1.3,0
			c2.3-0.1,4.2-0.9,5.4-2.1L1880.3,810.1z"/>
		<path class="st16" d="M1824,1033.7l-0.6-0.6l-1.6-1l-0.9-0.3l-1.3-0.2l-1,0.1c-2.4,0.7-3.9,1.8-4.4,3.4l-0.1,0.4l0,0.5l0.1,0.4
			l0.3,1.1l0.2,0.4l0.3,0.5l0.3,0.3c1.3,1.2,3.4,1.6,5.5,1.1c2.2-0.6,3.8-2.2,4-4.2l-0.2-0.8L1824,1033.7z"/>
		<path class="st16" d="M1809.5,887.4l-0.4-0.5c-0.4-0.3-1.2-1-2.4-1.4c-1.9-1.2-4.5-1.1-6.3,0.2c-1.1,0.8-1.9,2-2,3.2
			c-0.1,1.1,0.4,2.1,1.2,2.9l1.3,0.5l0.7,0l0.4,0.3l0.9,0.4l0.7,0.2l1.6,0.2l0.4,0c0.9,0,1.8-0.2,2.6-0.5l0.7-0.5l0.8-0.9l0.3-0.8
			l0.1-1.7l-0.1-0.6L1809.5,887.4z"/>
		<path class="st16" d="M1770.6,815.4l-1.2-0.8l-0.1,0.1l-0.8-0.7l-2.2-0.3l-1,0.1l-1.3,0.4l0.5,1.1l-0.9-0.9l0.5,0.5l-0.5-0.5
			l0.7,0.7l0.3,0.4l0,0.1l-1.4-1c-0.8,0.5-2.5,1.4-2.8,3.2c-0.1,0.8,0,2,1.4,3.3c0,0,0.5,0.3,0.5,0.3l0.8,0.3l0.6,0.2l0.8,0.1
			l0.1,0.1l1.8,0.2l0.8,0l1.1-0.2l0.7-0.3c3.2-2,2.5-4.7,2.2-5.5L1770.6,815.4z"/>
	</g>
</g>
<linearGradient id="SVGID_3_" gradientUnits="userSpaceOnUse" x1="960" y1="18.2849" x2="960" y2="1681.0533">
	<stop  offset="0" style="stop-color:#6F366C"/>
	<stop  offset="1" style="stop-color:#EEE9A4"/>
</linearGradient>
<rect y="-4" style="fill:url(#SVGID_3_);" width="1920" height="1080"/>
<path class="st88" d="M0.5,968.4c0,0,65.3,0.5,106-44.4c40.7-44.9,56.9-112.3,56.9-112.3s7.3-56.4,88.8-57.4
	c81.5-1,142.1,85.9,159.8,10.7s-27.2-248.4,48-263s110,60,110,60l63.4,135.9c0,0,55.7,87.4,60.6,31.3C709,556,903,521,908,732
	c1.7,71,39.4,266,82.5,160.2C1115,587,1240,600,1294.4,877.5c36.3,185.2,256.9-46,273.6-98.2s48-191.1,120.1-181.7
	c72.1,9.4,92.9,74.1,92.9,107.6s72.6,263.2,138.9,263.2V1080H0.5V968.4z"/>
</svg>
