<?xml version="1.0" encoding="utf-8"?>
<!-- Generator: Adobe Illustrator 22.0.1, SVG Export Plug-In . SVG Version: 6.00 Build 0)  -->
<svg version="1.1" id="Laag_1" xmlns="http://www.w3.org/2000/svg" xmlns:xlink="http://www.w3.org/1999/xlink" x="0px" y="0px"
	 viewBox="0 0 1920 1080" style="enable-background:new 0 0 1920 1080;" xml:space="preserve">
<style type="text/css">
	.st0{fill:#101D2D;}
	.st1{fill:#132339;}
	.st2{fill:#12212E;}
	.st3{fill:#19293F;}
	.st4{fill:#C0BFD1;}
	.st5{fill:#524F64;}
	.st6{opacity:0.6;}
	.st7{fill:#262626;}
	.st8{fill:#1A1A1A;}
	.st9{opacity:0.7;}
	.st10{fill:none;stroke:#AD4182;stroke-width:3;stroke-miterlimit:10;}
	.st11{fill:#63D8F7;}
	.st12{opacity:0.3;fill:#3971D3;}
	.st13{fill:url(#SVGID_1_);}
	.st14{fill:#0D0E1F;}
	.st15{opacity:0.67;clip-path:url(#SVGID_3_);}
	.st16{fill:#171930;}
	.st17{opacity:0.4;fill:#191B30;}
	.st18{opacity:0.67;clip-path:url(#SVGID_5_);}
	.st19{fill:#401324;}
	.st20{fill:#4F1A30;}
	.st21{fill:#69C3E2;}
	.st22{fill:#C9F420;}
	.st23{fill:#78E53A;}
	.st24{fill:#110521;}
	.st25{fill:#589B34;}
	.st26{fill:#77E442;}
	.st27{fill:#BF2C41;}
	.st28{fill:#E94152;}
	.st29{fill:#FFFFFF;}
	.st30{fill:#F0B2EE;}
	.st31{fill:#E480B7;}
	.st32{fill:#AD4182;}
	.st33{fill:#D7B2E4;}
	.st34{fill:none;stroke:#091532;stroke-miterlimit:10;}
	.st35{fill:#FCF3FA;}
	.st36{fill:#E93F33;}
	.st37{fill:#FCDB33;}
	.st38{fill:#EB5733;}
	.st39{fill:#86201B;}
	.st40{fill:#EB5633;}
	.st41{fill:#C6B6CB;}
	.st42{fill:#F9E6FF;}
	.st43{fill:#241534;}
	.st44{fill:#F1A838;}
	.st45{fill:#88211C;}
	.st46{fill:#F6DDBA;}
	.st47{fill:url(#SVGID_6_);}
	.st48{fill:url(#SVGID_7_);}
	.st49{opacity:0.8;fill:#D7B2E4;}
	.st50{opacity:0.8;fill:#FCF3FA;}
	.st51{fill:url(#SVGID_8_);}
	.st52{fill:url(#SVGID_9_);}
	.st53{fill:url(#SVGID_10_);}
	.st54{fill:url(#SVGID_11_);}
	.st55{fill:url(#SVGID_12_);}
	.st56{fill:url(#SVGID_13_);}
	.st57{fill:url(#SVGID_14_);}
	.st58{fill:url(#SVGID_15_);}
	.st59{fill:url(#SVGID_16_);}
	.st60{fill:url(#SVGID_17_);}
	.st61{fill:url(#SVGID_18_);}
	.st62{fill:url(#SVGID_19_);}
	.st63{fill:url(#SVGID_20_);}
	.st64{fill:url(#SVGID_21_);}
	.st65{fill:url(#SVGID_22_);}
	.st66{fill:url(#SVGID_23_);}
	.st67{fill:url(#SVGID_24_);}
	.st68{fill:url(#SVGID_25_);}
	.st69{fill:url(#SVGID_26_);}
	.st70{fill:url(#SVGID_27_);}
	.st71{fill:url(#SVGID_28_);}
	.st72{fill:url(#SVGID_29_);}
	.st73{fill:url(#SVGID_30_);}
	.st74{fill:url(#SVGID_31_);}
	.st75{fill:url(#SVGID_32_);}
	.st76{fill:url(#SVGID_33_);}
	.st77{fill:url(#SVGID_34_);}
	.st78{fill:url(#SVGID_35_);}
	.st79{fill:url(#SVGID_36_);}
	.st80{fill:url(#SVGID_37_);}
	.st81{fill:url(#SVGID_38_);}
	.st82{fill:#E95633;}
	.st83{fill:#B83427;}
	.st84{opacity:0.3;fill:url(#SVGID_39_);}
	.st85{opacity:0.6;fill:#FFFFFF;}
	.st86{opacity:0.3;fill:url(#SVGID_40_);}
	.st87{fill:url(#SVGID_41_);}
	.st88{opacity:0.6;fill:#783A71;}
	.st89{fill:#BC714E;}
	.st90{fill:#895840;}
	.st91{fill:url(#SVGID_42_);}
	.st92{fill:url(#SVGID_43_);}
	.st93{fill:url(#SVGID_44_);}
	.st94{opacity:0.5;fill:#C79C73;}
	.st95{opacity:0.4;fill:#C79C73;}
	.st96{fill:url(#SVGID_45_);}
	.st97{fill:url(#SVGID_46_);}
	.st98{fill:#B6D6DB;}
	.st99{fill:url(#SVGID_47_);}
	.st100{fill:#87445F;}
	.st101{fill:#A14E6E;}
	.st102{fill:#551E35;}
	.st103{fill:#310E1D;}
	.st104{opacity:0.5;fill:#9A8D41;}
	.st105{fill:#06020C;}
	.st106{fill:#0E0623;}
	.st107{fill:#200C39;}
	.st108{fill:#7A468C;}
	.st109{fill:#BD96C4;}
	.st110{fill:#E8E8E9;}
	.st111{fill:#F29100;}
	.st112{fill:#D86504;}
	.st113{fill:#F7A800;}
	.st114{fill:#D3482D;}
	.st115{opacity:0.2;}
	.st116{fill:#2E3192;}
	.st117{opacity:0.3;fill:#2E3192;}
	.st118{opacity:0.3;fill-rule:evenodd;clip-rule:evenodd;fill:#FFFFFF;}
	.st119{fill:#068241;}
	.st120{opacity:0.3;}
	.st121{fill:#3971D3;}
	.st122{fill:#003A1A;}
	.st123{fill-rule:evenodd;clip-rule:evenodd;fill:#3971D3;}
	.st124{fill:url(#SVGID_48_);}
	.st125{fill:none;}
	.st126{fill:#FCB345;}
	.st127{fill:#FDDC95;}
	.st128{fill:#361857;}
	.st129{opacity:0.88;fill:url(#SVGID_49_);}
	.st130{opacity:0.3;fill:#F29100;}
	.st131{opacity:0.3;fill:#D86504;}
	.st132{fill:#636363;}
	.st133{fill:#E0851A;}
	.st134{fill:#E6E6E6;}
	.st135{fill:#FAAF40;}
	.st136{fill:#F6921E;}
	.st137{fill:#808080;}
	.st138{fill:#CCCCCC;}
	.st139{fill:#D3CFCD;}
	.st140{fill:#BCBAB8;}
	.st141{fill:#E7E2DF;}
	.st142{fill:#EDE8E6;}
	.st143{fill:#EF8300;}
	.st144{fill:#6A932E;}
	.st145{fill:#2A2B25;}
	.st146{fill:#E63435;}
	.st147{fill:#C68038;}
	.st148{fill:#F3C67C;}
	.st149{fill:#EB1D25;}
	.st150{fill:#D1E5F0;}
	.st151{fill:#4B510D;}
	.st152{fill:#6C7F17;}
	.st153{fill:#D9DC56;}
	.st154{opacity:0.1;}
	.st155{fill:#A33F37;}
	.st156{fill:#B74E49;}
	.st157{fill:url(#SVGID_50_);}
	.st158{fill:url(#SVGID_51_);}
	.st159{fill:url(#SVGID_52_);}
	.st160{fill:url(#SVGID_53_);}
	.st161{fill:url(#SVGID_54_);}
	.st162{opacity:0.5;fill:#A7DFFB;}
	.st163{opacity:0.3;fill:#FFFFFF;}
	.st164{opacity:0.8;fill:#FFFFFF;}
	.st165{fill:url(#SVGID_55_);}
	.st166{fill:url(#SVGID_56_);}
	.st167{fill:url(#SVGID_57_);}
	.st168{fill:url(#SVGID_58_);}
	.st169{fill:url(#SVGID_59_);}
	.st170{fill:#4B5063;}
	.st171{fill:#D0CDDE;}
	.st172{fill:#6F839C;}
	.st173{fill:#B0271D;}
	.st174{fill:#111317;}
	.st175{fill:#6D4C29;}
	.st176{fill:#5E4223;}
	.st177{fill:#362614;}
	.st178{fill:none;stroke:#B58D5A;stroke-miterlimit:10;}
	.st179{fill:#F2F2F4;}
	.st180{opacity:0.5;fill:#E2D7CC;}
	.st181{fill:url(#SVGID_60_);}
	.st182{fill:url(#SVGID_61_);}
	.st183{fill:url(#SVGID_62_);}
	.st184{fill:url(#SVGID_63_);}
	.st185{fill:url(#SVGID_64_);}
	.st186{fill:url(#SVGID_65_);}
	.st187{fill:url(#SVGID_66_);}
	.st188{fill:url(#SVGID_67_);}
	.st189{fill:url(#SVGID_68_);}
	.st190{fill:url(#SVGID_69_);}
	.st191{fill:url(#SVGID_70_);}
	.st192{fill:#573D7F;}
	.st193{fill:#3E3756;}
	.st194{fill:#8360BA;}
	.st195{fill:#7450A5;}
	.st196{fill:#9876CE;}
	.st197{fill:#63478E;}
	.st198{fill:#F45864;}
	.st199{fill:#CC4A5F;}
	.st200{fill:#E83D43;}
	.st201{fill:#E8B57E;}
	.st202{fill:#CEA272;}
	.st203{fill:#BC9665;}
	.st204{fill:#CC7323;}
	.st205{fill:#F08A25;}
	.st206{fill:#A8A8AA;}
	.st207{fill:#999999;}
	.st208{fill:#8B8B8C;}
	.st209{fill:#00D7F3;}
	.st210{fill:#03C9D8;}
	.st211{fill:#09B3B7;}
	.st212{fill:#3AAB51;}
	.st213{fill:#369145;}
	.st214{fill:#297536;}
	.st215{fill:#FBE12A;}
	.st216{fill:#F9B52B;}
	.st217{fill:#E09D27;}
	.st218{fill:#FFEE99;}
	.st219{fill:url(#SVGID_71_);}
	.st220{fill:url(#SVGID_72_);}
	.st221{fill:url(#SVGID_73_);}
	.st222{fill:url(#SVGID_74_);}
	.st223{fill:url(#SVGID_75_);}
	.st224{fill:url(#SVGID_76_);}
	.st225{fill:url(#SVGID_77_);}
	.st226{fill:url(#SVGID_78_);}
	.st227{fill:url(#SVGID_79_);}
	.st228{fill:url(#SVGID_80_);}
	.st229{fill:url(#SVGID_81_);}
	.st230{fill:#ECECEC;}
	.st231{fill:url(#SVGID_82_);}
	.st232{fill:url(#SVGID_83_);}
	.st233{fill:url(#SVGID_84_);}
	.st234{fill:url(#SVGID_85_);}
	.st235{fill:url(#SVGID_86_);}
	.st236{fill:url(#SVGID_87_);}
	.st237{fill:url(#SVGID_88_);}
	.st238{fill:url(#SVGID_89_);}
	.st239{fill:url(#SVGID_90_);}
	.st240{fill:url(#SVGID_91_);}
	.st241{fill:url(#SVGID_92_);}
	.st242{fill:url(#SVGID_93_);}
	.st243{fill:url(#SVGID_94_);}
	.st244{fill:url(#SVGID_95_);}
	.st245{fill:url(#SVGID_96_);}
	.st246{fill:url(#SVGID_97_);}
	.st247{fill:url(#SVGID_98_);}
	.st248{fill:url(#SVGID_99_);}
	.st249{fill:url(#SVGID_100_);}
	.st250{fill:url(#SVGID_101_);}
	.st251{fill:url(#SVGID_102_);}
	.st252{fill:url(#SVGID_103_);}
	.st253{fill:url(#SVGID_104_);}
	.st254{fill:url(#SVGID_105_);}
	.st255{fill:url(#SVGID_106_);}
	.st256{fill:url(#SVGID_107_);}
	.st257{fill:url(#SVGID_108_);}
	.st258{fill:url(#SVGID_109_);}
	.st259{fill:url(#SVGID_110_);}
	.st260{fill:url(#SVGID_111_);}
	.st261{fill:url(#SVGID_112_);}
	.st262{fill:url(#SVGID_113_);}
	.st263{fill:url(#SVGID_114_);}
	.st264{stroke:#AD4182;stroke-width:3;stroke-miterlimit:10;}
	.st265{opacity:0.8;}
	.st266{fill:none;stroke:#1A1A1A;stroke-width:4;stroke-linecap:round;stroke-linejoin:bevel;stroke-miterlimit:10;}
	.st267{fill:url(#SVGID_115_);}
	.st268{fill:url(#SVGID_116_);}
	.st269{fill:url(#SVGID_117_);}
	.st270{fill:url(#SVGID_118_);}
	.st271{fill:url(#SVGID_119_);}
	.st272{fill:url(#SVGID_120_);}
	.st273{fill:url(#SVGID_121_);}
	.st274{fill:url(#SVGID_122_);}
	.st275{fill:url(#SVGID_123_);}
	.st276{fill:url(#SVGID_124_);}
	.st277{fill:url(#SVGID_125_);}
	.st278{fill:url(#SVGID_126_);}
	.st279{fill:url(#SVGID_127_);}
	.st280{fill:url(#SVGID_128_);}
	.st281{fill:url(#SVGID_129_);}
	.st282{fill:url(#SVGID_130_);}
	.st283{fill:url(#SVGID_131_);}
	.st284{fill:url(#SVGID_132_);}
	.st285{fill:url(#SVGID_133_);}
	.st286{fill:url(#SVGID_134_);}
	.st287{fill:url(#SVGID_135_);}
	.st288{fill:url(#SVGID_136_);}
	.st289{fill:url(#SVGID_137_);}
	.st290{fill:url(#SVGID_138_);}
	.st291{fill:url(#SVGID_139_);}
	.st292{fill:url(#SVGID_140_);}
	.st293{fill:url(#SVGID_141_);}
	.st294{fill:url(#SVGID_142_);}
	.st295{fill:url(#SVGID_143_);}
	.st296{fill:url(#SVGID_144_);}
	.st297{fill:url(#SVGID_145_);}
	.st298{fill:url(#SVGID_146_);}
	.st299{fill:url(#SVGID_147_);}
	.st300{fill:url(#SVGID_148_);}
	.st301{fill:url(#SVGID_149_);}
	.st302{fill:url(#SVGID_150_);}
	.st303{fill:url(#SVGID_151_);}
	.st304{fill:url(#SVGID_152_);}
	.st305{fill:url(#SVGID_153_);}
	.st306{fill:url(#SVGID_154_);}
	.st307{fill:url(#SVGID_155_);}
	.st308{fill:url(#SVGID_156_);}
	.st309{fill:url(#SVGID_157_);}
	.st310{fill:url(#SVGID_158_);}
	.st311{fill:url(#SVGID_159_);}
	.st312{fill:url(#SVGID_160_);}
	.st313{fill:url(#SVGID_161_);}
	.st314{fill:url(#SVGID_162_);}
	.st315{fill:url(#SVGID_163_);}
	.st316{fill:url(#SVGID_164_);}
	.st317{fill:url(#SVGID_165_);}
	.st318{fill:url(#SVGID_166_);}
	.st319{fill:url(#SVGID_167_);}
	.st320{fill:url(#SVGID_168_);}
	.st321{fill:url(#SVGID_169_);}
	.st322{fill:url(#SVGID_170_);}
	.st323{fill:url(#SVGID_171_);}
	.st324{fill:url(#SVGID_172_);}
	.st325{fill:url(#SVGID_173_);}
	.st326{fill:url(#SVGID_174_);}
	.st327{fill:url(#SVGID_175_);}
	.st328{fill:url(#SVGID_176_);}
	.st329{fill:url(#SVGID_177_);}
	.st330{fill:url(#SVGID_178_);}
	.st331{fill:url(#SVGID_179_);}
	.st332{fill:url(#SVGID_180_);}
	.st333{fill:url(#SVGID_181_);}
	.st334{fill:url(#SVGID_182_);}
	.st335{fill:url(#SVGID_183_);}
	.st336{fill:url(#SVGID_184_);}
	.st337{fill:url(#SVGID_185_);}
	.st338{fill:url(#SVGID_186_);}
	.st339{fill:url(#SVGID_187_);}
	.st340{fill:url(#SVGID_188_);}
	.st341{fill:url(#SVGID_189_);}
	.st342{fill:url(#SVGID_190_);}
	.st343{fill:url(#SVGID_191_);}
	.st344{fill:url(#SVGID_192_);}
	.st345{fill:url(#SVGID_193_);}
	.st346{fill:url(#SVGID_194_);}
	.st347{fill:url(#SVGID_195_);}
	.st348{fill:url(#SVGID_196_);}
	.st349{fill:url(#SVGID_197_);}
	.st350{fill:url(#SVGID_198_);}
	.st351{fill:url(#SVGID_199_);}
	.st352{fill:url(#SVGID_200_);}
	.st353{fill:url(#SVGID_201_);}
	.st354{fill:url(#SVGID_202_);}
	.st355{fill:url(#SVGID_203_);}
	.st356{fill:url(#SVGID_204_);}
	.st357{fill:url(#SVGID_205_);}
	.st358{fill:url(#SVGID_206_);}
	.st359{fill:url(#SVGID_207_);}
	.st360{fill:url(#SVGID_208_);}
	.st361{fill:url(#SVGID_209_);}
	.st362{fill:url(#SVGID_210_);}
	.st363{fill:url(#SVGID_211_);}
	.st364{fill:url(#SVGID_212_);}
	.st365{fill:url(#SVGID_213_);}
	.st366{fill:url(#SVGID_214_);}
	.st367{fill:url(#SVGID_215_);}
	.st368{fill:url(#SVGID_216_);}
	.st369{fill:url(#SVGID_217_);}
	.st370{fill:url(#SVGID_218_);}
	.st371{fill:url(#SVGID_219_);}
	.st372{fill:url(#SVGID_220_);}
	.st373{fill:url(#SVGID_221_);}
	.st374{fill:url(#SVGID_222_);}
	.st375{fill:url(#SVGID_223_);}
	.st376{fill:url(#SVGID_224_);}
	.st377{fill:url(#SVGID_225_);}
	.st378{fill:url(#SVGID_226_);}
	.st379{fill:url(#SVGID_227_);}
	.st380{fill:url(#SVGID_228_);}
	.st381{fill:url(#SVGID_229_);}
	.st382{fill:url(#SVGID_230_);}
	.st383{fill:url(#SVGID_231_);}
	.st384{fill:url(#SVGID_232_);}
	.st385{fill:url(#SVGID_233_);}
	.st386{fill:url(#SVGID_234_);}
	.st387{fill:url(#SVGID_235_);}
	.st388{fill:url(#SVGID_236_);}
	.st389{fill:url(#SVGID_237_);}
	.st390{fill:url(#SVGID_238_);}
	.st391{fill:url(#SVGID_239_);}
	.st392{fill:url(#SVGID_240_);}
	.st393{fill:url(#SVGID_241_);}
	.st394{fill:url(#SVGID_242_);}
	.st395{fill:url(#SVGID_243_);}
	.st396{fill:url(#SVGID_244_);}
	.st397{fill:url(#SVGID_245_);}
	.st398{fill:url(#SVGID_246_);}
	.st399{fill:url(#SVGID_247_);}
	.st400{fill:url(#SVGID_248_);}
	.st401{fill:url(#SVGID_249_);}
	.st402{fill:url(#SVGID_250_);}
	.st403{fill:url(#SVGID_251_);}
	.st404{fill:url(#SVGID_252_);}
	.st405{fill:url(#SVGID_253_);}
	.st406{fill:#F8FFFF;}
	.st407{fill:#C59869;}
	.st408{fill:#C0C4BB;}
	.st409{opacity:0.8;fill:none;}
	.st410{fill:#717B1D;}
	.st411{fill:#26280E;}
	.st412{fill:#B3B3B3;stroke:#FFFFFF;stroke-width:4;stroke-miterlimit:10;}
	.st413{opacity:0.8;fill:#ED2814;}
	.st414{opacity:0.8;fill:#F2C646;}
	.st415{fill:#A66F43;}
	.st416{fill:#A9D8E3;}
	.st417{fill:#D4C3A8;}
	.st418{fill:#3C5F1B;}
	.st419{fill:#4DA3B8;}
	.st420{fill:#E66243;}
	.st421{fill:url(#SVGID_254_);}
	.st422{fill:url(#SVGID_255_);}
	.st423{fill:url(#SVGID_256_);}
	.st424{fill:url(#SVGID_257_);}
	.st425{fill:url(#SVGID_258_);}
	.st426{fill:url(#SVGID_259_);}
	.st427{fill:url(#SVGID_260_);}
	.st428{fill:url(#SVGID_261_);}
	.st429{fill:url(#SVGID_262_);}
	.st430{fill:url(#SVGID_263_);}
	.st431{fill:url(#SVGID_264_);}
	.st432{fill:url(#SVGID_265_);}
	.st433{fill:url(#SVGID_266_);}
	.st434{fill:url(#SVGID_267_);}
	.st435{fill:url(#SVGID_268_);}
	.st436{fill:url(#SVGID_269_);}
	.st437{fill:url(#SVGID_270_);}
	.st438{fill:url(#SVGID_271_);}
	.st439{fill:url(#SVGID_272_);}
	.st440{fill:url(#SVGID_273_);}
	.st441{fill:url(#SVGID_274_);}
	.st442{fill:url(#SVGID_275_);}
	.st443{fill:url(#SVGID_276_);}
	.st444{fill:url(#SVGID_277_);}
	.st445{fill:url(#SVGID_278_);}
	.st446{fill:url(#SVGID_279_);}
	.st447{fill:url(#SVGID_280_);}
	.st448{fill:url(#SVGID_281_);}
	.st449{fill:url(#SVGID_282_);}
	.st450{fill:url(#SVGID_283_);}
	.st451{fill:url(#SVGID_284_);}
	.st452{fill:url(#SVGID_285_);}
	.st453{fill:url(#SVGID_286_);}
	.st454{fill:url(#SVGID_287_);}
	.st455{fill:url(#SVGID_288_);}
	.st456{fill:url(#SVGID_289_);}
	.st457{fill:url(#SVGID_290_);}
	.st458{fill:url(#SVGID_291_);}
	.st459{fill:url(#SVGID_292_);}
	.st460{fill:url(#SVGID_293_);}
	.st461{fill:url(#SVGID_294_);}
	.st462{fill:url(#SVGID_295_);}
	.st463{fill:url(#SVGID_296_);}
	.st464{fill:url(#SVGID_297_);}
	.st465{fill:url(#SVGID_298_);}
	.st466{fill:url(#SVGID_299_);}
	.st467{fill:url(#SVGID_300_);}
	.st468{fill:url(#SVGID_301_);}
	.st469{fill:url(#SVGID_302_);}
	.st470{fill:url(#SVGID_303_);}
	.st471{fill:url(#SVGID_304_);}
	.st472{fill:url(#SVGID_305_);}
	.st473{fill:url(#SVGID_306_);}
	.st474{fill:url(#SVGID_307_);}
	.st475{fill:url(#SVGID_308_);}
	.st476{fill:url(#SVGID_309_);}
	.st477{fill:url(#SVGID_310_);}
	.st478{fill:url(#SVGID_311_);}
	.st479{fill:url(#SVGID_312_);}
	.st480{fill:url(#SVGID_313_);}
	.st481{fill:url(#SVGID_314_);}
	.st482{fill:url(#SVGID_315_);}
	.st483{fill:url(#SVGID_316_);}
	.st484{fill:url(#SVGID_317_);}
	.st485{fill:url(#SVGID_318_);}
	.st486{fill:url(#SVGID_319_);}
	.st487{fill:url(#SVGID_320_);}
	.st488{fill:url(#SVGID_321_);}
	.st489{fill:url(#SVGID_322_);}
	.st490{fill:url(#SVGID_323_);}
	.st491{fill:url(#SVGID_324_);}
	.st492{fill:url(#SVGID_325_);}
	.st493{fill:url(#SVGID_326_);}
	.st494{fill:url(#SVGID_327_);}
	.st495{fill:url(#SVGID_328_);}
	.st496{fill:url(#SVGID_329_);}
	.st497{fill:url(#SVGID_330_);}
	.st498{fill:url(#SVGID_331_);}
	.st499{fill:url(#SVGID_332_);}
	.st500{fill:url(#SVGID_333_);}
	.st501{fill:url(#SVGID_334_);}
	.st502{fill:url(#SVGID_335_);}
	.st503{fill:url(#SVGID_336_);}
	.st504{fill:url(#SVGID_337_);}
	.st505{fill:url(#SVGID_338_);}
	.st506{fill:url(#SVGID_339_);}
	.st507{fill:url(#SVGID_340_);}
	.st508{fill:url(#SVGID_341_);}
	.st509{opacity:0.67;clip-path:url(#SVGID_343_);}
	.st510{fill:url(#SVGID_344_);}
	.st511{fill:url(#SVGID_345_);}
	.st512{fill:url(#SVGID_346_);}
	.st513{fill:url(#SVGID_347_);}
	.st514{fill:url(#SVGID_348_);}
	.st515{fill:url(#SVGID_349_);}
	.st516{fill:url(#SVGID_350_);}
	.st517{fill:url(#SVGID_351_);}
	.st518{fill:url(#SVGID_352_);}
	.st519{fill:url(#SVGID_353_);}
	.st520{fill:url(#SVGID_354_);}
	.st521{opacity:0.88;fill:url(#SVGID_355_);}
	.st522{opacity:0.88;fill:url(#SVGID_356_);}
	.st523{opacity:0.88;fill:url(#SVGID_357_);}
	.st524{opacity:0.88;fill:url(#SVGID_358_);}
	.st525{opacity:0.88;fill:url(#SVGID_359_);}
	.st526{opacity:0.67;clip-path:url(#SVGID_361_);}
	.st527{fill:url(#SVGID_362_);}
	.st528{fill:url(#SVGID_363_);}
	.st529{fill:url(#SVGID_364_);}
	.st530{fill:url(#SVGID_365_);}
	.st531{fill:url(#SVGID_366_);}
	.st532{fill:url(#SVGID_367_);}
	.st533{fill:url(#SVGID_368_);}
	.st534{fill:url(#SVGID_369_);}
	.st535{fill:url(#SVGID_370_);}
	.st536{fill:url(#SVGID_371_);}
	.st537{fill:url(#SVGID_372_);}
	.st538{opacity:0.88;fill:url(#SVGID_373_);}
	.st539{opacity:0.88;fill:url(#SVGID_374_);}
	.st540{opacity:0.88;fill:url(#SVGID_375_);}
	.st541{opacity:0.88;fill:url(#SVGID_376_);}
	.st542{opacity:0.88;fill:url(#SVGID_377_);}
	.st543{opacity:0.67;clip-path:url(#SVGID_379_);}
	.st544{fill:url(#SVGID_380_);}
	.st545{fill:url(#SVGID_381_);}
	.st546{fill:url(#SVGID_382_);}
	.st547{fill:url(#SVGID_383_);}
	.st548{fill:url(#SVGID_384_);}
	.st549{fill:url(#SVGID_385_);}
	.st550{fill:url(#SVGID_386_);}
	.st551{fill:url(#SVGID_387_);}
	.st552{fill:url(#SVGID_388_);}
	.st553{fill:url(#SVGID_389_);}
	.st554{fill:url(#SVGID_390_);}
	.st555{opacity:0.88;fill:url(#SVGID_391_);}
	.st556{opacity:0.88;fill:url(#SVGID_392_);}
	.st557{opacity:0.88;fill:url(#SVGID_393_);}
	.st558{opacity:0.88;fill:url(#SVGID_394_);}
	.st559{opacity:0.88;fill:url(#SVGID_395_);}
</style>
<linearGradient id="SVGID_1_" gradientUnits="userSpaceOnUse" x1="961.5" y1="1075.0634" x2="961.5" y2="-4.0161">
	<stop  offset="0" style="stop-color:#4EAAC1"/>
	<stop  offset="1" style="stop-color:#1F87BE"/>
</linearGradient>
<rect x="-17" y="-2" class="st13" width="1957" height="1084"/>
<path class="st118" d="M540.9,205.8c0-5.1,0.9-9.8,3.4-13.8c3.9-6.2,12.7-8.9,19.6-6.4c3.6,1.3,5.7,0.8,8.4-2
	c16.5-17.5,36.9-23.8,60.1-18.2c24.2,5.8,39.5,21.8,46,45.7c1.7,6.2,1.7,12.9,2.6,19.8c2.8-0.4,5.7-0.7,8.6-1.1
	c18-2.4,35.5,10.7,38.8,28.6c2,10.8-0.6,20.6-7.1,28.8c-7.1,8.9-16.9,13.4-28.7,13.4c-36.4-0.1-72.9-0.1-109.3-0.2
	c-14.3,0-28.6,0.1-42.9-0.1c-22.6-0.2-42.9-18.9-45.2-41.4c-2.8-26.9,15-48.9,42.1-52.4C538.9,206.3,540.4,205.9,540.9,205.8z"/>
<path class="st118" d="M1609.6,216c0-3.1,0.5-5.9,2.1-8.3c2.4-3.7,7.6-5.4,11.8-3.8c2.2,0.8,3.4,0.5,5-1.2
	c9.9-10.5,22.3-14.3,36.2-11c14.6,3.5,23.8,13.1,27.7,27.6c1,3.8,1.1,7.8,1.6,11.9c1.7-0.2,3.4-0.4,5.2-0.7
	c10.8-1.5,21.4,6.4,23.4,17.2c1.2,6.5-0.3,12.4-4.3,17.3c-4.3,5.4-10.2,8.1-17.3,8c-22-0.1-43.9-0.1-65.9-0.1
	c-8.6,0-17.2,0-25.8-0.1c-13.6-0.1-25.8-11.4-27.2-24.9c-1.7-16.2,9-29.5,25.4-31.6C1608.4,216.3,1609.3,216.1,1609.6,216z"/>
<path class="st118" d="M171.6,524c0-3.1,0.5-5.9,2.1-8.3c2.4-3.7,7.6-5.4,11.8-3.8c2.2,0.8,3.4,0.5,5-1.2
	c9.9-10.5,22.3-14.3,36.2-11c14.6,3.5,23.8,13.1,27.7,27.6c1,3.8,1.1,7.8,1.6,11.9c1.7-0.2,3.4-0.4,5.2-0.7
	c10.8-1.5,21.4,6.4,23.4,17.2c1.2,6.5-0.3,12.4-4.3,17.3c-4.3,5.4-10.2,8.1-17.3,8c-22-0.1-43.9-0.1-65.9-0.1
	c-8.6,0-17.2,0-25.8-0.1c-13.6-0.1-25.8-11.4-27.2-24.9c-1.7-16.2,9-29.5,25.4-31.6C170.4,524.3,171.3,524.1,171.6,524z"/>
<path class="st118" d="M1063.9,554.8c0-5.1,0.9-9.8,3.4-13.8c3.9-6.2,12.7-8.9,19.6-6.4c3.6,1.3,5.7,0.8,8.4-2
	c16.5-17.5,36.9-23.8,60.1-18.2c24.2,5.8,39.5,21.8,46,45.7c1.7,6.2,1.7,12.9,2.6,19.8c2.8-0.4,5.7-0.7,8.6-1.1
	c18-2.4,35.5,10.7,38.8,28.6c2,10.8-0.6,20.6-7.1,28.8c-7.1,8.9-16.9,13.4-28.7,13.4c-36.4-0.1-72.9-0.1-109.3-0.2
	c-14.3,0-28.6,0.1-42.9-0.1c-22.6-0.2-42.9-18.9-45.2-41.4c-2.8-26.9,15-48.9,42.1-52.4C1061.9,555.3,1063.4,554.9,1063.9,554.8z"/>
<g class="st115">
	<polygon class="st116" points="295.2,906.7 295.2,1069.6 247.1,1069.6 	"/>
	<polygon class="st116" points="295.2,906.7 295.2,1069.6 343.4,1069.6 	"/>
	<path class="st116" d="M295.2,804.7v204c56.2,0,102-45.8,102-102S351.5,804.7,295.2,804.7z M387.6,904.1h-27.8
		c-0.6-15.9-7-30.3-17.1-41.2l19.7-19.7C377.5,859.2,387,880.6,387.6,904.1z M309.7,895.9l28.3-28.3c8.9,9.7,14.5,22.5,15.2,36.5
		h-40.1C312.6,901.1,311.4,898.3,309.7,895.9z M313.1,909.3h40.1c-0.6,14-6.3,26.8-15.2,36.5l-28.3-28.3
		C311.4,915.1,312.6,912.3,313.1,909.3z M362.4,970.2l-19.7-19.7c10.1-10.9,16.5-25.3,17.1-41.2h27.8
		C387,932.8,377.5,954.2,362.4,970.2z M297.8,971.3c15.9-0.6,30.3-7,41.2-17.1l19.7,19.7c-16,15.1-37.4,24.6-60.9,25.3V971.3z
		 M297.8,924.5c3-0.4,5.8-1.6,8.2-3.4l28.3,28.3c-9.7,8.9-22.5,14.5-36.5,15.2V924.5z M307.8,909.3c-0.3,1.6-1,3.1-1.9,4.5l-4.5-4.5
		H307.8z M301.5,904.1l4.5-4.5c0.9,1.3,1.5,2.9,1.9,4.5H301.5z M297.8,912.9l4.5,4.5c-1.3,0.9-2.9,1.5-4.5,1.9V912.9z M297.8,894.1
		c1.6,0.3,3.1,1,4.5,1.9l-4.5,4.5V894.1z M297.8,848.8c14,0.6,26.8,6.3,36.5,15.2L306,892.3c-2.4-1.8-5.2-3-8.2-3.4V848.8z
		 M297.8,814.3c23.5,0.6,44.9,10.1,60.9,25.3L339,859.3c-10.9-10.1-25.3-16.5-41.2-17.1V814.3z"/>
	<g>
		<g>
			<path class="st116" d="M372.7,820.6c6.9,0,12.5,6.9,12.5,15.5l0,0h-22.3v-15.5H372.7z"/>
			
				<rect x="362.9" y="836.1" transform="matrix(-1 -1.224647e-16 1.224647e-16 -1 750.9073 1675.3026)" class="st116" width="25.2" height="3.2"/>
			<path class="st116" d="M385.2,839.2v12.4c0,6.7-4.4,12.1-9.8,12.1h-12.5v-24.6H385.2z"/>
			<path class="st116" d="M380.2,841.3c1,0,1.9,1,1.9,2.3v7.1c0,1.3-0.8,2.3-1.9,2.3h-8c-1,0-1.9-0.9-1.9-1.9v-7.9
				c0-1,0.8-1.9,1.9-1.9H380.2z"/>
			<path class="st116" d="M362.9,841.3h4.1c0.9,0,1.6,0.7,1.6,1.6v8.4c0,0.9-0.7,1.6-1.6,1.6h-4.1V841.3z"/>
			
				<rect x="362.9" y="853.8" transform="matrix(-1 -1.224647e-16 1.224647e-16 -1 731.4443 1716.5005)" class="st116" width="5.7" height="8.9"/>
		</g>
		<g>
			<path class="st116" d="M353,820.6c-6.9,0-12.5,6.9-12.5,15.5l0,0h22.3v-15.5H353z"/>
			<rect x="337.6" y="836.1" class="st116" width="25.2" height="3.2"/>
			<path class="st116" d="M340.5,839.2v12.4c0,6.7,4.4,12.1,9.8,12.1h12.5v-24.6H340.5z"/>
			<path class="st116" d="M345.5,841.3c-1,0-1.9,1-1.9,2.3v7.1c0,1.3,0.8,2.3,1.9,2.3h8c1,0,1.9-0.9,1.9-1.9v-7.9
				c0-1-0.8-1.9-1.9-1.9H345.5z"/>
			<path class="st116" d="M362.9,841.3h-4.1c-0.9,0-1.6,0.7-1.6,1.6v8.4c0,0.9,0.7,1.6,1.6,1.6h4.1V841.3z"/>
			<rect x="357.1" y="853.8" class="st116" width="5.7" height="8.9"/>
		</g>
	</g>
	<g>
		<g>
			<path class="st116" d="M403.6,887.3c6.9,0,12.5,6.9,12.5,15.5v0h-22.3v-15.5H403.6z"/>
			
				<rect x="393.8" y="902.8" transform="matrix(-1 -1.224647e-16 1.224647e-16 -1 812.7962 1808.802)" class="st116" width="25.2" height="3.2"/>
			<path class="st116" d="M416.1,906v12.4c0,6.7-4.4,12.1-9.8,12.1h-12.5V906H416.1z"/>
			<path class="st116" d="M411.1,908c1,0,1.9,1,1.9,2.3v7.1c0,1.3-0.8,2.3-1.9,2.3h-8c-1,0-1.9-0.8-1.9-1.9v-7.9
				c0-1,0.8-1.9,1.9-1.9H411.1z"/>
			<path class="st116" d="M393.8,908h4.1c0.9,0,1.6,0.7,1.6,1.6v8.4c0,0.9-0.7,1.6-1.6,1.6h-4.1V908z"/>
			
				<rect x="393.8" y="920.5" transform="matrix(-1 -1.224647e-16 1.224647e-16 -1 793.3331 1849.9999)" class="st116" width="5.7" height="8.9"/>
		</g>
		<g>
			<path class="st116" d="M384,887.3c-6.9,0-12.5,6.9-12.5,15.5v0h22.3v-15.5H384z"/>
			<rect x="368.6" y="902.8" class="st116" width="25.2" height="3.2"/>
			<path class="st116" d="M371.5,906v12.4c0,6.7,4.4,12.1,9.8,12.1h12.5V906H371.5z"/>
			<path class="st116" d="M376.5,908c-1,0-1.9,1-1.9,2.3v7.1c0,1.3,0.8,2.3,1.9,2.3h8c1,0,1.9-0.8,1.9-1.9v-7.9c0-1-0.8-1.9-1.9-1.9
				H376.5z"/>
			<path class="st116" d="M393.8,908h-4.1c-0.9,0-1.6,0.7-1.6,1.6v8.4c0,0.9,0.7,1.6,1.6,1.6h4.1V908z"/>
			<rect x="388.1" y="920.5" class="st116" width="5.7" height="8.9"/>
		</g>
	</g>
	<g>
		<g>
			<path class="st116" d="M375.5,953.4c6.9,0,12.5,6.9,12.5,15.5v0h-22.3v-15.5H375.5z"/>
			
				<rect x="365.7" y="968.9" transform="matrix(-1 -1.224647e-16 1.224647e-16 -1 756.648 1941.0013)" class="st116" width="25.2" height="3.2"/>
			<path class="st116" d="M388,972.1v12.4c0,6.7-4.4,12.1-9.8,12.1h-12.5v-24.6H388z"/>
			<path class="st116" d="M383.1,974.1c1,0,1.9,1,1.9,2.3v7.1c0,1.3-0.8,2.3-1.9,2.3h-8c-1,0-1.9-0.9-1.9-1.9V976
				c0-1,0.9-1.9,1.9-1.9H383.1z"/>
			<path class="st116" d="M365.7,974.1h4.1c0.9,0,1.6,0.7,1.6,1.6v8.4c0,0.9-0.7,1.6-1.6,1.6h-4.1V974.1z"/>
			
				<rect x="365.7" y="986.6" transform="matrix(-1 -1.224647e-16 1.224647e-16 -1 737.1849 1982.1991)" class="st116" width="5.7" height="8.9"/>
		</g>
		<g>
			<path class="st116" d="M355.9,953.4c-6.9,0-12.5,6.9-12.5,15.5v0h22.3v-15.5H355.9z"/>
			<rect x="340.5" y="968.9" class="st116" width="25.2" height="3.2"/>
			<path class="st116" d="M343.4,972.1v12.4c0,6.7,4.4,12.1,9.8,12.1h12.5v-24.6H343.4z"/>
			<path class="st116" d="M348.4,974.1c-1,0-1.9,1-1.9,2.3v7.1c0,1.3,0.8,2.3,1.9,2.3h8c1,0,1.9-0.9,1.9-1.9V976
				c0-1-0.8-1.9-1.9-1.9H348.4z"/>
			<path class="st116" d="M365.7,974.1h-4.1c-0.9,0-1.6,0.7-1.6,1.6v8.4c0,0.9,0.7,1.6,1.6,1.6h4.1V974.1z"/>
			<rect x="360" y="986.6" class="st116" width="5.7" height="8.9"/>
		</g>
	</g>
	<path class="st116" d="M193.2,906.7c0,56.2,45.8,102,102,102v-204C239,804.7,193.2,850.5,193.2,906.7z M228.1,843.3l19.7,19.7
		c-10.1,10.9-16.5,25.3-17.1,41.2h-27.8C203.5,880.6,213,859.2,228.1,843.3z M277.4,904.1h-40.1c0.6-14,6.3-26.8,15.2-36.5
		l28.3,28.3C279.1,898.3,277.9,901.1,277.4,904.1z M280.8,917.5l-28.3,28.3c-8.9-9.7-14.5-22.5-15.2-36.5h40.1
		C277.9,912.3,279.1,915.1,280.8,917.5z M202.9,909.3h27.8c0.6,15.9,7,30.3,17.1,41.2l-19.7,19.7C213,954.2,203.5,932.8,202.9,909.3
		z M292.7,999.1c-23.5-0.6-44.9-10.1-60.9-25.3l19.7-19.7c10.9,10.1,25.3,16.5,41.2,17.1V999.1z M292.7,964.6
		c-14-0.6-26.8-6.3-36.5-15.2l28.3-28.3c2.4,1.8,5.2,3,8.2,3.4V964.6z M289,909.3l-4.5,4.5c-0.9-1.3-1.5-2.9-1.9-4.5H289z
		 M282.6,904.1c0.3-1.6,1-3.1,1.9-4.5l4.5,4.5H282.6z M292.7,919.3c-1.6-0.3-3.1-1-4.5-1.9l4.5-4.5V919.3z M292.7,900.5l-4.5-4.5
		c1.3-0.9,2.9-1.5,4.5-1.9V900.5z M292.7,888.9c-3,0.4-5.8,1.6-8.2,3.4L256.1,864c9.7-8.9,22.5-14.5,36.5-15.2V888.9z M292.7,842.2
		c-15.9,0.6-30.3,7-41.2,17.1l-19.7-19.7c16-15.1,37.4-24.6,60.9-25.3V842.2z"/>
	<g>
		<g>
			<path class="st116" d="M285.4,787.4c-6.9,0-12.5,6.9-12.5,15.5l0,0h22.3v-15.5H285.4z"/>
			<rect x="270" y="802.8" class="st116" width="25.2" height="3.2"/>
			<path class="st116" d="M272.9,806v12.4c0,6.7,4.4,12.1,9.8,12.1h12.5V806H272.9z"/>
			<path class="st116" d="M277.9,808.1c-1,0-1.9,1-1.9,2.3v7.1c0,1.3,0.8,2.3,1.9,2.3h8c1,0,1.9-0.9,1.9-1.9V810
				c0-1-0.8-1.9-1.9-1.9H277.9z"/>
			<path class="st116" d="M295.2,808.1h-4.1c-0.9,0-1.6,0.7-1.6,1.6v8.4c0,0.9,0.7,1.6,1.6,1.6h4.1V808.1z"/>
			<rect x="289.5" y="820.6" class="st116" width="5.7" height="8.9"/>
		</g>
		<g>
			<path class="st116" d="M305.1,787.4c6.9,0,12.5,6.9,12.5,15.5l0,0h-22.3v-15.5H305.1z"/>
			
				<rect x="295.2" y="802.8" transform="matrix(-1 -1.224647e-16 1.224647e-16 -1 615.6789 1608.8704)" class="st116" width="25.2" height="3.2"/>
			<path class="st116" d="M317.6,806v12.4c0,6.7-4.4,12.1-9.8,12.1h-12.5V806H317.6z"/>
			<path class="st116" d="M312.6,808.1c1,0,1.9,1,1.9,2.3v7.1c0,1.3-0.8,2.3-1.9,2.3h-8c-1,0-1.9-0.9-1.9-1.9V810
				c0-1,0.9-1.9,1.9-1.9H312.6z"/>
			<path class="st116" d="M295.2,808.1h4.1c0.9,0,1.6,0.7,1.6,1.6v8.4c0,0.9-0.7,1.6-1.6,1.6h-4.1V808.1z"/>
			
				<rect x="295.2" y="820.6" transform="matrix(-1 -1.224647e-16 1.224647e-16 -1 596.2158 1650.0682)" class="st116" width="5.7" height="8.9"/>
		</g>
	</g>
	<g>
		<g>
			<path class="st116" d="M217.8,820.6c-6.9,0-12.5,6.9-12.5,15.5l0,0h22.3v-15.5H217.8z"/>
			<rect x="202.4" y="836.1" class="st116" width="25.2" height="3.2"/>
			<path class="st116" d="M205.3,839.2v12.4c0,6.7,4.4,12.1,9.8,12.1h12.5v-24.6H205.3z"/>
			<path class="st116" d="M210.3,841.3c-1,0-1.9,1-1.9,2.3v7.1c0,1.3,0.8,2.3,1.9,2.3h8c1,0,1.9-0.9,1.9-1.9v-7.9
				c0-1-0.9-1.9-1.9-1.9H210.3z"/>
			<path class="st116" d="M227.6,841.3h-4.1c-0.9,0-1.6,0.7-1.6,1.6v8.4c0,0.9,0.7,1.6,1.6,1.6h4.1V841.3z"/>
			<rect x="221.9" y="853.8" class="st116" width="5.7" height="8.9"/>
		</g>
		<g>
			<path class="st116" d="M237.4,820.6c6.9,0,12.5,6.9,12.5,15.5l0,0h-22.3v-15.5H237.4z"/>
			
				<rect x="227.6" y="836.1" transform="matrix(-1 -1.224647e-16 1.224647e-16 -1 480.4504 1675.3026)" class="st116" width="25.2" height="3.2"/>
			<path class="st116" d="M249.9,839.2v12.4c0,6.7-4.4,12.1-9.8,12.1h-12.5v-24.6H249.9z"/>
			<path class="st116" d="M245,841.3c1,0,1.9,1,1.9,2.3v7.1c0,1.3-0.8,2.3-1.9,2.3h-8c-1,0-1.9-0.9-1.9-1.9v-7.9
				c0-1,0.9-1.9,1.9-1.9H245z"/>
			<path class="st116" d="M227.6,841.3h4.1c0.9,0,1.6,0.7,1.6,1.6v8.4c0,0.9-0.7,1.6-1.6,1.6h-4.1V841.3z"/>
			
				<rect x="227.6" y="853.8" transform="matrix(-1 -1.224647e-16 1.224647e-16 -1 460.9874 1716.5005)" class="st116" width="5.7" height="8.9"/>
		</g>
	</g>
	<g>
		<g>
			<path class="st116" d="M186.9,887.3c-6.9,0-12.5,6.9-12.5,15.5v0h22.3v-15.5H186.9z"/>
			<rect x="171.5" y="902.8" class="st116" width="25.2" height="3.2"/>
			<path class="st116" d="M174.4,906v12.4c0,6.7,4.4,12.1,9.8,12.1h12.5V906H174.4z"/>
			<path class="st116" d="M179.3,908c-1,0-1.9,1-1.9,2.3v7.1c0,1.3,0.8,2.3,1.9,2.3h8c1,0,1.9-0.8,1.9-1.9v-7.9c0-1-0.9-1.9-1.9-1.9
				H179.3z"/>
			<path class="st116" d="M196.7,908h-4.1c-0.9,0-1.6,0.7-1.6,1.6v8.4c0,0.9,0.7,1.6,1.6,1.6h4.1V908z"/>
			<rect x="190.9" y="920.5" class="st116" width="5.7" height="8.9"/>
		</g>
		<g>
			<path class="st116" d="M206.5,887.3c6.9,0,12.5,6.9,12.5,15.5v0h-22.3v-15.5H206.5z"/>
			
				<rect x="196.7" y="902.8" transform="matrix(-1 -1.224647e-16 1.224647e-16 -1 418.5615 1808.802)" class="st116" width="25.2" height="3.2"/>
			<path class="st116" d="M219,906v12.4c0,6.7-4.4,12.1-9.8,12.1h-12.5V906H219z"/>
			<path class="st116" d="M214,908c1,0,1.9,1,1.9,2.3v7.1c0,1.3-0.8,2.3-1.9,2.3h-8c-1,0-1.9-0.8-1.9-1.9v-7.9c0-1,0.9-1.9,1.9-1.9
				H214z"/>
			<path class="st116" d="M196.7,908h4.1c0.9,0,1.6,0.7,1.6,1.6v8.4c0,0.9-0.7,1.6-1.6,1.6h-4.1V908z"/>
			
				<rect x="196.7" y="920.5" transform="matrix(-1 -1.224647e-16 1.224647e-16 -1 399.0984 1849.9999)" class="st116" width="5.7" height="8.9"/>
		</g>
	</g>
	<g>
		<g>
			<path class="st116" d="M214.9,953.4c-6.9,0-12.5,6.9-12.5,15.5v0h22.3v-15.5H214.9z"/>
			<rect x="199.5" y="968.9" class="st116" width="25.2" height="3.2"/>
			<path class="st116" d="M202.4,972.1v12.4c0,6.7,4.4,12.1,9.8,12.1h12.5v-24.6H202.4z"/>
			<path class="st116" d="M207.4,974.1c-1,0-1.9,1-1.9,2.3v7.1c0,1.3,0.8,2.3,1.9,2.3h8c1,0,1.9-0.9,1.9-1.9V976
				c0-1-0.8-1.9-1.9-1.9H207.4z"/>
			<path class="st116" d="M224.8,974.1h-4.1c-0.9,0-1.6,0.7-1.6,1.6v8.4c0,0.9,0.7,1.6,1.6,1.6h4.1V974.1z"/>
			<rect x="219" y="986.6" class="st116" width="5.7" height="8.9"/>
		</g>
		<g>
			<path class="st116" d="M234.6,953.4c6.9,0,12.5,6.9,12.5,15.5v0h-22.3v-15.5H234.6z"/>
			
				<rect x="224.8" y="968.9" transform="matrix(-1 -1.224647e-16 1.224647e-16 -1 474.7097 1941.0013)" class="st116" width="25.2" height="3.2"/>
			<path class="st116" d="M247.1,972.1v12.4c0,6.7-4.4,12.1-9.8,12.1h-12.5v-24.6H247.1z"/>
			<path class="st116" d="M242.1,974.1c1,0,1.9,1,1.9,2.3v7.1c0,1.3-0.8,2.3-1.9,2.3h-8c-1,0-1.9-0.9-1.9-1.9V976
				c0-1,0.9-1.9,1.9-1.9H242.1z"/>
			<path class="st116" d="M224.8,974.1h4.1c0.9,0,1.6,0.7,1.6,1.6v8.4c0,0.9-0.7,1.6-1.6,1.6h-4.1V974.1z"/>
			
				<rect x="224.8" y="986.6" transform="matrix(-1 -1.224647e-16 1.224647e-16 -1 455.2466 1982.1991)" class="st116" width="5.7" height="8.9"/>
		</g>
	</g>
	<g>
		<g>
			<path class="st116" d="M285.4,987.1c-6.9,0-12.5,6.9-12.5,15.5l0,0h22.3v-15.5H285.4z"/>
			<rect x="270" y="1002.6" class="st116" width="25.2" height="3.2"/>
			<path class="st116" d="M272.9,1005.8v12.4c0,6.7,4.4,12.1,9.8,12.1h12.5v-24.6H272.9z"/>
			<path class="st116" d="M277.9,1007.8c-1,0-1.9,1-1.9,2.3v7.1c0,1.3,0.8,2.3,1.9,2.3h8c1,0,1.9-0.9,1.9-1.9v-7.9
				c0-1-0.8-1.9-1.9-1.9H277.9z"/>
			<path class="st116" d="M295.2,1007.8h-4.1c-0.9,0-1.6,0.7-1.6,1.6v8.4c0,0.9,0.7,1.6,1.6,1.6h4.1V1007.8z"/>
			<rect x="289.5" y="1020.3" class="st116" width="5.7" height="8.9"/>
		</g>
		<g>
			<path class="st116" d="M305.1,987.1c6.9,0,12.5,6.9,12.5,15.5l0,0h-22.3v-15.5H305.1z"/>
			
				<rect x="295.2" y="1002.6" transform="matrix(-1 -1.224647e-16 1.224647e-16 -1 615.6789 2008.3632)" class="st116" width="25.2" height="3.2"/>
			<path class="st116" d="M317.6,1005.8v12.4c0,6.7-4.4,12.1-9.8,12.1h-12.5v-24.6H317.6z"/>
			<path class="st116" d="M312.6,1007.8c1,0,1.9,1,1.9,2.3v7.1c0,1.3-0.8,2.3-1.9,2.3h-8c-1,0-1.9-0.9-1.9-1.9v-7.9
				c0-1,0.9-1.9,1.9-1.9H312.6z"/>
			<path class="st116" d="M295.2,1007.8h4.1c0.9,0,1.6,0.7,1.6,1.6v8.4c0,0.9-0.7,1.6-1.6,1.6h-4.1V1007.8z"/>
			
				<rect x="295.2" y="1020.3" transform="matrix(-1 -1.224647e-16 1.224647e-16 -1 596.2158 2049.561)" class="st116" width="5.7" height="8.9"/>
		</g>
	</g>
	<g>
		<rect x="258" y="1065.5" class="st116" width="37.2" height="16.6"/>
		<path class="st116" d="M255.6,1048.9h-44c-3.4,0-6.1,2.7-6.1,6.1v27.1h56.1V1055C261.7,1051.6,259,1048.9,255.6,1048.9z"/>
		
			<rect x="295.2" y="1065.5" transform="matrix(-1 -1.224647e-16 1.224647e-16 -1 627.6821 2147.5737)" class="st116" width="37.2" height="16.6"/>
		<path class="st116" d="M334.9,1048.9h44c3.4,0,6.1,2.7,6.1,6.1v27.1h-56.1V1055C328.8,1051.6,331.5,1048.9,334.9,1048.9z"/>
	</g>
</g>
<g class="st115">
	<g>
		<polygon class="st116" points="843.5,946 817.1,1081.7 958.7,1081.7 958.7,946 		"/>
		<polygon class="st116" points="958.7,847 837.6,929.7 958.7,929.7 		"/>
		<polygon class="st116" points="958.7,847 958.7,929.7 938.7,929.7 		"/>
		<polygon class="st116" points="958.7,847 869.6,929.7 885,929.7 900.5,929.7 		"/>
		<rect x="837.6" y="929.7" class="st116" width="121.1" height="16.3"/>
		<rect x="837.6" y="934.7" class="st116" width="121.1" height="6.3"/>
		<path class="st116" d="M867.8,946c0,8.2,6.6,14.8,14.8,14.8h0.7c8.2,0,14.8-6.6,14.8-14.8H867.8z"/>
		<path class="st116" d="M898.1,946c0,8.2,6.6,14.8,14.8,14.8h0.7c8.2,0,14.8-6.6,14.8-14.8H898.1z"/>
		<path class="st116" d="M928.4,946c0,8.2,6.6,14.8,14.8,14.8h0.7c8.2,0,14.8-6.6,14.8-14.8H928.4z"/>
		<polygon class="st116" points="958.7,997.1 925.1,1081.7 958.7,1081.7 		"/>
		
			<ellipse transform="matrix(0.1671 -0.9859 0.9859 0.1671 -266.5328 1679.053)" class="st116" cx="860.5" cy="997.3" rx="7.9" ry="7.9"/>
		<path class="st116" d="M883.2,1017c0,2.9-2.3,5.2-5.2,5.2c-2.9,0-5.2-2.3-5.2-5.2c0-2.9,2.3-5.2,5.2-5.2
			C880.9,1011.7,883.2,1014.1,883.2,1017z"/>
		<path class="st116" d="M893.4,994.7c0,2.9-2.3,5.2-5.2,5.2c-2.9,0-5.2-2.3-5.2-5.2c0-2.9,2.3-5.2,5.2-5.2
			C891.1,989.4,893.4,991.8,893.4,994.7z"/>
		
			<ellipse transform="matrix(0.1598 -0.9872 0.9872 0.1598 -218.8882 1740.7133)" class="st116" cx="913.1" cy="998.9" rx="6.2" ry="6.2"/>
		<circle class="st116" cx="906.6" cy="1022.3" r="8.4"/>
		<path class="st116" d="M883.8,1046.2c0,2.6-2.1,4.7-4.7,4.7c-2.6,0-4.7-2.1-4.7-4.7s2.1-4.7,4.7-4.7
			C881.7,1041.5,883.8,1043.6,883.8,1046.2z"/>
		
			<ellipse transform="matrix(0.2436 -0.9699 0.9699 0.2436 -352.2261 1607.3855)" class="st116" cx="854.4" cy="1029.5" rx="5.9" ry="5.9"/>
		<circle class="st116" cx="879.4" cy="973.5" r="5"/>
		
			<ellipse transform="matrix(0.758 -0.6522 0.6522 0.758 -417.4622 826.8886)" class="st116" cx="905.7" cy="976.1" rx="7.6" ry="7.6"/>
		<path class="st116" d="M937.8,983.1c0,2.6-2.1,4.7-4.7,4.7s-4.7-2.1-4.7-4.7s2.1-4.7,4.7-4.7S937.8,980.5,937.8,983.1z"/>
		<path class="st116" d="M933.6,1013.4c0,2-1.6,3.6-3.6,3.6c-2,0-3.6-1.6-3.6-3.6c0-2,1.6-3.6,3.6-3.6
			C932,1009.8,933.6,1011.4,933.6,1013.4z"/>
		
			<ellipse transform="matrix(0.2637 -0.9646 0.9646 0.2637 -349.321 1647.3865)" class="st116" cx="904.5" cy="1052.5" rx="6.3" ry="6.3"/>
		<circle class="st116" cx="922.4" cy="1046.8" r="7.4"/>
		<path class="st116" d="M899.5,1075.4c0,2-1.6,3.6-3.6,3.6c-2,0-3.6-1.6-3.6-3.6c0-2,1.6-3.6,3.6-3.6
			C897.9,1071.8,899.5,1073.4,899.5,1075.4z"/>
		<circle class="st116" cx="871.4" cy="1070.1" r="6.9"/>
		<path class="st116" d="M850.2,1054.9c0,2.2-1.8,4-4,4c-2.2,0-4-1.8-4-4s1.8-4,4-4C848.4,1050.9,850.2,1052.7,850.2,1054.9z"/>
		<path class="st116" d="M837.6,1070.2c0,2.8-2.2,5-5,5c-2.8,0-5-2.2-5-5c0-2.8,2.2-5,5-5C835.3,1065.2,837.6,1067.4,837.6,1070.2z"
			/>
		<circle class="st116" cx="850.6" cy="1069.6" r="4.4"/>
		<circle class="st116" cx="836.8" cy="1036.1" r="5.4"/>
		<circle class="st116" cx="844.1" cy="1007.5" r="6.5"/>
		<path class="st116" d="M857.5,984.3c0,1.9-1.5,3.4-3.4,3.4c-1.9,0-3.4-1.5-3.4-3.4c0-1.9,1.5-3.4,3.4-3.4
			C855.9,980.9,857.5,982.4,857.5,984.3z"/>
		<path class="st116" d="M865.9,972.7c0,2.3-1.9,4.2-4.2,4.2c-2.3,0-4.2-1.9-4.2-4.2c0-2.3,1.9-4.2,4.2-4.2
			C864,968.5,865.9,970.4,865.9,972.7z"/>
		<circle class="st116" cx="844.9" cy="961.9" r="2.8"/>
		<path class="st116" d="M868.4,956.3c0,3-2.5,5.5-5.5,5.5s-5.5-2.5-5.5-5.5c0-3,2.5-5.5,5.5-5.5S868.4,953.3,868.4,956.3z"/>
		<circle class="st116" cx="896.5" cy="962.1" r="3"/>
		<path class="st116" d="M932.2,962.7c0,2-1.6,3.6-3.6,3.6s-3.6-1.6-3.6-3.6c0-2,1.6-3.6,3.6-3.6S932.2,960.7,932.2,962.7z"/>
		<circle class="st116" cx="946.8" cy="973.5" r="5"/>
		<path class="st116" d="M947.9,996.9c0,1.7-1.4,3-3,3c-1.7,0-3-1.4-3-3c0-1.7,1.4-3,3-3C946.6,993.8,947.9,995.2,947.9,996.9z"/>
		<polygon class="st116" points="958.5,991.2 901.9,1081.7 925.1,1081.7 958.7,997.1 		"/>
		<path class="st116" d="M837.6,946c0,8.2,6.6,14.8,14.8,14.8h0.7c8.2,0,14.8-6.6,14.8-14.8H837.6z"/>
	</g>
	<g>
		<polygon class="st116" points="1073.8,946 1100.3,1081.7 958.7,1081.7 958.7,946 		"/>
		<polygon class="st116" points="958.7,847 1079.8,929.7 958.7,929.7 		"/>
		<polygon class="st116" points="958.7,847 958.7,929.7 978.7,929.7 		"/>
		<polygon class="st116" points="958.7,847 1047.8,929.7 1032.3,929.7 1016.9,929.7 		"/>
		
			<rect x="958.7" y="929.7" transform="matrix(-1 -1.224647e-16 1.224647e-16 -1 2038.5068 1875.7228)" class="st116" width="121.1" height="16.3"/>
		
			<rect x="958.7" y="934.7" transform="matrix(-1 -1.224647e-16 1.224647e-16 -1 2038.5068 1875.7228)" class="st116" width="121.1" height="6.3"/>
		<path class="st116" d="M1049.5,946c0,8.2-6.6,14.8-14.8,14.8h-0.7c-8.2,0-14.8-6.6-14.8-14.8H1049.5z"/>
		<path class="st116" d="M1019.3,946c0,8.2-6.6,14.8-14.8,14.8h-0.7c-8.2,0-14.8-6.6-14.8-14.8H1019.3z"/>
		<path class="st116" d="M989,946c0,8.2-6.6,14.8-14.8,14.8h-0.7c-8.2,0-14.8-6.6-14.8-14.8H989z"/>
		<polygon class="st116" points="958.7,997.1 992.3,1081.7 958.7,1081.7 		"/>
		
			<ellipse transform="matrix(0.9887 -0.1501 0.1501 0.9887 -137.6819 169.8738)" class="st116" cx="1056.8" cy="997.3" rx="7.9" ry="7.9"/>
		<path class="st116" d="M1034.2,1017c0,2.9,2.3,5.2,5.2,5.2c2.9,0,5.2-2.3,5.2-5.2c0-2.9-2.3-5.2-5.2-5.2
			C1036.5,1011.7,1034.2,1014.1,1034.2,1017z"/>
		<path class="st116" d="M1023.9,994.7c0,2.9,2.3,5.2,5.2,5.2c2.9,0,5.2-2.3,5.2-5.2c0-2.9-2.3-5.2-5.2-5.2
			C1026.3,989.4,1023.9,991.8,1023.9,994.7z"/>
		
			<ellipse transform="matrix(0.9872 -0.1598 0.1598 0.9872 -146.6946 173.2785)" class="st116" cx="1004.3" cy="998.9" rx="6.2" ry="6.2"/>
		<circle class="st116" cx="1010.8" cy="1022.3" r="8.4"/>
		<path class="st116" d="M1033.6,1046.2c0,2.6,2.1,4.7,4.7,4.7c2.6,0,4.7-2.1,4.7-4.7s-2.1-4.7-4.7-4.7
			C1035.7,1041.5,1033.6,1043.6,1033.6,1046.2z"/>
		
			<ellipse transform="matrix(0.9777 -0.2102 0.2102 0.9777 -192.6177 246.3723)" class="st116" cx="1063" cy="1029.5" rx="5.9" ry="5.9"/>
		<circle class="st116" cx="1038" cy="973.5" r="5"/>
		
			<ellipse transform="matrix(0.7742 -0.633 0.633 0.7742 -389.364 860.7748)" class="st116" cx="1011.7" cy="976.1" rx="7.6" ry="7.6"/>
		<path class="st116" d="M979.6,983.1c0,2.6,2.1,4.7,4.7,4.7c2.6,0,4.7-2.1,4.7-4.7s-2.1-4.7-4.7-4.7
			C981.7,978.4,979.6,980.5,979.6,983.1z"/>
		<path class="st116" d="M983.8,1013.4c0,2,1.6,3.6,3.6,3.6s3.6-1.6,3.6-3.6c0-2-1.6-3.6-3.6-3.6S983.8,1011.4,983.8,1013.4z"/>
		<path class="st116" d="M1006.6,1052.5c0,3.5,2.8,6.3,6.3,6.3c3.5,0,6.3-2.8,6.3-6.3s-2.8-6.3-6.3-6.3
			C1009.4,1046.2,1006.6,1049,1006.6,1052.5z"/>
		<circle class="st116" cx="995" cy="1046.8" r="7.4"/>
		<path class="st116" d="M1017.9,1075.4c0,2,1.6,3.6,3.6,3.6c2,0,3.6-1.6,3.6-3.6c0-2-1.6-3.6-3.6-3.6
			C1019.5,1071.8,1017.9,1073.4,1017.9,1075.4z"/>
		<circle class="st116" cx="1046" cy="1070.1" r="6.9"/>
		<path class="st116" d="M1067.2,1054.9c0,2.2,1.8,4,4,4c2.2,0,4-1.8,4-4s-1.8-4-4-4C1069,1050.9,1067.2,1052.7,1067.2,1054.9z"/>
		<path class="st116" d="M1079.8,1070.2c0,2.8,2.2,5,5,5s5-2.2,5-5c0-2.8-2.2-5-5-5S1079.8,1067.4,1079.8,1070.2z"/>
		<circle class="st116" cx="1066.8" cy="1069.6" r="4.4"/>
		<circle class="st116" cx="1080.6" cy="1036.1" r="5.4"/>
		<circle class="st116" cx="1073.3" cy="1007.5" r="6.5"/>
		<path class="st116" d="M1059.9,984.3c0,1.9,1.5,3.4,3.4,3.4c1.9,0,3.4-1.5,3.4-3.4c0-1.9-1.5-3.4-3.4-3.4
			C1061.5,980.9,1059.9,982.4,1059.9,984.3z"/>
		<path class="st116" d="M1051.5,972.7c0,2.3,1.9,4.2,4.2,4.2c2.3,0,4.2-1.9,4.2-4.2c0-2.3-1.9-4.2-4.2-4.2
			C1053.4,968.5,1051.5,970.4,1051.5,972.7z"/>
		<circle class="st116" cx="1072.5" cy="961.9" r="2.8"/>
		<circle class="st116" cx="1054.4" cy="956.3" r="5.5"/>
		<circle class="st116" cx="1020.9" cy="962.1" r="3"/>
		<path class="st116" d="M985.1,962.7c0,2,1.6,3.6,3.6,3.6c2,0,3.6-1.6,3.6-3.6c0-2-1.6-3.6-3.6-3.6
			C986.7,959.1,985.1,960.7,985.1,962.7z"/>
		<circle class="st116" cx="970.5" cy="973.5" r="5"/>
		<path class="st116" d="M969.4,996.9c0,1.7,1.4,3,3,3s3-1.4,3-3c0-1.7-1.4-3-3-3S969.4,995.2,969.4,996.9z"/>
		<polygon class="st116" points="958.9,991.2 1015.4,1081.7 992.3,1081.7 958.7,997.1 		"/>
		<path class="st116" d="M1079.8,946c0,8.2-6.6,14.8-14.8,14.8h-0.7c-8.2,0-14.8-6.6-14.8-14.8H1079.8z"/>
	</g>
</g>
<g class="st115">
	<polygon class="st116" points="1679.1,890.3 1647.4,1046.9 1637,1046.9 1637,889.8 	"/>
	<path class="st116" d="M1656.3,1046.9c7.8,0,14.2,6.3,14.2,14.2v0H1637v-14.2H1656.3z"/>
	<path class="st116" d="M1673.9,1061.1c5.6,0,10.2,4.6,10.2,10.2H1637v-10.2H1673.9z"/>
	
		<rect x="1637" y="1071.3" transform="matrix(-1 -1.224647e-16 1.224647e-16 -1 3329.9097 2152.2522)" class="st116" width="55.9" height="9.7"/>
	<g>
		
			<rect x="1746.9" y="882.7" transform="matrix(0.8828 -0.4698 0.4698 0.8828 -234.6485 930.7341)" class="st116" width="1.9" height="105.8"/>
		
			<rect x="1745.3" y="883.6" transform="matrix(0.8828 -0.4698 0.4698 0.8828 -235.2696 930.0457)" class="st116" width="1.9" height="105.8"/>
		<g>
			<path class="st116" d="M1774.5,978.8c1.3-0.7,3-0.2,3.7,1.1l4.5,8.4l-6.1,3.2l-5.8-10.8L1774.5,978.8z"/>
			<g>
				<path class="st116" d="M1781.5,986.2c0.4-0.2,0.9-0.1,1.1,0.3l1.6,2.9c0.2,0.4,0.1,0.9-0.3,1.1l-6.1,3.2l-2.3-4.3L1781.5,986.2z
					"/>
				<path class="st116" d="M1767.2,982.7c-1.3,0.7-1.9,2.4-1.1,3.7l4.5,8.4l6.1-3.2l-5.8-10.8L1767.2,982.7z"/>
				<path class="st116" d="M1769.4,992.6c-0.4,0.2-0.5,0.7-0.3,1.1l1.6,2.9c0.2,0.4,0.7,0.5,1.1,0.3l6.1-3.2l-2.3-4.3L1769.4,992.6z
					"/>
			</g>
		</g>
	</g>
	<g>
		
			<rect x="1786.5" y="876.8" transform="matrix(0.7783 -0.6278 0.6278 0.7783 -187.5009 1328.3611)" class="st116" width="1.9" height="105.8"/>
		
			<rect x="1785" y="878" transform="matrix(0.7783 -0.6278 0.6278 0.7783 -188.5867 1327.6914)" class="st116" width="1.9" height="105.8"/>
		<g>
			<path class="st116" d="M1821.8,967.1c1.2-1,2.9-0.8,3.9,0.4l6,7.4l-5.4,4.3l-7.7-9.5L1821.8,967.1z"/>
			<g>
				<path class="st116" d="M1830,973c0.3-0.3,0.8-0.2,1.1,0.1l2.1,2.6c0.3,0.3,0.2,0.8-0.1,1.1l-5.4,4.3l-3.1-3.8L1830,973z"/>
				<path class="st116" d="M1815.3,972.3c-1.2,1-1.4,2.7-0.4,3.9l6,7.4l5.4-4.3l-7.7-9.5L1815.3,972.3z"/>
				<path class="st116" d="M1819.3,981.7c-0.3,0.3-0.4,0.8-0.1,1.1l2.1,2.6c0.3,0.3,0.8,0.4,1.1,0.1l5.4-4.3l-3.1-3.8L1819.3,981.7z
					"/>
			</g>
		</g>
	</g>
	<g>
		
			<rect x="1669.1" y="889.3" transform="matrix(0.9872 -0.1598 0.1598 0.9872 -129.0865 278.9394)" class="st116" width="1.9" height="105.8"/>
		
			<rect x="1667.2" y="889.6" transform="matrix(0.9872 -0.1598 0.1598 0.9872 -129.1602 278.6424)" class="st116" width="1.9" height="105.8"/>
		<g>
			<path class="st116" d="M1681.3,991.7c1.5-0.2,2.9,0.8,3.2,2.3l1.5,9.4l-6.8,1.1l-2-12.1L1681.3,991.7z"/>
			<g>
				<path class="st116" d="M1685.6,1000.9c0.4-0.1,0.8,0.2,0.9,0.7l0.5,3.3c0.1,0.4-0.2,0.8-0.7,0.9l-6.8,1.1l-0.8-4.8
					L1685.6,1000.9z"/>
				<path class="st116" d="M1673.1,993c-1.5,0.2-2.5,1.7-2.3,3.2l1.5,9.4l6.8-1.1l-2-12.1L1673.1,993z"/>
				<path class="st116" d="M1672,1003.1c-0.4,0.1-0.7,0.5-0.7,0.9l0.5,3.3c0.1,0.4,0.5,0.7,0.9,0.7l6.8-1.1l-0.8-4.8L1672,1003.1z"
					/>
			</g>
		</g>
	</g>
	<g>
		
			<rect x="1711" y="887.5" transform="matrix(0.9498 -0.3128 0.3128 0.9498 -208.2257 582.5895)" class="st116" width="1.9" height="105.8"/>
		
			<rect x="1709.2" y="888.1" transform="matrix(0.9498 -0.3128 0.3128 0.9498 -208.5044 582.05)" class="st116" width="1.9" height="105.8"/>
		<g>
			<path class="st116" d="M1730.8,987.5c1.4-0.5,3,0.3,3.5,1.8l3,9l-6.6,2.2l-3.8-11.6L1730.8,987.5z"/>
			<g>
				<path class="st116" d="M1736.5,995.9c0.4-0.1,0.9,0.1,1,0.5l1,3.1c0.1,0.4-0.1,0.9-0.5,1l-6.5,2.2l-1.5-4.6L1736.5,995.9z"/>
				<path class="st116" d="M1722.9,990.1c-1.4,0.5-2.2,2-1.8,3.5l3,9l6.6-2.2l-3.8-11.6L1722.9,990.1z"/>
				<path class="st116" d="M1723.4,1000.2c-0.4,0.1-0.6,0.6-0.5,1l1,3.1c0.1,0.4,0.6,0.6,1,0.5l6.5-2.2l-1.5-4.6L1723.4,1000.2z"/>
			</g>
		</g>
	</g>
	<g>
		<polygon class="st116" points="1637,787 1762.8,872.9 1637,872.9 		"/>
		<polygon class="st116" points="1637,787 1637,872.9 1657.8,872.9 		"/>
		<polygon class="st116" points="1637,787 1729.5,872.9 1713.5,872.9 1697.4,872.9 		"/>
		
			<rect x="1637" y="872.9" transform="matrix(-1 -1.224647e-16 1.224647e-16 -1 3399.7507 1762.7094)" class="st116" width="125.8" height="16.9"/>
		
			<rect x="1637" y="878.1" transform="matrix(-1 -1.224647e-16 1.224647e-16 -1 3399.7507 1762.7094)" class="st116" width="125.8" height="6.5"/>
		<path class="st116" d="M1731.3,889.8c0,8.5-6.9,15.3-15.3,15.3h-0.8c-8.5,0-15.3-6.9-15.3-15.3H1731.3z"/>
		<path class="st116" d="M1699.9,889.8c0,8.5-6.9,15.3-15.3,15.3h-0.8c-8.5,0-15.3-6.9-15.3-15.3H1699.9z"/>
		<path class="st116" d="M1668.4,889.8c0,8.5-6.9,15.3-15.3,15.3h-0.8c-8.5,0-15.3-6.9-15.3-15.3H1668.4z"/>
		<path class="st116" d="M1762.8,889.8c0,8.5-6.9,15.3-15.3,15.3h-0.8c-8.5,0-15.3-6.9-15.3-15.3H1762.8z"/>
	</g>
	<polygon class="st116" points="1594.8,890.3 1626.6,1046.9 1637,1046.9 1637,889.8 	"/>
	<path class="st116" d="M1617.7,1046.9c-7.8,0-14.2,6.3-14.2,14.2v0h33.5v-14.2H1617.7z"/>
	<path class="st116" d="M1600,1061.1c-5.6,0-10.2,4.6-10.2,10.2h47.2v-10.2H1600z"/>
	<rect x="1581" y="1071.3" class="st116" width="55.9" height="9.7"/>
	<g>
		<rect x="1635.1" y="889.8" class="st116" width="1.9" height="105.8"/>
		<rect x="1637" y="889.8" class="st116" width="1.9" height="105.8"/>
		<g>
			<path class="st116" d="M1632.8,993.4c-1.5,0-2.8,1.2-2.8,2.8v9.5h6.9v-12.3H1632.8z"/>
			<g>
				<path class="st116" d="M1630.1,1003.1c-0.4,0-0.8,0.4-0.8,0.8v3.3c0,0.4,0.4,0.8,0.8,0.8h6.9v-4.9H1630.1z"/>
				<path class="st116" d="M1641.1,993.4c1.5,0,2.8,1.2,2.8,2.8v9.5h-6.9v-12.3H1641.1z"/>
				<path class="st116" d="M1643.9,1003.1c0.4,0,0.8,0.4,0.8,0.8v3.3c0,0.4-0.4,0.8-0.8,0.8h-6.9v-4.9H1643.9z"/>
			</g>
		</g>
	</g>
	<g>
		
			<rect x="1473.1" y="934.7" transform="matrix(0.4698 -0.8828 0.8828 0.4698 -16.7672 1843.3101)" class="st116" width="105.8" height="1.9"/>
		
			<rect x="1474.8" y="935.6" transform="matrix(0.4698 -0.8828 0.8828 0.4698 -16.6651 1845.28)" class="st116" width="105.8" height="1.9"/>
		<g>
			<path class="st116" d="M1499.5,978.8c-1.3-0.7-3-0.2-3.7,1.1l-4.5,8.4l6.1,3.2l5.8-10.8L1499.5,978.8z"/>
			<g>
				<path class="st116" d="M1492.5,986.2c-0.4-0.2-0.9-0.1-1.1,0.3l-1.6,2.9c-0.2,0.4-0.1,0.9,0.3,1.1l6.1,3.2l2.3-4.3L1492.5,986.2
					z"/>
				<path class="st116" d="M1506.8,982.7c1.3,0.7,1.9,2.4,1.1,3.7l-4.5,8.4l-6.1-3.2l5.8-10.8L1506.8,982.7z"/>
				<path class="st116" d="M1504.6,992.6c0.4,0.2,0.5,0.7,0.3,1.1l-1.6,2.9c-0.2,0.4-0.7,0.5-1.1,0.3l-6.1-3.2l2.3-4.3L1504.6,992.6
					z"/>
			</g>
		</g>
	</g>
	<g>
		
			<rect x="1433.5" y="928.8" transform="matrix(0.6278 -0.7783 0.7783 0.6278 -170.4446 1502.9694)" class="st116" width="105.8" height="1.9"/>
		
			<rect x="1435" y="930" transform="matrix(0.6278 -0.7783 0.7783 0.6278 -170.8259 1504.5778)" class="st116" width="105.8" height="1.9"/>
		<g>
			<path class="st116" d="M1452.2,967.1c-1.2-1-2.9-0.8-3.9,0.4l-6,7.4l5.4,4.3l7.7-9.5L1452.2,967.1z"/>
			<g>
				<path class="st116" d="M1443.9,973c-0.3-0.3-0.8-0.2-1.1,0.1l-2.1,2.6c-0.3,0.3-0.2,0.8,0.1,1.1l5.4,4.3l3.1-3.8L1443.9,973z"/>
				<path class="st116" d="M1458.6,972.3c1.2,1,1.4,2.7,0.4,3.9l-6,7.4l-5.4-4.3l7.7-9.5L1458.6,972.3z"/>
				<path class="st116" d="M1454.6,981.7c0.3,0.3,0.4,0.8,0.1,1.1l-2.1,2.6c-0.3,0.3-0.8,0.4-1.1,0.1l-5.4-4.3l3.1-3.8L1454.6,981.7
					z"/>
			</g>
		</g>
	</g>
	<g>
		
			<rect x="1551" y="941.3" transform="matrix(0.1598 -0.9872 0.9872 0.1598 417.5244 2374.9534)" class="st116" width="105.8" height="1.9"/>
		
			<rect x="1552.9" y="941.6" transform="matrix(0.1598 -0.9872 0.9872 0.1598 418.8104 2377.0769)" class="st116" width="105.8" height="1.9"/>
		<g>
			<path class="st116" d="M1592.7,991.7c-1.5-0.2-2.9,0.8-3.2,2.3l-1.5,9.4l6.8,1.1l2-12.1L1592.7,991.7z"/>
			<g>
				<path class="st116" d="M1588.4,1000.9c-0.4-0.1-0.8,0.2-0.9,0.7l-0.5,3.3c-0.1,0.4,0.2,0.8,0.7,0.9l6.8,1.1l0.8-4.8
					L1588.4,1000.9z"/>
				<path class="st116" d="M1600.8,993c1.5,0.2,2.5,1.7,2.3,3.2l-1.5,9.4l-6.8-1.1l2-12.1L1600.8,993z"/>
				<path class="st116" d="M1602,1003.1c0.4,0.1,0.7,0.5,0.7,0.9l-0.5,3.3c-0.1,0.4-0.5,0.7-0.9,0.7l-6.8-1.1l0.8-4.8L1602,1003.1z"
					/>
			</g>
		</g>
	</g>
	<g>
		
			<rect x="1509.1" y="939.4" transform="matrix(0.3128 -0.9498 0.9498 0.3128 180.2866 2129.9321)" class="st116" width="105.8" height="1.9"/>
		
			<rect x="1510.9" y="940" transform="matrix(0.3128 -0.9498 0.9498 0.3128 180.9684 2132.0728)" class="st116" width="105.8" height="1.9"/>
		<g>
			<path class="st116" d="M1543.2,987.5c-1.4-0.5-3,0.3-3.5,1.8l-3,9l6.6,2.2l3.8-11.6L1543.2,987.5z"/>
			<g>
				<path class="st116" d="M1537.5,995.9c-0.4-0.1-0.9,0.1-1,0.5l-1,3.1c-0.1,0.4,0.1,0.9,0.5,1l6.5,2.2l1.5-4.6L1537.5,995.9z"/>
				<path class="st116" d="M1551,990.1c1.4,0.5,2.2,2,1.8,3.5l-3,9l-6.6-2.2l3.8-11.6L1551,990.1z"/>
				<path class="st116" d="M1550.6,1000.2c0.4,0.1,0.6,0.6,0.5,1l-1,3.1c-0.1,0.4-0.6,0.6-1,0.5l-6.5-2.2l1.5-4.6L1550.6,1000.2z"/>
			</g>
		</g>
	</g>
	<g>
		<polygon class="st116" points="1637,787 1511.2,872.9 1637,872.9 		"/>
		<polygon class="st116" points="1637,787 1637,872.9 1616.2,872.9 		"/>
		<polygon class="st116" points="1637,787 1544.5,872.9 1560.5,872.9 1576.5,872.9 		"/>
		<rect x="1511.2" y="872.9" class="st116" width="125.8" height="16.9"/>
		<rect x="1511.2" y="878.1" class="st116" width="125.8" height="6.5"/>
		<path class="st116" d="M1542.6,889.8c0,8.5,6.9,15.3,15.3,15.3h0.8c8.5,0,15.3-6.9,15.3-15.3H1542.6z"/>
		<path class="st116" d="M1574.1,889.8c0,8.5,6.9,15.3,15.3,15.3h0.8c8.5,0,15.3-6.9,15.3-15.3H1574.1z"/>
		<path class="st116" d="M1605.5,889.8c0,8.5,6.9,15.3,15.3,15.3h0.8c8.5,0,15.3-6.9,15.3-15.3H1605.5z"/>
		<path class="st116" d="M1511.2,889.8c0,8.5,6.9,15.3,15.3,15.3h0.8c8.5,0,15.3-6.9,15.3-15.3H1511.2z"/>
	</g>
</g>
<path class="st117" d="M1362.4,1047.6c3.3-2.3,5.5-6.2,5.5-10.6c0-7.2-5.8-13-13-13c-7.2,0-13,5.8-13,13c0,0.9,0.1,1.8,0.3,2.6
	c-2.4-3.8-5.8-6.8-9.8-8.8c4.6-3.3,7.7-8.6,7.7-14.7c0-9.9-8.1-18-18-18c-9.9,0-18,8.1-18,18c0,5.9,2.9,11.1,7.3,14.4
	c-4.5,2.1-8.3,5.5-10.8,9.7c-1.5-1.4-3.3-2.6-5.2-3.6c4.2-2.9,6.9-7.8,6.9-13.3c0-9-7.3-16.3-16.3-16.3c-9,0-16.3,7.3-16.3,16.3
	c0,5.3,2.6,10.1,6.6,13c-5.7,2.6-10.1,7.6-12,13.8c-1.3-3.5-4.6-6-8.5-6c-5,0-9.1,4.1-9.1,9.1c0,3,1.4,5.6,3.7,7.3
	c-4.2,2-7.2,6.2-7.2,11.2v6.9c0,6.8,5.5,12.4,12.4,12.4c5.8,0,10.6-4,12-9.3c4,5.6,10.6,9.3,18,9.3c7.1,0,13.4-3.3,17.4-8.5
	c4.5,5.2,11.1,8.5,18.6,8.5c7.2,0,13.7-3.1,18.2-8.1c3.1,4.9,8.6,8.1,14.8,8.1c9.7,0,17.6-7.9,17.6-17.6v-9.8
	C1372.2,1056.4,1368.2,1050.4,1362.4,1047.6z M1263.5,1058v4.1c-0.7-0.6-1.5-1.1-2.4-1.6C1262,1059.8,1262.8,1059,1263.5,1058z
	 M1345.7,1048.2c-0.2-1.1-0.5-2.1-0.8-3.1c0.7,0.9,1.5,1.6,2.4,2.3C1346.7,1047.6,1346.2,1047.9,1345.7,1048.2z"/>
<path class="st117" d="M644,1041.5c4-2.8,6.7-7.5,6.7-12.8c0-8.7-7-15.7-15.7-15.7c-8.7,0-15.7,7-15.7,15.7c0,5.1,2.5,9.7,6.3,12.6
	c-3.5,1.6-6.5,4.2-8.7,7.3c-2-6.5-6.6-11.9-12.6-14.8c4.6-3.3,7.7-8.6,7.7-14.7c0-9.9-8.1-18-18-18c-9.9,0-18,8.1-18,18
	c0,5.9,2.9,11.1,7.3,14.4c-8.4,3.9-14.3,12.4-14.3,22.3v13.6c0,13.5,11,24.5,24.5,24.5c9.3,0,17.3-5.1,21.5-12.7
	c3.3,7.5,10.8,12.7,19.5,12.7c11.8,0,21.3-9.6,21.3-21.3v-11.9C655.9,1052.2,651,1045,644,1041.5z"/>
<path class="st117" d="M161.4,1057.9c3.4-2.4,5.6-6.3,5.6-10.8c0-7.3-5.9-13.2-13.2-13.2c-6.6,0-12.1,4.9-13,11.3
	c-2-6.4-6.6-11.7-12.5-14.6c4.6-3.3,7.7-8.6,7.7-14.7c0-9.9-8.1-18-18-18s-18,8.1-18,18c0,5.9,2.9,11.1,7.3,14.4
	c-0.4,0.2-0.9,0.4-1.3,0.6c-2-4.7-6.7-8.1-12.1-8.1c-7.3,0-13.2,5.9-13.2,13.2c0,4.3,2.1,8.1,5.3,10.5c-6.2,2.8-10.4,9-10.4,16.3v10
	c0,9.9,8,17.9,17.9,17.9c4.1,0,7.9-1.4,11-3.8c3.8,2.4,8.2,3.8,13,3.8c7.2,0,13.6-3.1,18.1-8v1.1c0,9.9,8,17.9,17.9,17.9
	s17.9-8,17.9-17.9v-10C171.4,1066.9,167.3,1060.8,161.4,1057.9z M142,1060.3v-7.5c0.9,1.9,2.3,3.6,4,4.9
	C144.6,1058.4,143.2,1059.2,142,1060.3z"/>
</svg>
