<?xml version="1.0" encoding="utf-8"?>
<!-- Generator: Adobe Illustrator 22.0.1, SVG Export Plug-In . SVG Version: 6.00 Build 0)  -->
<svg version="1.1" id="Laag_1" xmlns="http://www.w3.org/2000/svg" xmlns:xlink="http://www.w3.org/1999/xlink" x="0px" y="0px"
	 viewBox="0 0 489 646" style="enable-background:new 0 0 489 646;" xml:space="preserve">
<style type="text/css">
	.st0{fill:#6D4C29;}
	.st1{fill:#5E4223;}
	.st2{opacity:0.88;fill:url(#SVGID_1_);}
	.st3{opacity:0.3;fill:#F29100;}
	.st4{opacity:0.3;fill:#D86504;}
	.st5{opacity:0.88;fill:url(#SVGID_2_);}
	.st6{fill:#636363;}
	.st7{fill:#E0851A;}
	.st8{fill:#E6E6E6;}
	.st9{fill:#FAAF40;}
	.st10{fill:#F6921E;}
	.st11{fill:#808080;}
	.st12{fill:#CCCCCC;}
	.st13{fill:#1A1A1A;}
	.st14{fill:#262626;}
	.st15{opacity:0.7;}
	.st16{fill:#362614;}
	.st17{fill:none;stroke:#B58D5A;stroke-miterlimit:10;}
	.st18{fill:#D3CFCD;}
	.st19{fill:#BCBAB8;}
	.st20{fill:#E7E2DF;}
	.st21{fill:#EDE8E6;}
	.st22{fill:#068241;}
	.st23{fill:#003A1A;}
	.st24{fill:#4E5252;}
	.st25{fill:#F7DD88;}
	.st26{fill:#EED070;}
	.st27{fill:#8C7A70;}
	.st28{fill:#9B8779;}
	.st29{fill:#C6B3A7;}
	.st30{fill:#CCBAAD;}
	.st31{fill:#84766F;}
	.st32{fill:#A58D7F;}
	.st33{fill:#77797C;}
	.st34{fill:#636769;}
	.st35{fill:#808387;}
	.st36{fill:#BBBBC1;}
	.st37{fill:#D9DADF;}
	.st38{fill:#3A3F3C;}
	.st39{fill:#9B7D67;}
	.st40{fill:#776254;}
	.st41{fill:#99806E;}
	.st42{fill:#594A44;}
	.st43{fill:#685B54;}
	.st44{fill:#C6A996;}
	.st45{fill:#110521;}
	.st46{fill:#361857;}
	.st47{fill:#FFFFFF;}
	.st48{fill:url(#SVGID_3_);}
	.st49{fill:url(#SVGID_4_);}
	.st50{fill:url(#SVGID_5_);}
	.st51{fill:url(#SVGID_6_);}
	.st52{fill:url(#SVGID_7_);}
	.st53{fill:url(#SVGID_8_);}
	.st54{fill:url(#SVGID_9_);}
	.st55{fill:url(#SVGID_10_);}
	.st56{fill:url(#SVGID_11_);}
	.st57{fill:url(#SVGID_12_);}
	.st58{fill:url(#SVGID_13_);}
	.st59{fill:url(#SVGID_14_);}
	.st60{fill:url(#SVGID_15_);}
	.st61{fill:url(#SVGID_16_);}
	.st62{fill:url(#SVGID_17_);}
	.st63{fill:url(#SVGID_18_);}
	.st64{fill:url(#SVGID_19_);}
	.st65{fill:url(#SVGID_20_);}
	.st66{fill:url(#SVGID_21_);}
	.st67{fill:url(#SVGID_22_);}
	.st68{fill:url(#SVGID_23_);}
	.st69{fill:url(#SVGID_24_);}
	.st70{fill:url(#SVGID_25_);}
	.st71{fill:url(#SVGID_26_);}
	.st72{fill:url(#SVGID_27_);}
	.st73{fill:url(#SVGID_28_);}
	.st74{fill:url(#SVGID_29_);}
	.st75{fill:url(#SVGID_30_);}
	.st76{fill:url(#SVGID_31_);}
	.st77{fill:url(#SVGID_32_);}
	.st78{fill:url(#SVGID_33_);}
	.st79{fill:url(#SVGID_34_);}
	.st80{fill:url(#SVGID_35_);}
	.st81{fill:url(#SVGID_36_);}
	.st82{fill:url(#SVGID_37_);}
	.st83{fill:url(#SVGID_38_);}
	.st84{fill:url(#SVGID_39_);}
	.st85{fill:url(#SVGID_40_);}
	.st86{fill:url(#SVGID_41_);}
	.st87{fill:url(#SVGID_42_);}
	.st88{fill:#717B1D;}
	.st89{fill:#C6B6CB;}
	.st90{fill:#F9E6FF;}
	.st91{fill:#241534;}
	.st92{fill:#26280E;}
	.st93{fill:none;stroke:#AD4182;stroke-width:3;stroke-miterlimit:10;}
	.st94{fill:url(#SVGID_43_);}
	.st95{fill:url(#SVGID_44_);}
	.st96{fill:#F0B2EE;}
	.st97{fill:#E480B7;}
	.st98{fill:#AD4182;}
	.st99{opacity:0.8;fill:#D7B2E4;}
	.st100{opacity:0.8;fill:#FCF3FA;}
	.st101{fill:url(#SVGID_45_);}
	.st102{fill:url(#SVGID_46_);}
	.st103{fill:url(#SVGID_47_);}
	.st104{fill:url(#SVGID_48_);}
	.st105{fill:url(#SVGID_49_);}
	.st106{fill:#86201B;}
	.st107{fill:url(#SVGID_50_);}
	.st108{fill:url(#SVGID_51_);}
	.st109{fill:url(#SVGID_52_);}
	.st110{fill:url(#SVGID_53_);}
	.st111{fill:url(#SVGID_54_);}
	.st112{fill:url(#SVGID_55_);}
	.st113{fill:url(#SVGID_56_);}
	.st114{fill:url(#SVGID_57_);}
	.st115{fill:url(#SVGID_58_);}
	.st116{fill:url(#SVGID_59_);}
	.st117{fill:url(#SVGID_60_);}
	.st118{fill:url(#SVGID_61_);}
	.st119{fill:url(#SVGID_62_);}
	.st120{fill:url(#SVGID_63_);}
	.st121{fill:url(#SVGID_64_);}
</style>
<g>
	<path class="st93" d="M326.5,139.2c0,0-21.9,13.2,44,73s13.1,166.6,13.1,166.6"/>
	
		<linearGradient id="SVGID_1_" gradientUnits="userSpaceOnUse" x1="42.5132" y1="347.7911" x2="-54.1252" y2="461.7578" gradientTransform="matrix(0.9849 -0.1732 0.1732 0.9849 1.2382 146.188)">
		<stop  offset="0" style="stop-color:#EB5733"/>
		<stop  offset="1" style="stop-color:#FF6A4D"/>
	</linearGradient>
	<path style="fill:url(#SVGID_1_);" d="M78.2,549.3c0.2-0.4,0.2-0.7,0.2-0.7l54.4-102c0,0-37.7-0.3-48.2,21.9
		c-7,14.6-24.8,48.1-31,70.1c-1.9-1-4-1.7-6.3-1.9c-6.3-0.6-11.1,2.5-10.7,6.9c0.2,2.3,1.9,4.5,4.3,6.2c-1.8,1-3.5,2.3-5.1,3.9
		c-5.3,5.6-6,12.5-1.5,15.5c3.4,2.2,8.8,1.6,13.5-1.3c-0.8,6.1,2.4,11.3,7.6,11.9c5.3,0.7,10.8-3.4,13.1-9.4
		c2.4,2.2,5.5,3.3,8.6,2.8c5.9-1,9.6-7.4,8.4-14.2C84.7,554.5,81.8,550.9,78.2,549.3z"/>
	
		<linearGradient id="SVGID_2_" gradientUnits="userSpaceOnUse" x1="355.3607" y1="251.761" x2="293.3587" y2="350.8536" gradientTransform="matrix(0.9849 -0.1732 0.1732 0.9849 1.2382 146.188)">
		<stop  offset="0" style="stop-color:#D3482D"/>
		<stop  offset="1" style="stop-color:#AF3323"/>
	</linearGradient>
	<path style="fill:url(#SVGID_2_);" d="M425.9,298c-3-1.9-7.7-1.1-11.7,1.5c0.5-5.3-2.4-9.8-7-10.2c-4.6-0.4-9.3,3.3-11.1,8.6
		c-2.1-1.9-4.9-2.8-7.6-2.2c-5.1,1.1-8.2,6.7-7,12.6c1,4.6,4.2,7.9,8,8.7l-36.7,65l14.8,45.3c22.6-36.4,38-77.8,42.5-102
		c1.6,0.8,3.5,1.3,5.4,1.4c5.5,0.3,9.6-2.5,9.1-6.4c-0.3-2-1.8-3.9-3.9-5.3c1.5-0.9,3-2.1,4.3-3.5
		C429.5,306.5,429.9,300.5,425.9,298z"/>
	<g>
		<path class="st96" d="M306.7,200.4c-25.5-14.5-44.6-39.9-50.1-71.2c-9.7-55.4,27-108.2,82.1-117.9c2.1-0.4,4.3-0.7,6.4-0.9
			C322.6,25.4,275.1,73.3,306.7,200.4z"/>
		<path class="st97" d="M320.3,206.8c-4.7-1.8-9.2-4-13.6-6.4c-31.6-127.1,15.9-175,38.4-190c5.1-0.6,10.2-0.7,15.2-0.5
			C378.6,33.5,443.1,131.5,320.3,206.8z"/>
		<path class="st98" d="M394.1,206.3l6.9,10.9l-47.7,8.4l4.1-12.1c-13,0.1-25.5-2.2-37.2-6.7c122.8-75.3,58.4-173.3,40-196.9
			c46.6,1.9,87.4,36.2,95.8,84.3C464.6,142.5,437.7,188.8,394.1,206.3z"/>
		
			<ellipse transform="matrix(0.9849 -0.1732 0.1732 0.9849 -24.2697 66.1711)" class="st99" cx="367" cy="172.1" rx="51.4" ry="27"/>
		
			<ellipse transform="matrix(0.9849 -0.1732 0.1732 0.9849 -6.2385 54.277)" class="st100" cx="307.9" cy="62.9" rx="16.6" ry="13.5"/>
		
			<ellipse transform="matrix(0.9849 -0.1732 0.1732 0.9849 -18.318 73.5607)" class="st100" cx="412.3" cy="141.7" rx="9.1" ry="6.1"/>
	</g>
	
		<linearGradient id="SVGID_3_" gradientUnits="userSpaceOnUse" x1="27.8596" y1="484.2541" x2="126.3722" y2="484.2541" gradientTransform="matrix(0.9849 -0.1732 0.1732 0.9849 1.2382 146.188)">
		<stop  offset="0" style="stop-color:#FCDB33"/>
		<stop  offset="1" style="stop-color:#FFCE00"/>
	</linearGradient>
	<path class="st48" d="M159.8,594.5l-35.6,12c0,0-18.7,9.1-7.3,24.5c11.4,15.4,80.2-5.4,89.3-36
		C215.4,564.4,159.8,594.5,159.8,594.5z"/>
	
		<linearGradient id="SVGID_4_" gradientUnits="userSpaceOnUse" x1="27.8596" y1="478.546" x2="126.3722" y2="478.546" gradientTransform="matrix(0.9849 -0.1732 0.1732 0.9849 1.2382 146.188)">
		<stop  offset="0" style="stop-color:#EB5733"/>
		<stop  offset="1" style="stop-color:#FF6A4D"/>
	</linearGradient>
	<path class="st49" d="M158.8,588.9l-35.6,12c0,0-18.7,9.1-7.3,24.5c11.4,15.4,80.2-5.4,89.3-36
		C214.4,558.8,158.8,588.9,158.8,588.9z"/>
	
		<linearGradient id="SVGID_5_" gradientUnits="userSpaceOnUse" x1="216.8119" y1="483.387" x2="327.0945" y2="483.387" gradientTransform="matrix(0.9849 -0.1732 0.1732 0.9849 1.2382 146.188)">
		<stop  offset="0" style="stop-color:#FCDB33"/>
		<stop  offset="1" style="stop-color:#FFCE00"/>
	</linearGradient>
	<path class="st50" d="M345.3,561.9l42.7-4.6c0,0,20.2-0.7,20.8,19.5c0.7,20.8-58.4,30.6-101.3,0.5
		C264.5,547.1,345.3,561.9,345.3,561.9z"/>
	
		<linearGradient id="SVGID_6_" gradientUnits="userSpaceOnUse" x1="216.8119" y1="477.6789" x2="327.0945" y2="477.6789" gradientTransform="matrix(0.9849 -0.1732 0.1732 0.9849 1.2382 146.188)">
		<stop  offset="0" style="stop-color:#EB5733"/>
		<stop  offset="1" style="stop-color:#FF6A4D"/>
	</linearGradient>
	<path class="st51" d="M344.3,556.2l42.7-4.6c0,0,20.2-0.7,20.8,19.5c0.7,20.8-58.4,30.6-101.3,0.5
		C263.5,541.5,344.3,556.2,344.3,556.2z"/>
	
		<linearGradient id="SVGID_7_" gradientUnits="userSpaceOnUse" x1="51.3021" y1="163.1665" x2="235.869" y2="107.511" gradientTransform="matrix(0.9849 -0.1732 0.1732 0.9849 1.2382 146.188)">
		<stop  offset="0" style="stop-color:#FCDB33"/>
		<stop  offset="1" style="stop-color:#FFCE00"/>
	</linearGradient>
	<path class="st52" d="M98.3,294.7c0,0-11.4-15.4-26.2-18c-1.1-0.2-1.2-1.6-0.1-2c8.5-2.5,25.7-7,37-5.8c0,0-8.9-7.8-26.2-11.3
		c-1-0.2-1.1-1.7-0.1-2c10.8-3.1,40.2-10.6,53.9-2.4c0,0-24.7-20.3-43.4-21.9c-1.1-0.1-1.3-1.6-0.2-2c15.7-5.4,59.2-17.1,78.3,11.3
		c0,0-2.2-22.2-20.4-39.3c-2.1-2-0.6-5.6,2.3-5.3c15.1,1.7,44,9.1,54.2,40.4c0,0,7.2-11.8,8.6-20.9c0.4-2.5,3.5-3.4,5.2-1.5
		c4.6,4.8,10.6,13.1,12.6,24.3c0,0,12.7-7.9,18-15.6c1.4-2,4.3-1.7,5.3,0.5c2.8,6.4,5.7,16.8,0.4,26.1c0,0,11-0.4,18.7-5.3
		c1.9-1.2,4.4-0.1,4.7,2.1c0.7,6,0.5,15.6-7.4,19.9c-11.9,6.4-163.1,47.3-163.1,47.3L98.3,294.7z"/>
	<path class="st106" d="M260.2,287.7c-23.8,4.2-40.7,24.6-41.3,47.8c-12.4-22.2-37.9-35.2-64.3-30.6c-33.4,5.9-55.8,37.7-49.9,71.2
		s37.7,55.8,71.2,49.9c30.5-5.4,51.7-32.3,50.8-62.3c10.5,16.6,30.3,26,50.8,22.4c27.2-4.8,45.3-30.7,40.6-57.9
		C313.3,301.1,287.4,283,260.2,287.7z"/>
	
		<linearGradient id="SVGID_8_" gradientUnits="userSpaceOnUse" x1="71.9792" y1="451.6404" x2="316.3114" y2="162.2231" gradientTransform="matrix(0.9849 -0.1732 0.1732 0.9849 1.2382 146.188)">
		<stop  offset="0" style="stop-color:#D3482D"/>
		<stop  offset="1" style="stop-color:#AF3323"/>
	</linearGradient>
	<path class="st53" d="M313.1,580.6l-113.9,20c-49.3,8.7-96.3-24.3-104.9-73.5L82.6,388.5c-4.7-56.1,34.1-106.6,89.6-116.4
		l60.8-10.7c53.1-9.3,104.5,23.8,118,76l35.6,138.2C395.3,524.9,362.4,571.9,313.1,580.6z"/>
	
		<linearGradient id="SVGID_9_" gradientUnits="userSpaceOnUse" x1="53.8403" y1="447.2259" x2="324.4689" y2="104.2993" gradientTransform="matrix(0.9849 -0.1732 0.1732 0.9849 1.2382 146.188)">
		<stop  offset="0" style="stop-color:#EB5733"/>
		<stop  offset="1" style="stop-color:#FF6A4D"/>
	</linearGradient>
	<path class="st54" d="M349.1,326.2c-8-31.2-29.6-55.6-57-68.2c1.1-3.8,1-7.9,0.6-10.9c-0.3-2.2-2.8-3.3-4.7-2.1
		c-7.8,4.9-18.7,5.3-18.7,5.3c5.3-9.3,2.4-19.8-0.4-26.1c-1-2.2-3.9-2.5-5.3-0.5c-5.3,7.7-18,15.6-18,15.6c-2-11.2-8-19.4-12.6-24.3
		c-1.7-1.8-4.8-0.9-5.2,1.5c-1.4,9-8.6,20.9-8.6,20.9C209,206,180.1,198.6,165,196.8c-2.9-0.3-4.5,3.3-2.3,5.3
		c18.2,17.1,20.4,39.3,20.4,39.3c-19.1-28.4-62.7-16.7-78.3-11.3c-1,0.4-0.8,1.9,0.2,2c18.8,1.6,43.4,21.9,43.4,21.9
		c-13.7-8.1-43.2-0.7-53.9,2.4c-1,0.3-0.9,1.8,0.1,2c17.3,3.5,26.2,11.3,26.2,11.3c-11.3-1.2-28.5,3.3-37,5.8c-1,0.3-0.9,1.8,0.1,2
		c12.2,2.2,22.1,13,25.2,16.8c-20,21.7-31.1,51.4-28.4,82.9l11.7,138.6c8.7,49.3,55.6,82.2,104.9,73.5l113.9-20
		c49.3-8.7,82.2-55.6,73.5-104.9L349.1,326.2z"/>
	<circle class="st89" cx="165.2" cy="365.5" r="56.2"/>
	
		<ellipse transform="matrix(0.9849 -0.1732 0.1732 0.9849 -59.8854 33.8963)" class="st90" cx="164.3" cy="360.1" rx="56.2" ry="50.6"/>
	<path class="st89" d="M312.8,329.2c4.3,24.3-12,47.4-36.2,51.7c-24.3,4.3-47.4-12-51.7-36.2c-4.3-24.3,12-47.4,36.2-51.7
		c0.4-0.1,0.9-0.1,1.3-0.2c8.7-1.3,17.2,0.1,24.7,3.4C300.1,302,310.2,314.1,312.8,329.2z"/>
	<path class="st90" d="M307.8,326.1c3.9,22.1-11.7,43.4-34.8,47.4c-23.1,4.1-45-10.6-48.9-32.7c-3.9-22.1,11.7-43.4,34.8-47.4
		c1.1-0.2,2.1-0.3,3.2-0.4c10.4-1.1,20.3,1.6,28.3,6.9C299.3,305.7,305.8,315,307.8,326.1z"/>
	<path class="st47" d="M295.2,310.8c2.3,13.2-5.9,25.7-18.4,27.9c-12.5,2.2-24.5-6.7-26.9-20c-1.9-10.9,3.3-21.3,12.2-25.8
		c10.4-1.1,20.3,1.6,28.3,6.9C292.8,302.9,294.5,306.6,295.2,310.8z"/>
	
		<ellipse transform="matrix(0.9849 -0.1732 0.1732 0.9849 -56.2877 33.8102)" class="st47" cx="165.6" cy="339.4" rx="27.4" ry="25.6"/>
	<circle class="st91" cx="185.7" cy="359.6" r="24.8"/>
	
		<ellipse transform="matrix(0.9849 -0.1732 0.1732 0.9849 -54.0235 53.8954)" class="st91" cx="281.8" cy="336.5" rx="18.6" ry="20.3"/>
	<circle class="st47" cx="276.1" cy="348.2" r="7.1"/>
	<circle class="st47" cx="176.7" cy="377" r="8.4"/>
	
		<linearGradient id="SVGID_10_" gradientUnits="userSpaceOnUse" x1="172.2153" y1="399.3064" x2="170.209" y2="419.3698" gradientTransform="matrix(0.9849 -0.1732 0.1732 0.9849 1.2382 146.188)">
		<stop  offset="0" style="stop-color:#FCDB33"/>
		<stop  offset="1" style="stop-color:#FFCE00"/>
	</linearGradient>
	<path class="st55" d="M248.8,525.2L248.8,525.2c-42.6,7.5-83.1-20.9-90.6-63.5l-0.8-4.5L312,430.1l0.7,4
		C320.2,476.9,291.6,517.7,248.8,525.2z"/>
	
		<linearGradient id="SVGID_11_" gradientUnits="userSpaceOnUse" x1="179.0978" y1="304.6215" x2="173.9356" y2="366.567" gradientTransform="matrix(0.9849 -0.1732 0.1732 0.9849 1.2382 146.188)">
		<stop  offset="0" style="stop-color:#631515"/>
		<stop  offset="1" style="stop-color:#88211C"/>
	</linearGradient>
	<path class="st56" d="M245.1,515.1L245.1,515.1c-42.2,7.4-82.3-20.7-89.7-62.9l-0.7-3.7c-0.1-0.8,0.4-1.6,1.2-1.7l151.6-26.7
		c0.8-0.1,1.6,0.4,1.7,1.2l0.3,1.8C317.2,466.3,288.3,507.5,245.1,515.1z"/>
	<path class="st47" d="M186.9,469.5L186.9,469.5c-8.4,1.5-16.5-4.2-18-12.6l-2.3-12.8l30.9-5.4l2.2,12.5
		C201.3,459.7,195.5,467.9,186.9,469.5z"/>
	<path class="st47" d="M282.6,452.6L282.6,452.6c-8.5,1.5-16.6-4.2-18.1-12.7l-2.2-12.7l30.9-5.4l2.2,12.6
		C296.9,442.9,291.1,451.1,282.6,452.6z"/>
</g>
</svg>
