<?xml version="1.0" encoding="utf-8"?>
<!-- Generator: Adobe Illustrator 22.0.1, SVG Export Plug-In . SVG Version: 6.00 Build 0)  -->
<svg version="1.1" id="Laag_1" xmlns="http://www.w3.org/2000/svg" xmlns:xlink="http://www.w3.org/1999/xlink" x="0px" y="0px"
	 viewBox="0 0 489 646" style="enable-background:new 0 0 489 646;" xml:space="preserve">
<style type="text/css">
	.st0{fill:#6D4C29;}
	.st1{fill:#5E4223;}
	.st2{opacity:0.88;fill:url(#SVGID_1_);}
	.st3{opacity:0.3;fill:#F29100;}
	.st4{opacity:0.3;fill:#D86504;}
	.st5{opacity:0.88;fill:url(#SVGID_2_);}
	.st6{fill:#636363;}
	.st7{fill:#E0851A;}
	.st8{fill:#E6E6E6;}
	.st9{fill:#FAAF40;}
	.st10{fill:#F6921E;}
	.st11{fill:#808080;}
	.st12{fill:#CCCCCC;}
	.st13{fill:#1A1A1A;}
	.st14{fill:#262626;}
	.st15{opacity:0.7;}
	.st16{fill:#362614;}
	.st17{fill:none;stroke:#B58D5A;stroke-miterlimit:10;}
	.st18{fill:#D3CFCD;}
	.st19{fill:#BCBAB8;}
	.st20{fill:#E7E2DF;}
	.st21{fill:#EDE8E6;}
	.st22{fill:#068241;}
	.st23{fill:#003A1A;}
	.st24{fill:#4E5252;}
	.st25{fill:#F7DD88;}
	.st26{fill:#EED070;}
	.st27{fill:#8C7A70;}
	.st28{fill:#9B8779;}
	.st29{fill:#C6B3A7;}
	.st30{fill:#CCBAAD;}
	.st31{fill:#84766F;}
	.st32{fill:#A58D7F;}
	.st33{fill:#77797C;}
	.st34{fill:#636769;}
	.st35{fill:#808387;}
	.st36{fill:#BBBBC1;}
	.st37{fill:#D9DADF;}
	.st38{fill:#3A3F3C;}
	.st39{fill:#9B7D67;}
	.st40{fill:#776254;}
	.st41{fill:#99806E;}
	.st42{fill:#594A44;}
	.st43{fill:#685B54;}
	.st44{fill:#C6A996;}
	.st45{fill:#110521;}
	.st46{fill:#361857;}
	.st47{fill:#FFFFFF;}
	.st48{fill:url(#SVGID_3_);}
	.st49{fill:url(#SVGID_4_);}
	.st50{fill:url(#SVGID_5_);}
	.st51{fill:url(#SVGID_6_);}
	.st52{fill:url(#SVGID_7_);}
	.st53{fill:url(#SVGID_8_);}
	.st54{fill:url(#SVGID_9_);}
	.st55{fill:url(#SVGID_10_);}
	.st56{fill:url(#SVGID_11_);}
	.st57{fill:url(#SVGID_12_);}
	.st58{fill:url(#SVGID_13_);}
	.st59{fill:url(#SVGID_14_);}
	.st60{fill:url(#SVGID_15_);}
	.st61{fill:url(#SVGID_16_);}
	.st62{fill:url(#SVGID_17_);}
	.st63{fill:url(#SVGID_18_);}
	.st64{fill:url(#SVGID_19_);}
	.st65{fill:url(#SVGID_20_);}
	.st66{fill:url(#SVGID_21_);}
	.st67{fill:url(#SVGID_22_);}
	.st68{fill:url(#SVGID_23_);}
	.st69{fill:url(#SVGID_24_);}
	.st70{fill:url(#SVGID_25_);}
	.st71{fill:url(#SVGID_26_);}
	.st72{fill:url(#SVGID_27_);}
	.st73{fill:url(#SVGID_28_);}
	.st74{fill:url(#SVGID_29_);}
	.st75{fill:url(#SVGID_30_);}
	.st76{fill:url(#SVGID_31_);}
	.st77{fill:url(#SVGID_32_);}
	.st78{fill:url(#SVGID_33_);}
	.st79{fill:url(#SVGID_34_);}
	.st80{fill:url(#SVGID_35_);}
	.st81{fill:url(#SVGID_36_);}
	.st82{fill:url(#SVGID_37_);}
	.st83{fill:url(#SVGID_38_);}
	.st84{fill:url(#SVGID_39_);}
	.st85{fill:url(#SVGID_40_);}
	.st86{fill:url(#SVGID_41_);}
	.st87{fill:url(#SVGID_42_);}
	.st88{fill:#717B1D;}
	.st89{fill:#C6B6CB;}
	.st90{fill:#F9E6FF;}
	.st91{fill:#241534;}
	.st92{fill:#26280E;}
	.st93{fill:none;stroke:#AD4182;stroke-width:3;stroke-miterlimit:10;}
	.st94{fill:url(#SVGID_43_);}
	.st95{fill:url(#SVGID_44_);}
	.st96{fill:#F0B2EE;}
	.st97{fill:#E480B7;}
	.st98{fill:#AD4182;}
	.st99{opacity:0.8;fill:#D7B2E4;}
	.st100{opacity:0.8;fill:#FCF3FA;}
	.st101{fill:url(#SVGID_45_);}
	.st102{fill:url(#SVGID_46_);}
	.st103{fill:url(#SVGID_47_);}
	.st104{fill:url(#SVGID_48_);}
	.st105{fill:url(#SVGID_49_);}
	.st106{fill:#86201B;}
	.st107{fill:url(#SVGID_50_);}
	.st108{fill:url(#SVGID_51_);}
	.st109{fill:url(#SVGID_52_);}
	.st110{fill:url(#SVGID_53_);}
	.st111{fill:url(#SVGID_54_);}
	.st112{fill:url(#SVGID_55_);}
	.st113{fill:url(#SVGID_56_);}
	.st114{fill:url(#SVGID_57_);}
	.st115{fill:url(#SVGID_58_);}
	.st116{fill:url(#SVGID_59_);}
	.st117{fill:url(#SVGID_60_);}
	.st118{fill:url(#SVGID_61_);}
	.st119{fill:url(#SVGID_62_);}
	.st120{fill:url(#SVGID_63_);}
	.st121{fill:url(#SVGID_64_);}
</style>
<g>
	<path class="st93" d="M349.6,159.3c0,0-16.9,11.5,35.6,69.6s42.3,107.9,42.3,107.9"/>
	
		<linearGradient id="SVGID_1_" gradientUnits="userSpaceOnUse" x1="103.0223" y1="369.8145" x2="6.3839" y2="483.7812" gradientTransform="matrix(0.9992 -4.042998e-02 4.042998e-02 0.9992 -5.2935 82.9555)">
		<stop  offset="0" style="stop-color:#EB5733"/>
		<stop  offset="1" style="stop-color:#FF6A4D"/>
	</linearGradient>
	<path style="fill:url(#SVGID_1_);" d="M78.6,512.3c0.2-0.4,0.3-0.6,0.3-0.6l67.5-93.8c0,0-37.3-5.3-50.7,15.2
		c-8.9,13.6-31,44.4-40,65.3c-1.7-1.2-3.8-2.2-6-2.7c-6.2-1.4-11.3,1-11.5,5.4c-0.1,2.3,1.2,4.7,3.4,6.7c-1.9,0.7-3.8,1.8-5.5,3.1
		c-6,4.8-7.6,11.6-3.6,15.2c3.1,2.7,8.5,2.7,13.5,0.6c-1.6,5.9,0.8,11.5,5.9,12.8c5.1,1.4,11.2-2,14.2-7.6c2.1,2.5,5,4,8.2,3.9
		c5.9-0.2,10.5-6,10.2-13C84.3,518.3,81.9,514.3,78.6,512.3z"/>
	
		<linearGradient id="SVGID_2_" gradientUnits="userSpaceOnUse" x1="415.8699" y1="273.7844" x2="353.8678" y2="372.877" gradientTransform="matrix(0.9992 -4.042998e-02 4.042998e-02 0.9992 -5.2935 82.9555)">
		<stop  offset="0" style="stop-color:#D3482D"/>
		<stop  offset="1" style="stop-color:#AF3323"/>
	</linearGradient>
	<path style="fill:url(#SVGID_2_);" d="M456.7,309.6c-2.8-2.2-7.5-2.1-11.8-0.1c1.2-5.2-1.1-10-5.6-11c-4.5-1.1-9.7,2-12.2,7
		c-1.9-2.1-4.5-3.4-7.3-3.2c-5.2,0.4-9,5.6-8.6,11.6c0.3,4.6,3.1,8.4,6.7,9.7L373,383.1l8.7,46.8c27.3-33,48.1-72.1,55.7-95.4
		c1.5,1,3.3,1.7,5.2,2.1c5.4,1,9.8-1.2,9.9-5.1c0-2-1.2-4.1-3.2-5.8c1.7-0.7,3.3-1.7,4.7-2.9C459.2,318.5,460.4,312.5,456.7,309.6z"
		/>
	<g>
		<path class="st96" d="M335.2,215.6c-20.1-14.4-35.5-38.8-40.3-68.1c-8.5-52,19.2-99.8,62-106.8c1.7-0.3,3.3-0.5,5-0.6
			C344.7,53.2,308.4,96,335.2,215.6z"/>
		<path class="st97" d="M345.9,222.1c-3.7-1.8-7.2-4-10.7-6.5C308.4,96,344.7,53.2,362,40c4-0.4,7.9-0.3,11.8,0
			C388.4,62.8,440.3,156.4,345.9,222.1z"/>
		<path class="st98" d="M403.4,224.3l5.6,10.4l-37,6.1l3-11.1c-10.1-0.3-19.9-3-29.1-7.6c94.5-65.7,42.6-159.3,27.9-182
			c36.4,3.5,68.7,36.9,76.1,82C457.3,167.4,437.1,209.6,403.4,224.3z"/>
		
			<ellipse transform="matrix(0.9868 -0.162 0.162 0.9868 -25.9748 64.3607)" class="st99" cx="381.7" cy="191.5" rx="39.8" ry="25.3"/>
		
			<ellipse transform="matrix(0.9868 -0.162 0.162 0.9868 -9.7739 55.2233)" class="st100" cx="333.8" cy="87.6" rx="12.9" ry="12.6"/>
		<ellipse transform="matrix(0.9868 -0.162 0.162 0.9868 -21.194 69.6474)" class="st100" cx="416.5" cy="164.8" rx="7" ry="5.7"/>
	</g>
	
		<linearGradient id="SVGID_3_" gradientUnits="userSpaceOnUse" x1="88.3688" y1="506.2775" x2="186.8814" y2="506.2775" gradientTransform="matrix(0.9992 -4.042998e-02 4.042998e-02 0.9992 -5.2935 82.9555)">
		<stop  offset="0" style="stop-color:#FCDB33"/>
		<stop  offset="1" style="stop-color:#FFCE00"/>
	</linearGradient>
	<path class="st48" d="M153.5,567.9l-36.8,7.2c0,0-19.7,6.5-10.5,23.3s80.2,5.3,93.3-23.8C212.5,545.6,153.5,567.9,153.5,567.9z"/>
	
		<linearGradient id="SVGID_4_" gradientUnits="userSpaceOnUse" x1="88.3688" y1="500.5694" x2="186.8814" y2="500.5694" gradientTransform="matrix(0.9992 -4.042998e-02 4.042998e-02 0.9992 -5.2935 82.9555)">
		<stop  offset="0" style="stop-color:#EB5733"/>
		<stop  offset="1" style="stop-color:#FF6A4D"/>
	</linearGradient>
	<path class="st49" d="M153.2,562.2l-36.8,7.2c0,0-19.7,6.5-10.5,23.3s80.2,5.3,93.3-23.8C212.3,539.9,153.2,562.2,153.2,562.2z"/>
	
		<linearGradient id="SVGID_5_" gradientUnits="userSpaceOnUse" x1="277.321" y1="505.4103" x2="387.6037" y2="505.4103" gradientTransform="matrix(0.9992 -4.042998e-02 4.042998e-02 0.9992 -5.2935 82.9555)">
		<stop  offset="0" style="stop-color:#FCDB33"/>
		<stop  offset="1" style="stop-color:#FFCE00"/>
	</linearGradient>
	<path class="st50" d="M341.7,560.3l42.9,1.1c0,0,20.1,2,18,22.1c-2.1,20.7-61.9,22.5-100.5-13C263.5,535,341.7,560.3,341.7,560.3z"
		/>
	
		<linearGradient id="SVGID_6_" gradientUnits="userSpaceOnUse" x1="277.321" y1="499.7023" x2="387.6037" y2="499.7023" gradientTransform="matrix(0.9992 -4.042998e-02 4.042998e-02 0.9992 -5.2935 82.9555)">
		<stop  offset="0" style="stop-color:#EB5733"/>
		<stop  offset="1" style="stop-color:#FF6A4D"/>
	</linearGradient>
	<path class="st51" d="M341.4,554.6l42.9,1.1c0,0,20.1,2,18,22.1c-2.1,20.7-61.9,22.5-100.5-13S341.4,554.6,341.4,554.6z"/>
	
		<linearGradient id="SVGID_7_" gradientUnits="userSpaceOnUse" x1="111.8113" y1="185.1899" x2="296.3782" y2="129.5344" gradientTransform="matrix(0.9992 -4.042998e-02 4.042998e-02 0.9992 -5.2935 82.9555)">
		<stop  offset="0" style="stop-color:#FCDB33"/>
		<stop  offset="1" style="stop-color:#FFCE00"/>
	</linearGradient>
	<path class="st52" d="M132.5,262.7c0,0-9.3-16.8-23.5-21.3c-1-0.3-0.9-1.8,0.1-2c8.8-1.4,26.4-3.5,37.4-0.8c0,0-7.7-8.9-24.5-14.7
		c-1-0.3-0.9-1.8,0.2-2c11.1-1.7,41.3-5.1,53.8,4.8c0,0-21.7-23.4-40.1-27.5c-1.1-0.2-1-1.8,0-2c16.3-3.3,61-9.1,76.1,21.6
		c0,0,0.8-22.3-15-41.7c-1.9-2.3,0.2-5.6,3-4.9c14.7,3.7,42.4,14.9,48.4,47.3c0,0,8.7-10.8,11.3-19.5c0.7-2.4,3.9-2.9,5.4-0.8
		c3.9,5.4,8.7,14.4,9.2,25.7c0,0,13.7-6.1,19.9-13c1.6-1.8,4.5-1.1,5.2,1.2c1.9,6.7,3.4,17.4-3.1,25.9c0,0,10.9,1.1,19.3-2.7
		c2-0.9,4.4,0.5,4.3,2.7c-0.1,6-1.6,15.5-10,18.7c-12.6,4.8-168,25.2-168,25.2L132.5,262.7z"/>
	<path class="st106" d="M293.8,277.3c-24.1,1-43.6,18.9-47.3,41.9c-9.3-23.7-32.8-40-59.7-38.9c-33.9,1.4-60.3,30-58.9,63.9
		c1.4,33.9,30,60.3,63.9,58.9c30.9-1.3,55.5-25.1,58.6-55c8.2,17.8,26.6,29.9,47.4,29c27.6-1.1,49-24.4,47.9-51.9
		C344.7,297.6,321.4,276.2,293.8,277.3z"/>
	
		<linearGradient id="SVGID_8_" gradientUnits="userSpaceOnUse" x1="132.4884" y1="473.6638" x2="376.8206" y2="184.2465" gradientTransform="matrix(0.9992 -4.042998e-02 4.042998e-02 0.9992 -5.2935 82.9555)">
		<stop  offset="0" style="stop-color:#D3482D"/>
		<stop  offset="1" style="stop-color:#AF3323"/>
	</linearGradient>
	<path class="st53" d="M307.3,574.6l-115.5,4.7c-50,2-92.2-36.9-94.2-86.9l6.9-138.9c2.8-56.3,48-101.1,104.3-103.4l61.7-2.5
		c53.9-2.2,100.4,37.5,106.8,91.1l16.9,141.7C396.2,530.4,357.3,572.6,307.3,574.6z"/>
	
		<linearGradient id="SVGID_9_" gradientUnits="userSpaceOnUse" x1="114.3494" y1="469.2493" x2="384.9781" y2="126.3227" gradientTransform="matrix(0.9992 -4.042998e-02 4.042998e-02 0.9992 -5.2935 82.9555)">
		<stop  offset="0" style="stop-color:#EB5733"/>
		<stop  offset="1" style="stop-color:#FF6A4D"/>
	</linearGradient>
	<path class="st54" d="M376.8,327.2c-3.8-32-22-59-47.4-75.2c1.6-3.6,2-7.7,2.1-10.8c0-2.2-2.3-3.7-4.3-2.7
		c-8.4,3.9-19.3,2.7-19.3,2.7c6.5-8.5,5-19.3,3.1-25.9c-0.7-2.3-3.6-3-5.2-1.2c-6.2,6.9-19.9,13-19.9,13
		c-0.5-11.4-5.3-20.3-9.2-25.7c-1.5-2-4.6-1.6-5.4,0.8c-2.6,8.8-11.3,19.5-11.3,19.5c-6-32.4-33.6-43.6-48.4-47.3
		c-2.9-0.7-4.9,2.6-3,4.9c15.8,19.4,15,41.7,15,41.7c-15.1-30.7-59.9-24.9-76.1-21.6c-1.1,0.2-1.1,1.7,0,2
		c18.4,4.1,40.1,27.5,40.1,27.5c-12.5-9.9-42.7-6.4-53.8-4.8c-1,0.2-1.2,1.6-0.2,2c16.7,5.8,24.5,14.7,24.5,14.7
		c-11-2.7-28.6-0.5-37.4,0.8c-1.1,0.2-1.1,1.6-0.1,2c11.8,3.8,20.2,15.9,22.7,20c-22.7,18.9-37.7,46.8-39.2,78.4L97.1,481
		c2,50,44.2,88.9,94.2,86.9l115.5-4.7c50-2,88.9-44.2,86.9-94.2L376.8,327.2z"/>
	<circle class="st89" cx="189.4" cy="341.7" r="56.2"/>
	
		<ellipse transform="matrix(0.9992 -4.042997e-02 4.042997e-02 0.9992 -13.438 7.9214)" class="st90" cx="189.1" cy="336.2" rx="56.2" ry="50.6"/>
	<path class="st89" d="M340.5,325.4c1,24.6-18.2,45.4-42.8,46.4s-45.4-18.2-46.4-42.8c-1-24.6,18.2-45.4,42.8-46.4
		c0.4,0,0.9,0,1.3,0c8.8-0.1,17,2.3,24,6.7C331.5,296.8,339.9,310,340.5,325.4z"/>
	<path class="st90" d="M335.9,321.6c0.9,22.5-17.3,41.4-40.8,42.4c-23.4,0.9-43.1-16.5-44.1-38.9c-0.9-22.5,17.3-41.4,40.8-42.4
		c1.1,0,2.2-0.1,3.2,0c10.4,0.3,19.9,4.3,27.1,10.6C330.2,300.4,335.4,310.4,335.9,321.6z"/>
	<path class="st47" d="M325.5,304.8c0.5,13.4-9.3,24.7-22,25.2c-12.7,0.5-23.4-9.9-24-23.4c-0.4-11,6.1-20.6,15.6-24
		c10.4,0.3,19.9,4.3,27.1,10.6C324.1,296.7,325.3,300.6,325.5,304.8z"/>
	
		<ellipse transform="matrix(0.9992 -4.042997e-02 4.042997e-02 0.9992 -12.614 8.0684)" class="st47" cx="193.2" cy="315.9" rx="27.4" ry="25.6"/>
	<circle class="st91" cx="210.5" cy="338.7" r="24.8"/>
	
		<ellipse transform="matrix(0.9992 -4.042997e-02 4.042997e-02 0.9992 -13.0282 12.7509)" class="st91" cx="308.7" cy="328.5" rx="18.6" ry="20.3"/>
	<circle class="st47" cx="301.6" cy="339.4" r="7.1"/>
	<circle class="st47" cx="199.2" cy="354.6" r="8.4"/>
	
		<linearGradient id="SVGID_10_" gradientUnits="userSpaceOnUse" x1="232.6847" y1="421.3822" x2="230.6769" y2="441.4608" gradientTransform="matrix(0.9992 -4.042998e-02 4.042998e-02 0.9992 -5.2935 82.9555)">
		<stop  offset="0" style="stop-color:#FCDB33"/>
		<stop  offset="1" style="stop-color:#FFCE00"/>
	</linearGradient>
	<path class="st55" d="M250.2,511.2L250.2,511.2c-42.8,1.7-78.9-31.5-80.6-74.3l-0.2-5.2l156.8-6.3l0.1,3.3
		C328.1,472.4,294,509.4,250.2,511.2z"/>
	
		<linearGradient id="SVGID_11_" gradientUnits="userSpaceOnUse" x1="240.8164" y1="325.8516" x2="235.6604" y2="387.724" gradientTransform="matrix(0.9992 -4.042998e-02 4.042998e-02 0.9992 -5.2935 82.9555)">
		<stop  offset="0" style="stop-color:#631515"/>
		<stop  offset="1" style="stop-color:#88211C"/>
	</linearGradient>
	<path class="st56" d="M251,499.7L251,499.7c-43.5,1.8-80.2-32.1-81.9-75.6l-0.1-2.4c0-0.8,0.6-1.5,1.4-1.6l153.8-6.2
		c0.8,0,1.5,0.6,1.6,1.4l0.1,3.1C327.7,461.6,294.1,498,251,499.7z"/>
	<path class="st47" d="M197.1,447.6L197.1,447.6c-8.6,0.3-15.9-6.4-16.3-15l-0.5-12.9l31.4-1.3l0.5,12.8
		C212.6,440,205.8,447.3,197.1,447.6z"/>
	<path class="st47" d="M294.2,443.7L294.2,443.7c-8.7,0.4-16-6.4-16.4-15.1l-0.5-12.8l31.4-1.3l0.5,12.9
		C309.5,436.1,302.8,443.4,294.2,443.7z"/>
</g>
</svg>
