<?xml version="1.0" encoding="utf-8"?>
<!-- Generator: Adobe Illustrator 22.0.1, SVG Export Plug-In . SVG Version: 6.00 Build 0)  -->
<svg version="1.1" id="Laag_1" xmlns="http://www.w3.org/2000/svg" xmlns:xlink="http://www.w3.org/1999/xlink" x="0px" y="0px"
	 viewBox="0 0 280.2 1914.7" style="enable-background:new 0 0 280.2 1914.7;" xml:space="preserve">
<style type="text/css">
	.st0{fill:none;stroke:#AD4182;stroke-width:3;stroke-miterlimit:10;}
	.st1{fill:#6D4C29;}
	.st2{fill:#5E4223;}
	.st3{fill:url(#SVGID_1_);}
	.st4{fill:url(#SVGID_2_);}
	.st5{fill:url(#SVGID_3_);}
	.st6{fill:url(#SVGID_4_);}
	.st7{fill:url(#SVGID_5_);}
	.st8{fill:url(#SVGID_6_);}
	.st9{fill:url(#SVGID_7_);}
	.st10{fill:#86201B;}
	.st11{fill:url(#SVGID_8_);}
	.st12{fill:url(#SVGID_9_);}
	.st13{fill:#C6B6CB;}
	.st14{fill:#F9E6FF;}
	.st15{fill:#FFFFFF;}
	.st16{fill:#241534;}
	.st17{fill:url(#SVGID_10_);}
	.st18{fill:url(#SVGID_11_);}
	.st19{fill:url(#SVGID_12_);}
	.st20{fill:url(#SVGID_13_);}
	.st21{fill:#F0B2EE;}
	.st22{fill:#E480B7;}
	.st23{fill:#AD4182;}
	.st24{opacity:0.8;fill:#D7B2E4;}
	.st25{opacity:0.8;fill:#FCF3FA;}
	.st26{fill:url(#SVGID_14_);}
	.st27{fill:url(#SVGID_15_);}
	.st28{fill:url(#SVGID_16_);}
	.st29{fill:url(#SVGID_17_);}
	.st30{fill:url(#SVGID_18_);}
	.st31{fill:url(#SVGID_19_);}
	.st32{fill:url(#SVGID_20_);}
	.st33{fill:url(#SVGID_21_);}
	.st34{fill:url(#SVGID_22_);}
	.st35{opacity:0.88;fill:url(#SVGID_23_);}
	.st36{opacity:0.3;fill:#F29100;}
	.st37{opacity:0.3;fill:#D86504;}
	.st38{opacity:0.88;fill:url(#SVGID_24_);}
	.st39{fill:#636363;}
	.st40{fill:#E0851A;}
	.st41{fill:#E6E6E6;}
	.st42{fill:#FAAF40;}
	.st43{fill:#F6921E;}
	.st44{fill:#808080;}
	.st45{fill:#CCCCCC;}
	.st46{fill:#1A1A1A;}
	.st47{fill:#262626;}
	.st48{opacity:0.7;}
	.st49{fill:#362614;}
	.st50{fill:none;stroke:#B58D5A;stroke-miterlimit:10;}
	.st51{fill:#D3CFCD;}
	.st52{fill:#BCBAB8;}
	.st53{fill:#E7E2DF;}
	.st54{fill:#EDE8E6;}
	.st55{fill:#068241;}
	.st56{fill:#003A1A;}
	.st57{fill:#4E5252;}
	.st58{fill:#F7DD88;}
	.st59{fill:#EED070;}
	.st60{fill:#8C7A70;}
	.st61{fill:#9B8779;}
	.st62{fill:#C6B3A7;}
	.st63{fill:#CCBAAD;}
	.st64{fill:#84766F;}
	.st65{fill:#A58D7F;}
	.st66{fill:#77797C;}
	.st67{fill:#636769;}
	.st68{fill:#808387;}
	.st69{fill:#BBBBC1;}
	.st70{fill:#D9DADF;}
	.st71{fill:#3A3F3C;}
	.st72{fill:#9B7D67;}
	.st73{fill:#776254;}
	.st74{fill:#99806E;}
	.st75{fill:#594A44;}
	.st76{fill:#685B54;}
	.st77{fill:#C6A996;}
	.st78{fill:#110521;}
	.st79{fill:#361857;}
	.st80{fill:url(#SVGID_25_);}
	.st81{fill:url(#SVGID_26_);}
	.st82{fill:url(#SVGID_27_);}
	.st83{fill:url(#SVGID_28_);}
	.st84{fill:url(#SVGID_29_);}
	.st85{fill:url(#SVGID_30_);}
	.st86{fill:url(#SVGID_31_);}
	.st87{fill:url(#SVGID_32_);}
	.st88{fill:url(#SVGID_33_);}
	.st89{fill:url(#SVGID_34_);}
	.st90{fill:url(#SVGID_35_);}
	.st91{fill:url(#SVGID_36_);}
	.st92{fill:url(#SVGID_37_);}
	.st93{fill:url(#SVGID_38_);}
	.st94{fill:url(#SVGID_39_);}
	.st95{fill:url(#SVGID_40_);}
	.st96{fill:url(#SVGID_41_);}
	.st97{fill:url(#SVGID_42_);}
	.st98{fill:url(#SVGID_43_);}
	.st99{fill:url(#SVGID_44_);}
	.st100{fill:url(#SVGID_45_);}
	.st101{fill:url(#SVGID_46_);}
	.st102{fill:url(#SVGID_47_);}
	.st103{fill:url(#SVGID_48_);}
	.st104{fill:url(#SVGID_49_);}
	.st105{fill:url(#SVGID_50_);}
	.st106{fill:url(#SVGID_51_);}
	.st107{fill:url(#SVGID_52_);}
	.st108{fill:url(#SVGID_53_);}
	.st109{fill:url(#SVGID_54_);}
	.st110{fill:url(#SVGID_55_);}
	.st111{fill:url(#SVGID_56_);}
	.st112{fill:url(#SVGID_57_);}
	.st113{fill:url(#SVGID_58_);}
	.st114{fill:url(#SVGID_59_);}
	.st115{fill:url(#SVGID_60_);}
	.st116{fill:url(#SVGID_61_);}
	.st117{fill:url(#SVGID_62_);}
	.st118{fill:url(#SVGID_63_);}
	.st119{fill:url(#SVGID_64_);}
	.st120{fill:#717B1D;}
	.st121{fill:#26280E;}
</style>
<g>
	<rect x="41.6" y="29.2" class="st78" width="198.9" height="1855.6"/>
	
		<rect x="41.6" y="35.6" transform="matrix(-1 -1.224647e-16 1.224647e-16 -1 282.1605 94.1271)" class="st79" width="198.9" height="22.8"/>
	
		<rect x="41.6" y="107.4" transform="matrix(-1 -1.224647e-16 1.224647e-16 -1 282.1605 237.6305)" class="st79" width="198.9" height="22.8"/>
	
		<rect x="41.6" y="179.2" transform="matrix(-1 -1.224647e-16 1.224647e-16 -1 282.1605 381.1339)" class="st79" width="198.9" height="22.8"/>
	
		<rect x="41.6" y="250.9" transform="matrix(-1 -1.224647e-16 1.224647e-16 -1 282.1605 524.6373)" class="st79" width="198.9" height="22.8"/>
	
		<rect x="41.6" y="322.7" transform="matrix(-1 -1.224647e-16 1.224647e-16 -1 282.1605 668.1407)" class="st79" width="198.9" height="22.8"/>
	
		<rect x="41.6" y="394.4" transform="matrix(-1 -1.224647e-16 1.224647e-16 -1 282.1605 811.6442)" class="st79" width="198.9" height="22.8"/>
	
		<rect x="41.6" y="466.2" transform="matrix(-1 -1.224647e-16 1.224647e-16 -1 282.1605 955.1476)" class="st79" width="198.9" height="22.8"/>
	
		<rect x="41.6" y="537.9" transform="matrix(-1 -1.224647e-16 1.224647e-16 -1 282.1605 1098.651)" class="st79" width="198.9" height="22.8"/>
	
		<rect x="41.6" y="609.7" transform="matrix(-1 -1.224647e-16 1.224647e-16 -1 282.1605 1242.1544)" class="st79" width="198.9" height="22.8"/>
	
		<rect x="41.6" y="681.4" transform="matrix(-1 -1.224647e-16 1.224647e-16 -1 282.1605 1385.6578)" class="st79" width="198.9" height="22.8"/>
	
		<rect x="41.6" y="753.2" transform="matrix(-1 -1.224647e-16 1.224647e-16 -1 282.1605 1529.1613)" class="st79" width="198.9" height="22.8"/>
	
		<rect x="41.6" y="824.9" transform="matrix(-1 -1.224647e-16 1.224647e-16 -1 282.1605 1672.6647)" class="st79" width="198.9" height="22.8"/>
	
		<rect x="41.6" y="896.7" transform="matrix(-1 -1.224647e-16 1.224647e-16 -1 282.1605 1816.1681)" class="st79" width="198.9" height="22.8"/>
	
		<rect x="41.6" y="968.4" transform="matrix(-1 -1.224647e-16 1.224647e-16 -1 282.1605 1959.6715)" class="st79" width="198.9" height="22.8"/>
	
		<rect x="41.6" y="1040.2" transform="matrix(-1 -1.224647e-16 1.224647e-16 -1 282.1605 2103.175)" class="st79" width="198.9" height="22.8"/>
	
		<rect x="41.6" y="1111.9" transform="matrix(-1 -1.224647e-16 1.224647e-16 -1 282.1605 2246.6785)" class="st79" width="198.9" height="22.8"/>
	
		<rect x="41.6" y="1183.7" transform="matrix(-1 -1.224647e-16 1.224647e-16 -1 282.1605 2390.1819)" class="st79" width="198.9" height="22.8"/>
	
		<rect x="41.6" y="1255.4" transform="matrix(-1 -1.224647e-16 1.224647e-16 -1 282.1605 2533.6853)" class="st79" width="198.9" height="22.8"/>
	
		<rect x="41.6" y="1327.2" transform="matrix(-1 -1.224647e-16 1.224647e-16 -1 282.1605 2677.1887)" class="st79" width="198.9" height="22.8"/>
	
		<rect x="41.6" y="1398.9" transform="matrix(-1 -1.224647e-16 1.224647e-16 -1 282.1605 2820.6921)" class="st79" width="198.9" height="22.8"/>
	
		<rect x="41.6" y="1470.7" transform="matrix(-1 -1.224647e-16 1.224647e-16 -1 282.1605 2964.1956)" class="st79" width="198.9" height="22.8"/>
	
		<rect x="41.6" y="1542.4" transform="matrix(-1 -1.224647e-16 1.224647e-16 -1 282.1605 3107.699)" class="st79" width="198.9" height="22.8"/>
	
		<rect x="41.6" y="1614.2" transform="matrix(-1 -1.224647e-16 1.224647e-16 -1 282.1605 3251.2024)" class="st79" width="198.9" height="22.8"/>
	
		<rect x="41.6" y="1685.9" transform="matrix(-1 -1.224647e-16 1.224647e-16 -1 282.1605 3394.7058)" class="st79" width="198.9" height="22.8"/>
	
		<rect x="41.6" y="1757.7" transform="matrix(-1 -1.224647e-16 1.224647e-16 -1 282.1605 3538.2092)" class="st79" width="198.9" height="22.8"/>
	
		<rect x="41.6" y="1829.4" transform="matrix(-1 -1.224647e-16 1.224647e-16 -1 282.1605 3681.7126)" class="st79" width="198.9" height="22.8"/>
	<path class="st79" d="M30.3,1891.4h221.6c2.8,0,5-2.2,5-5v-29.1c0-2.8-2.2-5-5-5H30.3c-2.8,0-5,2.2-5,5v29.1
		C25.3,1889.2,27.5,1891.4,30.3,1891.4z"/>
	
		<rect x="208.4" y="1891.4" transform="matrix(-1 -1.224647e-16 1.224647e-16 -1 448.9655 3805.6475)" class="st15" width="32.1" height="22.8"/>
	
		<rect x="166.6" y="1891.4" transform="matrix(-1 -1.224647e-16 1.224647e-16 -1 365.3939 3805.6475)" class="st15" width="32.1" height="22.8"/>
	
		<rect x="124.8" y="1891.4" transform="matrix(-1 -1.224647e-16 1.224647e-16 -1 281.8222 3805.6475)" class="st15" width="32.1" height="22.8"/>
	
		<rect x="83.1" y="1891.4" transform="matrix(-1 -1.224647e-16 1.224647e-16 -1 198.2505 3805.6475)" class="st15" width="32.1" height="22.8"/>
	
		<rect x="41.6" y="1891.4" transform="matrix(-1 -1.224647e-16 1.224647e-16 -1 115.3556 3805.6475)" class="st15" width="32.1" height="22.8"/>
	<circle class="st78" cx="91.6" cy="1860" r="22.6"/>
	<circle class="st78" cx="191.6" cy="1860" r="22.6"/>
	<circle class="st15" cx="85.2" cy="1869.7" r="9.7"/>
	<circle class="st15" cx="188.4" cy="1869.7" r="9.7"/>
	<rect x="39.6" y="62.4" class="st79" width="198.9" height="22.8"/>
	<path class="st79" d="M249.9,23.3H28.3c-2.8,0-5,2.2-5,5v29.1c0,2.8,2.2,5,5,5h221.6c2.8,0,5-2.2,5-5V28.3
		C254.9,25.5,252.6,23.3,249.9,23.3z"/>
	<rect x="39.6" y="0.4" class="st15" width="32.1" height="22.8"/>
	<rect x="81.4" y="0.4" class="st15" width="32.1" height="22.8"/>
	<rect x="123.2" y="0.4" class="st15" width="32.1" height="22.8"/>
	<rect x="165" y="0.4" class="st15" width="32.1" height="22.8"/>
	<rect x="206.4" y="0.4" class="st15" width="32.1" height="22.8"/>
	<circle class="st78" cx="188.5" cy="54.6" r="22.6"/>
	<circle class="st78" cx="88.5" cy="54.6" r="22.6"/>
	<circle class="st15" cx="195" cy="45" r="9.7"/>
	<circle class="st15" cx="91.7" cy="45" r="9.7"/>
</g>
</svg>
