<?xml version="1.0" encoding="utf-8"?>
<!-- Generator: Adobe Illustrator 22.0.1, SVG Export Plug-In . SVG Version: 6.00 Build 0)  -->
<svg version="1.1" id="Laag_1" xmlns="http://www.w3.org/2000/svg" xmlns:xlink="http://www.w3.org/1999/xlink" x="0px" y="0px"
	 viewBox="0 0 300 300" style="enable-background:new 0 0 300 300;" xml:space="preserve">
<style type="text/css">
	.st0{fill:none;stroke:#AD4182;stroke-width:3;stroke-miterlimit:10;}
	.st1{fill:#6D4C29;}
	.st2{fill:#5E4223;}
	.st3{fill:url(#SVGID_1_);}
	.st4{fill:url(#SVGID_2_);}
	.st5{fill:url(#SVGID_3_);}
	.st6{fill:url(#SVGID_4_);}
	.st7{fill:url(#SVGID_5_);}
	.st8{fill:url(#SVGID_6_);}
	.st9{fill:url(#SVGID_7_);}
	.st10{fill:#86201B;}
	.st11{fill:url(#SVGID_8_);}
	.st12{fill:url(#SVGID_9_);}
	.st13{fill:#C6B6CB;}
	.st14{fill:#F9E6FF;}
	.st15{fill:#FFFFFF;}
	.st16{fill:#241534;}
	.st17{fill:url(#SVGID_10_);}
	.st18{fill:url(#SVGID_11_);}
	.st19{fill:url(#SVGID_12_);}
	.st20{fill:url(#SVGID_13_);}
	.st21{fill:#F0B2EE;}
	.st22{fill:#E480B7;}
	.st23{fill:#AD4182;}
	.st24{opacity:0.8;fill:#D7B2E4;}
	.st25{opacity:0.8;fill:#FCF3FA;}
	.st26{fill:url(#SVGID_14_);}
	.st27{fill:url(#SVGID_15_);}
	.st28{fill:url(#SVGID_16_);}
	.st29{fill:url(#SVGID_17_);}
	.st30{fill:url(#SVGID_18_);}
	.st31{fill:url(#SVGID_19_);}
	.st32{fill:url(#SVGID_20_);}
	.st33{fill:url(#SVGID_21_);}
	.st34{fill:url(#SVGID_22_);}
	.st35{opacity:0.88;fill:url(#SVGID_23_);}
	.st36{opacity:0.3;fill:#F29100;}
	.st37{opacity:0.3;fill:#D86504;}
	.st38{opacity:0.88;fill:url(#SVGID_24_);}
	.st39{fill:#636363;}
	.st40{fill:#E0851A;}
	.st41{fill:#E6E6E6;}
	.st42{fill:#FAAF40;}
	.st43{fill:#F6921E;}
	.st44{fill:#808080;}
	.st45{fill:#CCCCCC;}
	.st46{fill:#1A1A1A;}
	.st47{fill:#262626;}
	.st48{opacity:0.7;}
	.st49{fill:#362614;}
	.st50{fill:none;stroke:#B58D5A;stroke-miterlimit:10;}
	.st51{fill:#D3CFCD;}
	.st52{fill:#BCBAB8;}
	.st53{fill:#E7E2DF;}
	.st54{fill:#EDE8E6;}
	.st55{fill:#068241;}
	.st56{fill:#003A1A;}
	.st57{fill:#4E5252;}
	.st58{fill:#F7DD88;}
	.st59{fill:#EED070;}
	.st60{fill:#8C7A70;}
	.st61{fill:#9B8779;}
	.st62{fill:#C6B3A7;}
	.st63{fill:#CCBAAD;}
	.st64{fill:#84766F;}
	.st65{fill:#A58D7F;}
	.st66{fill:#77797C;}
	.st67{fill:#636769;}
	.st68{fill:#808387;}
	.st69{fill:#BBBBC1;}
	.st70{fill:#D9DADF;}
	.st71{fill:#3A3F3C;}
	.st72{fill:#9B7D67;}
	.st73{fill:#776254;}
	.st74{fill:#99806E;}
	.st75{fill:#594A44;}
	.st76{fill:#685B54;}
	.st77{fill:#C6A996;}
	.st78{fill:#110521;}
	.st79{fill:#361857;}
	.st80{fill:url(#SVGID_25_);}
	.st81{fill:url(#SVGID_26_);}
	.st82{fill:url(#SVGID_27_);}
	.st83{fill:url(#SVGID_28_);}
	.st84{fill:url(#SVGID_29_);}
	.st85{fill:url(#SVGID_30_);}
	.st86{fill:url(#SVGID_31_);}
	.st87{fill:url(#SVGID_32_);}
	.st88{fill:url(#SVGID_33_);}
	.st89{fill:url(#SVGID_34_);}
	.st90{fill:url(#SVGID_35_);}
	.st91{fill:url(#SVGID_36_);}
	.st92{fill:url(#SVGID_37_);}
	.st93{fill:url(#SVGID_38_);}
	.st94{fill:url(#SVGID_39_);}
	.st95{fill:url(#SVGID_40_);}
	.st96{fill:url(#SVGID_41_);}
	.st97{fill:url(#SVGID_42_);}
	.st98{fill:url(#SVGID_43_);}
	.st99{fill:url(#SVGID_44_);}
	.st100{fill:url(#SVGID_45_);}
	.st101{fill:url(#SVGID_46_);}
	.st102{fill:url(#SVGID_47_);}
	.st103{fill:url(#SVGID_48_);}
	.st104{fill:url(#SVGID_49_);}
	.st105{fill:url(#SVGID_50_);}
	.st106{fill:url(#SVGID_51_);}
	.st107{fill:url(#SVGID_52_);}
	.st108{fill:url(#SVGID_53_);}
	.st109{fill:url(#SVGID_54_);}
	.st110{fill:url(#SVGID_55_);}
	.st111{fill:url(#SVGID_56_);}
	.st112{fill:url(#SVGID_57_);}
	.st113{fill:url(#SVGID_58_);}
	.st114{fill:url(#SVGID_59_);}
	.st115{fill:url(#SVGID_60_);}
	.st116{fill:url(#SVGID_61_);}
	.st117{fill:url(#SVGID_62_);}
	.st118{fill:url(#SVGID_63_);}
	.st119{fill:url(#SVGID_64_);}
	.st120{fill:#717B1D;}
	.st121{fill:#26280E;}
</style>
<g>
	<path class="st120" d="M292.5,185.3C274.9,260.2,199.9,306.6,125,289c-30.7-7.2-56.6-24.1-75.3-46.6c-11.3-13.7-20-29.5-25.5-46.5
		c-7.5-23.3-8.9-48.9-2.9-74.4C38.9,46.6,113.9,0.1,188.8,17.8S310.1,110.4,292.5,185.3z"/>
	<circle class="st13" cx="73.8" cy="100.9" r="58.1"/>
	
		<ellipse transform="matrix(0.9854 -0.1704 0.1704 0.9854 -15.1702 13.7964)" class="st14" cx="72.8" cy="95.3" rx="58.1" ry="52.4"/>
	
		<ellipse transform="matrix(0.9854 -0.1704 0.1704 0.9854 -11.5527 12.1161)" class="st15" cx="64.8" cy="73.4" rx="28.4" ry="26.5"/>
	<circle class="st16" cx="51.7" cy="102.4" r="25.6"/>
	<circle class="st15" cx="66.6" cy="116.1" r="8.7"/>
	<path class="st121" d="M166.4,190.6C166.4,190.6,166.4,190.6,166.4,190.6c-0.1,0.4-2,5.2-6,11.9c-0.2,0.3-0.4,0.6-0.6,1
		c-1.7,2.8-3.7,5.8-6.1,9c-0.2,0.3-0.5,0.6-0.7,0.9c-2.4,3.2-5.3,6.5-8.5,9.7c-0.1,0.1-0.2,0.2-0.3,0.3c-3.1,3.1-6.6,6.2-10.5,9
		c-0.1,0.1-0.1,0.1-0.2,0.2c-3.5,2.5-7.3,4.9-11.4,7c-0.1,0-0.2,0.1-0.2,0.1c-4.2,2.1-8.8,4-13.7,5.4c0,0-0.1,0-0.1,0
		c-4.5,1.3-9.2,2.2-14.3,2.8c-0.4,0-0.8,0.1-1.3,0.1c-4.1,0.4-8.5,0.5-13,0.2c-0.6,0-1.1-0.1-1.7-0.1c-4.6-0.3-9.4-1-14.4-2
		c-0.6-0.1-1.1-0.2-1.7-0.4c-3.9-0.8-7.9-1.9-12.1-3.2c-0.8-1-1.6-1.9-2.4-2.9c-8.7-11-15.6-23.3-20.6-36.5
		c-0.9-2.3-1.7-4.7-2.5-7.1l11.3-0.4l2-0.1l12.5-0.5l1.9-0.1l11.3-0.4l0,0l1.7-0.1l11.4-0.4l2.1-0.1l12.4-0.5l0,0l1.1,0l14.6-0.5
		l0.7,0l0,0l13.8-0.5l0,0l1.1,0l13.4-0.5l0,0l1.9-0.1l13-0.5l4.9-0.2L166.4,190.6L166.4,190.6z"/>
	<path class="st15" d="M63.4,246l-1.2-1.6l-10.8-14.5l-4.1,9.5c0.8,1,1.6,2,2.4,2.9c4.1,1.3,8.2,2.4,12.1,3.2L63.4,246z"/>
	<path class="st15" d="M77.8,248c-4.6-0.3-9.4-1-14.4-2l-1.7-0.4l0.5-1.2l5.3-12.4l10.8,14.5l1.1,1.5L77.8,248z"/>
	<path class="st15" d="M79.5,248.1c4.6,0.3,8.9,0.2,13-0.2c0.4,0,0.9-0.1,1.3-0.1l-0.8-1l-9.4-12.5l-5.3,12.4l-0.6,1.4L79.5,248.1z"
		/>
	<path class="st15" d="M108.1,245c-4.5,1.3-9.2,2.2-14.3,2.8c-0.4,0-0.8,0.1-1.3,0.1l0.5-1.1l6-13.9L108.1,245z"/>
	<path class="st15" d="M121.9,239.5c-4.2,2.1-8.8,4-13.7,5.4l6.5-15.1L121.9,239.5z"/>
	<path class="st15" d="M133.5,232.4c-3.5,2.5-7.3,4.9-11.4,7l3.4-14.5L133.5,232.4z"/>
	<path class="st15" d="M144.5,223c-0.1,0.1-0.2,0.2-0.3,0.3c-3.1,3.1-6.6,6.2-10.5,9l-0.5-15.3l10.8,5.8L144.5,223z"/>
	<path class="st15" d="M153.7,212.4c-0.2,0.3-0.5,0.6-0.7,0.9c-2.4,3.2-5.3,6.5-8.5,9.7c-0.1,0.1-0.2,0.2-0.3,0.3l-0.2-0.5l-4.6-13
		l13.2,2.4L153.7,212.4z"/>
	<path class="st15" d="M160.4,202.5c-0.2,0.3-0.4,0.6-0.6,1c-1.7,2.8-3.7,5.8-6.1,9c-0.2,0.3-0.5,0.6-0.7,0.9l-0.4-1.1l-4.3-12
		l11.1,2L160.4,202.5z"/>
	<path class="st15" d="M166.4,190.6L166.4,190.6c-0.1,0.3-2,5.2-6,11.9c-0.2,0.3-0.4,0.6-0.6,1l-0.4-1.1l-4-11.3L166.4,190.6z"/>
	<path class="st15" d="M37.5,195.4l-0.8,2l-5.1,12.1l-4.9-6.5c-0.9-2.3-1.7-4.7-2.5-7.1l11.3-0.4L37.5,195.4z"/>
	<polygon class="st15" points="51.8,194.8 50.9,196.5 43.9,209.3 36.6,197.4 35.5,195.5 37.5,195.4 49.9,194.9 	"/>
	<polygon class="st15" points="64.9,194.4 64,195.9 57.6,207.6 50.9,196.5 49.9,194.9 51.8,194.8 63.1,194.4 63.1,194.4 	"/>
	<polygon class="st15" points="78.4,193.9 77.4,195.7 71,207.4 64,195.9 63.1,194.4 64.9,194.4 76.3,193.9 	"/>
	<polygon class="st15" points="91.9,193.3 91.4,194.4 84.3,207.2 77.4,195.7 76.3,193.9 78.4,193.9 90.8,193.4 90.8,193.4 	"/>
	<polygon class="st15" points="107.3,192.8 107,193.4 99.3,207.4 91.4,194.4 90.8,193.4 91.9,193.3 106.6,192.8 	"/>
	<polygon class="st15" points="122.1,192.2 121.6,193.2 114.6,206 107,193.4 106.6,192.8 107.3,192.8 107.3,192.8 121.1,192.3 
		121.1,192.3 	"/>
	<polygon class="st15" points="137.5,191.7 136.6,193.4 129.5,206.2 121.6,193.2 121.1,192.3 122.1,192.2 135.5,191.7 135.6,191.7 	
		"/>
	<polygon class="st15" points="150.5,191.2 143.2,204.4 136.6,193.4 135.6,191.7 137.5,191.7 	"/>
</g>
</svg>
