<?xml version="1.0" encoding="utf-8"?>
<!-- Generator: Adobe Illustrator 22.0.1, SVG Export Plug-In . SVG Version: 6.00 Build 0)  -->
<svg version="1.1" id="Laag_1" xmlns="http://www.w3.org/2000/svg" xmlns:xlink="http://www.w3.org/1999/xlink" x="0px" y="0px"
	 viewBox="0 0 300 300" style="enable-background:new 0 0 300 300;" xml:space="preserve">
<style type="text/css">
	.st0{fill:none;stroke:#AD4182;stroke-width:3;stroke-miterlimit:10;}
	.st1{fill:#6D4C29;}
	.st2{fill:#5E4223;}
	.st3{fill:url(#SVGID_1_);}
	.st4{fill:url(#SVGID_2_);}
	.st5{fill:url(#SVGID_3_);}
	.st6{fill:url(#SVGID_4_);}
	.st7{fill:url(#SVGID_5_);}
	.st8{fill:url(#SVGID_6_);}
	.st9{fill:url(#SVGID_7_);}
	.st10{fill:#86201B;}
	.st11{fill:url(#SVGID_8_);}
	.st12{fill:url(#SVGID_9_);}
	.st13{fill:#C6B6CB;}
	.st14{fill:#F9E6FF;}
	.st15{fill:#FFFFFF;}
	.st16{fill:#241534;}
	.st17{fill:url(#SVGID_10_);}
	.st18{fill:url(#SVGID_11_);}
	.st19{fill:url(#SVGID_12_);}
	.st20{fill:url(#SVGID_13_);}
	.st21{fill:#F0B2EE;}
	.st22{fill:#E480B7;}
	.st23{fill:#AD4182;}
	.st24{opacity:0.8;fill:#D7B2E4;}
	.st25{opacity:0.8;fill:#FCF3FA;}
	.st26{fill:url(#SVGID_14_);}
	.st27{fill:url(#SVGID_15_);}
	.st28{fill:url(#SVGID_16_);}
	.st29{fill:url(#SVGID_17_);}
	.st30{fill:url(#SVGID_18_);}
	.st31{fill:url(#SVGID_19_);}
	.st32{fill:url(#SVGID_20_);}
	.st33{fill:url(#SVGID_21_);}
	.st34{fill:url(#SVGID_22_);}
	.st35{opacity:0.88;fill:url(#SVGID_23_);}
	.st36{opacity:0.3;fill:#F29100;}
	.st37{opacity:0.3;fill:#D86504;}
	.st38{opacity:0.88;fill:url(#SVGID_24_);}
	.st39{fill:#636363;}
	.st40{fill:#E0851A;}
	.st41{fill:#E6E6E6;}
	.st42{fill:#FAAF40;}
	.st43{fill:#F6921E;}
	.st44{fill:#808080;}
	.st45{fill:#CCCCCC;}
	.st46{fill:#1A1A1A;}
	.st47{fill:#262626;}
	.st48{opacity:0.7;}
	.st49{fill:#362614;}
	.st50{fill:none;stroke:#B58D5A;stroke-miterlimit:10;}
	.st51{fill:#D3CFCD;}
	.st52{fill:#BCBAB8;}
	.st53{fill:#E7E2DF;}
	.st54{fill:#EDE8E6;}
	.st55{fill:#068241;}
	.st56{fill:#003A1A;}
	.st57{fill:#4E5252;}
	.st58{fill:#F7DD88;}
	.st59{fill:#EED070;}
	.st60{fill:#8C7A70;}
	.st61{fill:#9B8779;}
	.st62{fill:#C6B3A7;}
	.st63{fill:#CCBAAD;}
	.st64{fill:#84766F;}
	.st65{fill:#A58D7F;}
	.st66{fill:#77797C;}
	.st67{fill:#636769;}
	.st68{fill:#808387;}
	.st69{fill:#BBBBC1;}
	.st70{fill:#D9DADF;}
	.st71{fill:#3A3F3C;}
	.st72{fill:#9B7D67;}
	.st73{fill:#776254;}
	.st74{fill:#99806E;}
	.st75{fill:#594A44;}
	.st76{fill:#685B54;}
	.st77{fill:#C6A996;}
	.st78{fill:#110521;}
	.st79{fill:#361857;}
	.st80{fill:url(#SVGID_25_);}
	.st81{fill:url(#SVGID_26_);}
	.st82{fill:url(#SVGID_27_);}
	.st83{fill:url(#SVGID_28_);}
	.st84{fill:url(#SVGID_29_);}
	.st85{fill:url(#SVGID_30_);}
	.st86{fill:url(#SVGID_31_);}
	.st87{fill:url(#SVGID_32_);}
	.st88{fill:url(#SVGID_33_);}
	.st89{fill:url(#SVGID_34_);}
	.st90{fill:url(#SVGID_35_);}
	.st91{fill:url(#SVGID_36_);}
	.st92{fill:url(#SVGID_37_);}
	.st93{fill:url(#SVGID_38_);}
	.st94{fill:url(#SVGID_39_);}
	.st95{fill:url(#SVGID_40_);}
	.st96{fill:url(#SVGID_41_);}
	.st97{fill:url(#SVGID_42_);}
	.st98{fill:url(#SVGID_43_);}
	.st99{fill:url(#SVGID_44_);}
	.st100{fill:url(#SVGID_45_);}
	.st101{fill:url(#SVGID_46_);}
	.st102{fill:url(#SVGID_47_);}
	.st103{fill:url(#SVGID_48_);}
	.st104{fill:url(#SVGID_49_);}
	.st105{fill:url(#SVGID_50_);}
	.st106{fill:url(#SVGID_51_);}
	.st107{fill:url(#SVGID_52_);}
	.st108{fill:url(#SVGID_53_);}
	.st109{fill:url(#SVGID_54_);}
	.st110{fill:url(#SVGID_55_);}
	.st111{fill:url(#SVGID_56_);}
	.st112{fill:url(#SVGID_57_);}
	.st113{fill:url(#SVGID_58_);}
	.st114{fill:url(#SVGID_59_);}
	.st115{fill:url(#SVGID_60_);}
	.st116{fill:url(#SVGID_61_);}
	.st117{fill:url(#SVGID_62_);}
	.st118{fill:url(#SVGID_63_);}
	.st119{fill:url(#SVGID_64_);}
	.st120{fill:#717B1D;}
	.st121{fill:#26280E;}
</style>
<g>
	<path class="st120" d="M296.4,151.9c0,77-62.4,139.3-139.3,139.3c-31.5,0-60.6-10.5-84-28.2c-14.2-10.7-26.2-24.1-35.4-39.4
		c-12.6-21-19.9-45.5-19.9-71.8c0-77,62.4-139.3,139.3-139.3S296.4,74.9,296.4,151.9z"/>
	<circle class="st13" cx="64.1" cy="119.8" r="58.1"/>
	
		<ellipse transform="matrix(0.9202 -0.3915 0.3915 0.9202 -39.9131 33.3725)" class="st14" cx="61.9" cy="114.6" rx="58.1" ry="52.4"/>
	
		<ellipse transform="matrix(0.9202 -0.3915 0.3915 0.9202 -33.2979 26.8102)" class="st15" cx="49.1" cy="95.1" rx="28.4" ry="26.5"/>
	<circle class="st16" cx="43" cy="126.3" r="25.6"/>
	<circle class="st15" cx="60.7" cy="136.2" r="8.7"/>
	<path class="st121" d="M174.9,185.9C174.9,185.9,174.9,185.9,174.9,185.9c0,0.4-0.8,5.5-3.2,13c-0.1,0.4-0.2,0.7-0.4,1.1
		c-1,3.1-2.3,6.5-3.9,10.2c-0.1,0.3-0.3,0.7-0.5,1c-1.7,3.7-3.7,7.5-6.1,11.4c-0.1,0.1-0.1,0.2-0.2,0.3c-2.3,3.7-5,7.5-8.1,11.1
		c0,0.1-0.1,0.1-0.2,0.2c-2.8,3.3-6,6.4-9.5,9.4c-0.1,0.1-0.1,0.1-0.2,0.2c-3.6,3-7.6,5.9-12.1,8.4c0,0-0.1,0-0.1,0.1
		c-4.1,2.3-8.5,4.3-13.3,6c-0.4,0.1-0.8,0.3-1.2,0.4c-4,1.3-8.1,2.4-12.6,3.2c-0.6,0.1-1.1,0.2-1.7,0.3c-4.5,0.7-9.3,1.2-14.4,1.4
		c-0.6,0-1.2,0-1.7,0c-4,0.1-8.1,0-12.5-0.4c-1-0.8-2-1.5-3-2.3c-11-8.8-20.5-19.1-28.4-30.8c-1.4-2.1-2.8-4.2-4.1-6.3l10.9-3
		l1.9-0.5l12-3.3l1.8-0.5l10.9-3h0l1.7-0.5l11-3l2-0.6l11.9-3.3h0l1.1-0.3l14.1-3.9l0.7-0.2h0l13.3-3.7h0l1-0.3l12.9-3.6h0l1.9-0.5
		l12.6-3.5l4.7-1.3L174.9,185.9L174.9,185.9z"/>
	<path class="st15" d="M87.3,263.4l-1.5-1.2l-13.9-11.6l-1.8,10.2c1,0.8,2,1.6,3,2.3c4.3,0.3,8.5,0.5,12.5,0.4L87.3,263.4z"/>
	<path class="st15" d="M101.7,262.1c-4.5,0.7-9.3,1.2-14.4,1.4l-1.7,0l0.2-1.3l2.3-13.3l13.9,11.6l1.4,1.2L101.7,262.1z"/>
	<path class="st15" d="M103.4,261.8c4.5-0.8,8.7-1.9,12.6-3.2c0.4-0.1,0.8-0.3,1.2-0.4l-1-0.8l-12-10l-2.3,13.3l-0.3,1.5
		L103.4,261.8z"/>
	<path class="st15" d="M130.5,252.2c-4.1,2.3-8.5,4.3-13.3,6c-0.4,0.1-0.8,0.3-1.2,0.4l0.2-1.2l2.6-14.9L130.5,252.2z"/>
	<path class="st15" d="M142.7,243.7c-3.6,3-7.6,5.9-12.1,8.4l2.8-16.2L142.7,243.7z"/>
	<path class="st15" d="M152.4,234.2c-2.8,3.3-6,6.4-9.5,9.4v-14.9L152.4,234.2z"/>
	<path class="st15" d="M160.9,222.5c-0.1,0.1-0.1,0.2-0.2,0.3c-2.3,3.7-5,7.5-8.1,11.1l-4-14.8l11.8,3.2L160.9,222.5z"/>
	<path class="st15" d="M167.5,210.1c-0.1,0.3-0.3,0.7-0.5,1c-1.7,3.7-3.7,7.5-6.1,11.4c-0.1,0.1-0.1,0.2-0.2,0.3l-0.3-0.4l-7.5-11.6
		l13.4-0.7L167.5,210.1z"/>
	<path class="st15" d="M171.7,198.9c-0.1,0.4-0.2,0.7-0.4,1.1c-1,3.1-2.3,6.5-3.9,10.2c-0.1,0.3-0.3,0.7-0.5,1l-0.6-1l-6.9-10.7
		l11.2-0.6L171.7,198.9z"/>
	<path class="st15" d="M174.8,185.9L174.8,185.9c0,0.4-0.7,5.5-3.1,12.9c-0.1,0.4-0.2,0.7-0.4,1.1l-0.7-1l-6.5-10.1L174.8,185.9z"/>
	<path class="st15" d="M50.4,220.1l-0.4,2.1l-2.2,12.9l-6.2-5.2c-1.4-2.1-2.8-4.2-4.1-6.3l10.9-3L50.4,220.1z"/>
	<polygon class="st15" points="64.3,216.3 63.8,218.1 59.9,232.2 50.1,222.2 48.5,220.6 50.4,220.1 62.5,216.8 	"/>
	<polygon class="st15" points="76.9,212.8 76.4,214.5 72.8,227.3 63.8,218.1 62.5,216.8 64.3,216.3 75.2,213.3 75.2,213.3 	"/>
	<polygon class="st15" points="89.9,209.2 89.4,211.3 85.8,224.1 76.4,214.5 75.2,213.3 76.9,212.8 87.9,209.8 	"/>
	<polygon class="st15" points="103,205.7 102.7,206.8 98.8,220.9 89.4,211.3 87.9,209.8 89.9,209.2 101.9,206 101.9,206 	"/>
	<polygon class="st15" points="117.8,201.6 117.6,202.3 113.3,217.6 102.7,206.8 101.9,206 103,205.7 117.1,201.8 	"/>
	<polygon class="st15" points="132.1,197.6 131.8,198.7 127.9,212.8 117.6,202.3 117.1,201.8 117.8,201.6 117.8,201.6 131.1,197.9 
		131.1,197.9 	"/>
	<polygon class="st15" points="146.9,193.6 146.4,195.5 142.5,209.5 131.8,198.7 131.1,197.9 132.1,197.6 145.1,194.1 145.1,194.1 	
		"/>
	<polygon class="st15" points="159.5,190.1 155.5,204.7 146.4,195.5 145.1,194.1 146.9,193.6 	"/>
</g>
</svg>
